<?xml version="1.0" standalone="no"?>
<!DOCTYPE svg PUBLIC "-//W3C//DTD SVG 20010904//EN"
 "http://www.w3.org/TR/2001/REC-SVG-20010904/DTD/svg10.dtd">
<svg version="1.0" xmlns="http://www.w3.org/2000/svg"
 width="1800.000000pt" height="2000.000000pt" viewBox="0 0 1800.000000 2000.000000"
 preserveAspectRatio="xMidYMid meet">

<g transform="translate(0.000000,2000.000000) scale(0.100000,-0.100000)"
fill="#ddddd" stroke="none">
<path d="M5720 19996 c0 -9 106 -56 127 -56 13 0 31 -4 41 -9 9 -6 28 -12 42
-15 14 -3 53 -23 87 -46 34 -22 66 -40 71 -40 4 0 21 -13 37 -30 16 -16 34
-30 41 -30 6 0 17 -7 24 -15 17 -21 109 -63 145 -67 48 -5 44 -35 -15 -93 -27
-27 -50 -54 -50 -59 0 -5 -10 -20 -21 -32 -12 -13 -27 -34 -33 -46 -6 -13 -20
-24 -31 -26 -11 -2 -29 -7 -40 -12 -11 -5 -33 -11 -50 -15 -16 -3 -38 -16 -48
-28 l-17 -22 -19 23 c-24 28 -32 28 -61 -2 -12 -14 -36 -28 -51 -31 -18 -4
-35 -18 -44 -36 -9 -16 -22 -29 -29 -29 -23 0 -58 -65 -50 -94 7 -29 -19 -47
-39 -27 -20 20 -29 12 -22 -19 7 -32 6 -33 -47 -44 -18 -4 -28 -13 -28 -25 0
-25 -22 -41 -47 -35 -15 4 -23 0 -28 -15 -4 -14 -18 -24 -36 -28 -42 -8 -63
-43 -55 -89 5 -22 3 -41 -4 -49 -15 -19 -3 -38 21 -32 28 7 82 -59 68 -84 -12
-23 -18 -23 -43 -4 -11 8 -37 15 -57 15 -29 0 -39 5 -44 20 -12 37 -52 10 -51
-35 1 -27 -2 -30 -35 -33 -24 -2 -45 -13 -65 -33 -19 -20 -37 -29 -60 -29 -18
0 -35 -4 -38 -9 -4 -5 -24 -12 -46 -16 -63 -11 -58 -25 9 -25 67 0 81 -10 52
-37 -77 -72 -85 -75 -106 -46 -11 15 -15 14 -49 -13 -28 -23 -36 -35 -35 -59
3 -43 -37 -105 -67 -105 -15 0 -24 -6 -24 -15 0 -8 9 -15 19 -15 24 0 33 -13
25 -34 -9 -23 -60 -20 -114 6 -25 12 -56 26 -69 32 -26 12 -71 9 -86 -5 -5 -5
-23 -9 -40 -9 -43 0 -111 -35 -118 -60 -3 -11 -13 -20 -25 -20 -11 0 -25 -7
-32 -15 -7 -8 -28 -15 -46 -15 -27 0 -36 -6 -48 -29 -12 -22 -20 -27 -40 -24
-19 4 -27 -1 -37 -22 -9 -17 -28 -32 -49 -39 -19 -6 -36 -17 -36 -23 -1 -7 -2
-17 -3 -23 0 -5 -6 -10 -13 -10 -6 0 -26 -16 -44 -36 -37 -40 -67 -42 -72 -6
-2 16 -8 22 -18 18 -7 -3 -23 4 -34 16 -17 19 -23 20 -43 9 -16 -8 -31 -9 -48
-3 -28 11 -46 4 -93 -35 -17 -15 -35 -21 -47 -18 -10 3 -30 -1 -43 -11 -35
-22 -56 -12 -56 27 0 29 2 31 26 25 24 -6 26 -5 21 16 -7 24 16 58 39 58 7 0
18 -9 24 -21 14 -25 35 -20 35 9 0 11 9 30 19 41 24 27 13 41 -35 41 -46 0
-61 21 -34 50 16 18 15 19 -15 35 -27 14 -37 15 -55 5 -17 -9 -28 -9 -43 -1
-17 9 -22 8 -27 -9 -7 -21 -39 -27 -50 -10 -10 16 -35 12 -35 -6 0 -9 -13 -28
-29 -43 -35 -33 -37 -42 -26 -101 5 -25 7 -55 6 -68 -2 -19 1 -22 21 -17 16 4
29 1 37 -9 10 -12 6 -25 -19 -70 -18 -31 -36 -59 -42 -62 -12 -8 0 -64 19 -86
9 -10 13 -26 10 -38 -3 -11 3 -30 14 -44 10 -13 19 -29 19 -35 0 -14 17 -14
25 -1 4 6 11 8 16 5 12 -8 12 -45 -1 -45 -5 0 -10 -6 -10 -14 0 -16 42 -46 65
-46 25 0 31 -31 9 -47 -16 -11 -17 -17 -6 -34 14 -22 8 -39 -14 -39 -8 0 -14
-10 -14 -24 0 -14 -4 -28 -10 -31 -14 -8 -13 -88 1 -102 8 -8 5 -19 -11 -41
-31 -42 -21 -63 24 -55 34 5 49 -7 26 -22 -5 -3 -10 -26 -10 -50 0 -24 5 -47
10 -50 6 -3 10 -16 10 -27 0 -18 -4 -20 -35 -15 -27 4 -35 2 -35 -9 0 -8 6
-16 13 -18 89 -25 98 -30 95 -50 -2 -16 -10 -21 -32 -21 -16 0 -31 -6 -33 -12
-3 -7 -17 -13 -31 -13 -26 0 -67 -18 -47 -21 44 -6 75 -2 75 9 0 16 45 15 59
-2 7 -8 21 -12 31 -9 28 7 26 -20 -2 -40 l-23 -16 22 0 c12 -1 24 -5 27 -10 3
-5 19 -11 36 -13 24 -4 30 -1 30 13 0 10 10 23 21 30 25 13 38 0 40 -41 1 -18
3 -15 10 14 13 57 25 66 80 66 l49 0 -6 30 c-6 26 -4 30 15 30 22 0 28 14 11
25 -6 4 -17 1 -25 -5 -21 -18 -47 -4 -43 22 2 18 10 24 38 26 19 2 39 8 45 13
5 5 24 9 42 9 l33 0 0 63 c0 74 17 97 69 97 23 0 34 6 40 23 13 33 57 71 75
64 9 -4 16 -17 16 -29 1 -30 23 -58 46 -58 25 1 61 30 66 55 3 14 11 19 26 18
16 -2 22 3 22 17 0 11 5 20 10 20 6 0 10 9 10 20 0 24 32 27 50 5 15 -18 30
-11 30 16 0 34 37 23 56 -16 16 -34 16 -37 -1 -55 -16 -18 -16 -20 -2 -20 10
0 23 15 32 36 14 34 17 36 55 32 33 -3 40 -1 40 15 0 9 8 20 18 23 9 3 25 10
34 15 24 13 72 11 86 -3 8 -8 15 -8 27 2 10 8 30 11 59 7 39 -6 44 -4 49 14 8
29 31 19 35 -14 2 -15 12 -32 23 -37 10 -6 19 -16 19 -22 0 -6 16 -28 36 -50
19 -22 33 -45 31 -51 -2 -7 -19 -14 -37 -17 -28 -4 -31 -7 -18 -18 10 -8 35
-11 69 -8 30 2 59 -1 66 -6 13 -10 7 -65 -8 -82 -5 -5 -6 -35 -2 -65 7 -72 -5
-85 -70 -72 -47 8 -67 1 -67 -26 0 -7 -9 -17 -20 -23 -23 -13 -27 -32 -5 -23
20 7 44 -24 45 -57 0 -30 -9 -44 -32 -53 -10 -3 -18 -12 -18 -19 0 -19 -70
-47 -108 -43 -21 2 -40 12 -49 25 -12 17 -18 19 -29 9 -24 -20 -13 -52 21 -61
23 -5 35 -18 48 -46 9 -21 17 -43 17 -48 0 -19 -61 -46 -90 -41 -16 4 -35 0
-46 -8 -11 -8 -36 -15 -56 -15 -33 0 -38 -3 -38 -23 0 -17 -10 -27 -38 -40
-21 -9 -44 -17 -50 -17 -6 0 -12 -15 -14 -32 -4 -40 -36 -46 -54 -10 l-11 23
-17 -25 c-21 -34 -20 -69 3 -90 16 -15 18 -22 9 -42 -10 -20 -8 -31 6 -55 16
-28 17 -32 2 -48 -24 -27 -19 -45 18 -65 28 -15 37 -16 54 -5 25 16 36 7 37
-29 0 -23 5 -27 32 -30 33 -3 59 -25 49 -41 -4 -5 -20 -12 -36 -16 -37 -8 -42
-15 -46 -76 -4 -49 -4 -49 26 -49 27 0 30 -3 30 -30 0 -20 8 -35 25 -46 14 -9
25 -25 25 -35 0 -12 7 -19 19 -19 10 0 24 -6 31 -14 6 -8 18 -12 26 -9 8 3 20
1 27 -5 6 -6 28 -12 47 -14 29 -2 34 0 35 17 0 11 8 31 17 44 21 29 48 22 48
-13 0 -13 6 -26 12 -28 9 -3 8 -10 -5 -22 -16 -17 -16 -20 -2 -35 8 -10 15
-22 15 -27 0 -5 11 -14 25 -21 16 -7 25 -7 25 -1 0 20 42 68 60 68 10 0 35 16
56 35 41 39 67 42 72 8 3 -23 -43 -105 -56 -100 -5 1 -22 -13 -37 -32 -26 -30
-27 -34 -12 -43 21 -11 22 -41 2 -58 -8 -7 -15 -18 -15 -25 0 -7 -7 -16 -16
-19 -13 -5 -15 -15 -9 -54 8 -57 17 -67 43 -51 16 10 24 9 48 -8 33 -23 114
-26 150 -6 16 9 25 9 40 -2 11 -7 40 -16 65 -20 40 -6 49 -3 76 19 17 14 36
26 43 26 7 0 25 9 41 21 24 17 27 23 17 39 -9 14 -9 25 -1 42 22 44 26 115 7
143 -16 25 -16 27 5 49 11 12 21 28 21 34 0 23 53 38 105 31 28 -4 71 -8 97
-8 61 -1 117 -35 118 -72 0 -17 9 -33 25 -43 29 -19 25 -36 -8 -36 -12 -1 -32
-9 -43 -18 -18 -15 -21 -26 -17 -69 5 -49 4 -52 -26 -67 -17 -9 -31 -23 -31
-31 0 -24 20 -68 38 -81 29 -22 1 -34 -96 -40 -69 -5 -96 -11 -108 -25 -14
-16 -14 -19 0 -42 15 -22 15 -26 -2 -48 -10 -13 -21 -32 -25 -42 -5 -12 -15
-16 -38 -15 -29 3 -32 1 -35 -34 -3 -23 0 -38 6 -38 6 0 18 -15 26 -32 8 -18
20 -41 27 -52 8 -13 9 -20 1 -23 -6 -2 -20 -10 -30 -17 -18 -14 -18 -15 0 -70
l19 -56 -26 -28 c-15 -16 -27 -33 -27 -40 0 -16 52 -65 95 -87 19 -11 35 -25
35 -32 0 -7 5 -21 11 -31 9 -15 8 -25 -7 -47 -14 -22 -18 -43 -16 -85 3 -51 1
-58 -22 -73 -14 -10 -45 -17 -70 -17 -43 0 -45 -1 -48 -32 -3 -30 -6 -33 -32
-30 -23 3 -27 0 -22 -13 4 -12 -2 -20 -24 -28 -16 -6 -30 -17 -30 -24 0 -16 2
-16 36 2 32 17 72 19 93 6 26 -17 5 -34 -64 -51 l-70 -18 -36 24 c-62 42 -108
23 -86 -36 12 -31 4 -60 -17 -60 -25 0 -76 56 -76 84 0 33 -24 34 -45 2 -13
-19 -13 -28 -4 -49 10 -21 17 -25 39 -20 22 4 31 0 39 -16 18 -33 -2 -61 -44
-61 -41 0 -43 -11 -15 -58 26 -42 25 -56 -2 -75 -23 -16 -23 -16 11 -16 21 -1
44 -9 56 -21 19 -18 23 -19 35 -6 9 12 17 13 31 5 15 -7 21 -6 25 5 3 8 14 18
25 21 15 5 19 16 19 49 0 24 6 48 13 53 20 16 166 45 221 44 16 0 35 4 42 10
8 6 20 6 38 -2 20 -9 29 -9 40 0 8 7 26 11 40 9 15 -2 34 6 48 19 13 12 39 23
58 25 l35 3 -3 71 -4 71 51 51 c48 48 54 51 108 54 56 3 58 4 69 36 15 46 27
55 84 58 46 2 50 1 50 -21 0 -21 3 -23 40 -18 22 3 53 0 70 -7 26 -11 34 -10
65 9 l36 21 37 -20 c40 -22 67 -25 77 -10 9 15 102 12 128 -4 31 -19 117 -29
133 -15 10 9 22 7 48 -5 47 -22 69 -20 162 15 27 9 64 -14 64 -41 0 -11 -10
-22 -22 -26 -13 -4 -33 -15 -46 -25 -19 -15 -35 -17 -93 -12 -55 5 -78 2 -109
-12 -40 -18 -41 -18 -63 3 -22 20 -24 21 -46 5 -22 -15 -26 -15 -51 1 -36 21
-35 21 -64 -11 -24 -25 -26 -26 -44 -10 -19 18 -40 21 -66 11 -12 -5 -16 -20
-16 -59 0 -46 -4 -56 -35 -88 -35 -36 -37 -37 -114 -37 -83 0 -94 -5 -104 -50
-10 -42 91 -130 150 -130 28 0 74 -22 92 -44 8 -9 25 -16 40 -16 16 0 33 -9
45 -25 23 -31 35 -31 65 0 21 22 31 25 100 25 65 0 81 -3 96 -20 10 -11 31
-20 47 -20 15 0 28 -4 28 -10 0 -5 13 -10 28 -10 16 0 37 -9 47 -20 17 -19 29
-20 134 -18 l116 3 -3 66 -4 65 41 37 c23 20 50 37 61 37 11 0 20 5 20 10 0 6
21 33 46 60 l47 50 93 0 c51 0 96 -4 99 -10 3 -5 16 -10 29 -10 13 0 31 -9 41
-20 24 -26 33 -25 66 6 23 22 26 31 22 68 -6 46 5 62 47 68 19 2 26 10 28 30
2 19 12 31 33 40 22 10 29 20 29 40 0 35 24 58 60 58 38 0 60 -24 60 -66 0
-20 5 -34 13 -35 43 -3 59 -8 77 -24 19 -17 21 -16 66 34 l46 51 67 0 c55 0
71 4 86 20 20 22 64 27 83 8 33 -33 -9 -140 -58 -146 -14 -2 -30 -8 -37 -14
-7 -5 -27 -9 -45 -7 -64 4 -78 0 -90 -28 -15 -36 -48 -73 -65 -73 -27 0 -11
-20 31 -40 24 -11 51 -27 60 -36 21 -20 21 -78 0 -98 -17 -18 -69 -22 -79 -6
-3 6 -15 10 -25 10 -11 0 -35 9 -54 19 -34 19 -34 19 -52 0 -24 -27 -81 -25
-105 3 -11 11 -19 25 -19 30 0 4 -19 8 -43 8 -36 0 -49 -6 -75 -33 -18 -18
-32 -37 -32 -42 0 -5 -9 -18 -19 -29 -14 -16 -20 -39 -22 -92 -3 -69 -3 -72
28 -98 17 -14 38 -26 47 -26 9 0 19 -8 22 -17 3 -10 10 -26 15 -35 5 -10 9
-29 9 -43 0 -18 5 -25 20 -25 11 0 20 -4 20 -10 0 -5 13 -10 29 -10 17 0 33
-4 36 -10 3 -5 26 -10 50 -10 24 0 47 5 50 10 3 6 32 10 63 10 57 0 58 -1 85
-42 25 -37 28 -51 25 -101 -3 -36 -10 -62 -19 -68 -19 -12 -66 -11 -74 2 -9
13 -55 -28 -55 -50 0 -8 -17 -30 -37 -48 -30 -28 -43 -33 -72 -31 -30 3 -37 8
-45 33 -13 44 -36 92 -36 78 0 -17 -52 -17 -68 -1 -10 10 -17 10 -32 0 -11 -6
-51 -12 -90 -12 -58 0 -71 3 -80 19 -25 48 1 101 51 101 29 0 49 37 49 89 0
27 -8 42 -36 68 -20 18 -42 33 -49 33 -6 0 -20 9 -30 20 -24 27 -80 27 -97 0
-10 -16 -24 -20 -68 -20 l-55 0 -80 -80 c-62 -62 -77 -82 -67 -92 7 -7 12 -42
12 -89 0 -83 -4 -89 -60 -89 -33 0 -47 15 -52 54 -5 43 -31 56 -61 28 -24 -23
-71 -30 -82 -12 -3 6 -19 10 -36 10 -16 0 -38 5 -48 12 -28 17 -51 -5 -51 -51
0 -49 -14 -61 -71 -61 -26 0 -51 -4 -54 -10 -9 -14 -68 -13 -83 2 -25 25 -14
67 28 107 22 21 40 48 40 59 0 12 16 38 36 58 l36 36 -36 37 c-20 20 -36 42
-36 49 0 9 -28 12 -99 12 -56 0 -101 4 -103 10 -1 5 -54 12 -117 15 -134 5
-144 8 -165 40 -9 14 -25 25 -35 25 -11 0 -32 6 -48 14 -15 8 -45 21 -65 30
-25 10 -40 24 -44 41 -4 18 -15 28 -35 32 -16 3 -29 9 -29 14 0 5 -15 9 -34 9
-29 0 -36 5 -44 29 -9 27 -14 29 -56 29 -27 -1 -60 7 -81 18 l-36 19 -53 -28
c-44 -23 -58 -26 -74 -18 -18 9 -21 8 -24 -12 -3 -19 -8 -22 -40 -19 -36 3
-58 -11 -38 -23 5 -3 10 -17 10 -31 0 -17 -5 -24 -19 -24 -11 0 -23 6 -27 12
-6 9 -10 5 -14 -11 -8 -35 -35 -49 -61 -33 -17 11 -27 11 -52 1 -27 -11 -32
-10 -48 9 -9 12 -22 22 -28 22 -14 0 -14 -6 -1 -31 14 -25 2 -89 -16 -89 -8 0
-17 7 -20 15 -8 20 -33 19 -41 -2 -3 -10 -15 -31 -26 -46 -19 -27 -19 -29 -1
-42 18 -12 18 -14 -1 -50 -27 -50 -41 -61 -60 -45 -13 10 -19 10 -33 -4 -10
-9 -29 -16 -41 -16 -20 0 -22 -4 -16 -29 5 -22 2 -32 -12 -40 -16 -9 -16 -10
-2 -11 21 0 31 -24 16 -39 -6 -6 -24 -11 -39 -11 -31 0 -38 -18 -10 -26 9 -3
25 -10 35 -15 10 -5 21 -7 26 -5 4 3 16 0 25 -7 20 -15 12 -47 -13 -47 -33 1
-94 19 -101 31 -12 19 -31 0 -24 -26 6 -26 -4 -35 -50 -45 l-31 -7 25 -11 c39
-15 55 -39 40 -57 -7 -8 -23 -15 -36 -15 -31 0 -40 -17 -20 -39 9 -10 16 -23
16 -29 0 -17 -35 -15 -50 3 -7 8 -16 12 -22 9 -13 -8 11 -34 32 -34 36 0 42
-76 8 -90 -22 -8 -22 -9 5 -9 23 -1 27 -5 27 -31 0 -31 17 -39 38 -18 21 21
32 -5 33 -84 1 -75 2 -77 28 -80 20 -2 27 -9 29 -29 3 -23 9 -27 45 -32 29 -4
48 -13 61 -30 18 -25 18 -25 38 -5 27 27 42 18 46 -24 3 -30 8 -38 33 -47 39
-14 37 -39 -6 -57 -20 -8 -38 -21 -42 -30 -3 -8 -23 -24 -45 -35 -44 -23 -56
-42 -38 -64 16 -19 -3 -45 -34 -46 -18 0 -17 -2 7 -11 31 -11 31 -31 1 -37
-10 -2 -27 -12 -37 -22 -10 -10 -26 -19 -37 -19 -24 0 -37 -20 -20 -30 20 -12
4 -42 -19 -35 -16 5 -18 2 -14 -15 3 -11 0 -27 -7 -35 -10 -13 -10 -19 4 -33
20 -23 20 -32 1 -32 -9 0 -15 -9 -15 -22 0 -12 -7 -29 -16 -39 -15 -16 -13
-20 19 -52 25 -25 36 -47 40 -78 7 -50 3 -59 -24 -59 -15 0 -19 -7 -19 -31 0
-26 3 -29 20 -24 17 5 23 0 36 -30 14 -35 17 -37 49 -31 28 6 36 3 46 -16 10
-19 8 -24 -17 -44 -15 -13 -35 -38 -44 -56 -19 -41 -34 -39 -40 7 -6 44 -24
46 -24 4 -1 -55 -66 -69 -66 -14 0 24 -2 25 -62 25 -61 0 -128 -17 -128 -32 0
-5 10 -6 23 -3 15 4 28 1 36 -9 18 -22 6 -48 -21 -44 -11 2 -23 -3 -25 -9 -3
-8 5 -13 21 -13 28 0 36 -26 14 -48 -9 -9 -9 -18 0 -37 7 -14 12 -39 12 -55 0
-36 17 -39 30 -6 4 13 29 40 54 60 24 21 46 47 48 59 2 16 11 23 31 25 24 3
27 0 27 -29 0 -26 2 -30 15 -19 22 18 37 2 30 -31 -6 -25 -3 -30 19 -39 14 -5
26 -14 26 -19 0 -18 -40 -33 -69 -26 -26 6 -28 4 -24 -19 6 -29 13 -32 31 -14
22 22 78 9 116 -27 44 -41 45 -55 7 -55 -25 0 -30 -4 -33 -27 -2 -20 -8 -27
-20 -25 -12 2 -18 -4 -18 -18 0 -11 7 -20 15 -20 32 0 41 -101 13 -137 -6 -7
-4 -19 3 -31 10 -17 10 -24 -1 -37 -21 -25 -54 -15 -58 19 -3 25 -7 28 -32 23
-16 -4 -35 0 -46 8 -26 19 -64 19 -64 0 0 -9 7 -30 16 -46 8 -17 13 -36 11
-42 -2 -7 2 -20 11 -29 13 -16 13 -20 -2 -42 -9 -14 -16 -34 -16 -45 0 -11 -5
-23 -10 -26 -15 -9 7 -35 30 -35 28 0 43 25 25 40 -19 16 -19 25 2 72 14 31
22 38 44 38 36 0 79 -19 81 -37 0 -7 1 -19 2 -25 1 -7 9 -19 19 -26 22 -17 22
-38 0 -51 -10 -5 -16 -11 -13 -13 3 -2 23 -13 45 -24 46 -25 67 -79 38 -101
-10 -8 -14 -21 -11 -38 3 -16 -1 -32 -10 -41 -14 -14 -14 -21 2 -63 9 -26 14
-55 10 -65 -4 -11 1 -24 15 -37 11 -11 21 -25 21 -32 0 -19 -21 -37 -42 -37
-15 0 -18 -8 -18 -45 0 -39 3 -45 21 -45 24 0 89 -47 89 -65 0 -7 -7 -18 -15
-25 -11 -9 -12 -17 -5 -30 14 -26 13 -29 -16 -40 -27 -11 -24 -30 5 -30 9 0
22 -5 28 -11 8 -8 13 -8 17 0 11 17 86 14 92 -3 8 -20 -12 -53 -37 -61 -11 -4
-18 -12 -16 -18 3 -11 24 -18 89 -32 22 -4 28 -12 34 -41 6 -31 3 -40 -16 -54
l-23 -18 22 -11 c19 -10 20 -15 10 -28 -11 -12 -10 -17 4 -28 23 -16 21 -40
-4 -75 -21 -27 -22 -51 -5 -91 8 -19 -38 -79 -59 -79 -8 0 -21 10 -29 22 -12
17 -18 20 -28 10 -7 -7 -20 -12 -30 -12 -10 0 -18 -3 -18 -8 0 -10 70 -34 99
-33 20 1 23 -3 19 -24 -7 -32 8 -42 31 -21 22 20 33 20 52 -1 9 -10 24 -23 34
-29 24 -13 14 -29 -38 -57 l-42 -22 38 -3 c44 -4 57 -24 32 -52 -10 -11 -15
-26 -11 -36 5 -14 9 -13 26 9 11 14 31 29 43 32 12 4 39 18 59 32 31 21 41 23
53 13 8 -7 15 -20 15 -30 0 -19 -30 -50 -48 -50 -7 0 -12 -16 -12 -40 0 -43
-12 -50 -41 -24 -17 15 -20 14 -48 -13 -22 -23 -27 -33 -18 -42 15 -15 27 -14
48 5 26 23 51 11 47 -23 -3 -24 1 -28 25 -31 34 -4 54 -37 36 -58 -9 -11 -27
-15 -63 -12 -33 2 -51 -1 -53 -9 -3 -9 6 -13 26 -13 19 0 34 -6 37 -15 4 -8
12 -15 19 -15 19 0 45 -34 45 -60 0 -30 -27 -49 -67 -50 -34 0 -41 -12 -24
-39 8 -12 12 -12 25 -2 39 32 65 -32 29 -71 -16 -18 -16 -21 -1 -51 9 -18 18
-41 20 -51 4 -26 28 -33 28 -8 0 42 54 54 66 15 3 -10 10 -26 15 -35 5 -10 9
-25 9 -33 0 -9 10 -19 23 -24 12 -5 31 -18 41 -30 17 -18 17 -25 7 -45 -15
-27 -8 -59 20 -95 23 -29 24 -64 4 -85 -17 -17 -20 -42 -5 -51 6 -3 10 -17 10
-31 0 -17 8 -27 25 -34 15 -6 25 -17 25 -30 0 -11 5 -29 10 -40 6 -11 15 -29
20 -40 6 -11 10 -35 10 -54 0 -19 5 -38 10 -41 6 -4 31 12 55 34 41 38 65 51
65 34 0 -4 -18 -28 -40 -54 -22 -26 -40 -54 -40 -61 0 -7 14 -19 32 -27 29
-13 33 -13 49 7 26 33 42 28 34 -10 -4 -18 -11 -37 -16 -42 -15 -17 -10 -38 9
-34 9 2 16 11 14 20 -4 24 35 43 54 27 18 -15 18 -59 0 -59 -20 0 -26 -76 -7
-94 20 -20 6 -48 -21 -44 -18 2 -24 11 -28 38 -3 22 -11 36 -22 38 -16 3 -16
0 -4 -42 18 -60 8 -68 -74 -59 -58 6 -64 4 -80 -17 -11 -15 -23 -21 -34 -17
-27 11 -18 36 24 62 43 27 79 32 98 13 9 -9 12 -8 12 4 0 9 -11 19 -25 22 -14
4 -25 14 -25 24 0 15 -3 14 -18 -4 -21 -26 -87 -64 -110 -64 -16 0 -18 -10
-16 -75 2 -65 0 -77 -17 -89 -18 -12 -25 -28 -28 -59 -1 -4 -16 -5 -35 -2 -20
4 -36 2 -40 -4 -5 -7 2 -11 17 -11 14 0 30 -7 37 -15 8 -9 22 -12 41 -8 17 3
35 0 44 -7 13 -10 19 -10 35 5 23 21 18 35 -15 35 -26 0 -39 23 -26 48 5 9 12
25 15 35 3 10 15 17 29 17 13 0 28 5 35 12 15 15 52 -16 52 -43 0 -23 33 -33
58 -18 25 15 54 4 50 -18 -2 -10 -13 -22 -26 -28 -30 -13 -28 -20 14 -57 42
-37 79 -58 103 -58 9 0 23 -6 29 -12 10 -10 17 -10 34 1 17 11 23 10 36 -3 14
-13 14 -21 5 -47 -9 -24 -9 -35 0 -50 9 -14 9 -21 -1 -31 -6 -6 -12 -22 -12
-34 0 -30 -14 -38 -41 -24 -15 9 -19 18 -15 34 3 13 -1 31 -8 42 -12 16 -18
17 -37 7 -13 -7 -35 -14 -49 -16 -23 -3 -23 -4 -5 -11 57 -22 65 -27 65 -45 0
-25 -21 -32 -42 -14 -9 8 -22 12 -27 8 -16 -9 -13 -45 3 -51 8 -3 19 -19 25
-35 9 -25 15 -29 48 -29 41 0 63 -14 63 -38 0 -12 -10 -13 -50 -8 l-50 7 0
-30 c0 -28 -24 -55 -76 -88 -18 -11 -18 -11 -1 -18 12 -5 24 -1 38 14 11 11
24 21 29 21 13 0 25 -22 25 -45 0 -18 6 -20 62 -18 53 2 66 -1 82 -18 22 -23
51 -20 51 6 0 9 9 26 20 38 18 18 22 20 30 7 19 -30 7 -70 -21 -70 -10 0 -19
-6 -19 -13 0 -21 -33 -47 -59 -47 -13 0 -19 -4 -16 -10 4 -6 16 -10 28 -8 18
3 22 -2 22 -27 0 -38 -25 -44 -62 -15 -19 15 -35 19 -55 15 -24 -6 -28 -3 -28
14 0 14 6 21 19 21 26 0 44 23 29 38 -15 15 -37 15 -72 0 -26 -12 -27 -16 -22
-63 4 -35 12 -54 26 -64 26 -18 25 -34 -2 -46 -12 -6 -25 -21 -28 -34 -7 -32
-30 -39 -37 -12 -7 29 -26 26 -40 -6 -19 -39 -16 -59 9 -75 23 -15 23 -15 4
-50 -18 -33 -18 -37 -2 -69 l17 -34 -35 -31 c-55 -48 -47 -112 13 -99 26 6 31
11 31 36 0 16 4 29 10 29 10 0 7 96 -4 122 -9 20 0 38 19 38 8 0 21 13 29 29
12 22 13 36 5 67 -9 32 -8 40 7 51 10 7 23 13 29 13 14 0 37 38 30 50 -4 6
-13 10 -21 10 -13 0 -20 31 -8 42 12 13 76 -17 92 -44 9 -15 20 -28 24 -28 4
0 8 -4 8 -9 0 -5 -23 -11 -51 -15 -49 -7 -50 -7 -47 -39 4 -39 42 -52 51 -18
5 22 37 30 37 10 0 -6 -27 -38 -60 -71 -33 -32 -60 -63 -60 -67 0 -17 29 -20
41 -5 16 20 71 49 86 46 7 -2 13 14 15 40 3 43 20 56 26 21 4 -18 29 -43 44
-43 16 0 8 44 -12 65 -29 31 -31 69 -3 73 17 2 26 -3 32 -20 16 -42 34 -50 70
-32 37 19 40 34 6 34 -15 0 -31 9 -41 25 -9 14 -25 25 -35 25 -10 0 -23 9 -29
20 -9 16 -7 22 6 27 10 4 19 2 22 -5 2 -7 17 -12 33 -12 16 0 41 -7 54 -16 14
-9 25 -12 25 -7 0 15 -45 53 -62 53 -20 0 -73 27 -88 45 -19 23 -4 45 29 45
20 0 30 -6 34 -20 4 -15 14 -20 39 -20 19 0 38 -4 44 -10 16 -16 40 78 25 102
-13 21 -7 38 13 38 14 0 52 -37 70 -68 6 -11 20 -31 30 -46 l19 -27 -29 -30
-28 -29 15 -58 15 -57 42 -3 c49 -4 75 -32 65 -70 -3 -13 0 -34 7 -48 11 -20
21 -24 61 -24 56 0 71 -16 40 -41 -14 -12 -20 -25 -17 -36 7 -23 -2 -35 -36
-50 -44 -19 -37 -49 13 -57 47 -7 49 -29 4 -34 -16 -2 -41 -12 -56 -23 -34
-24 -48 -24 -79 1 -29 23 -58 25 -83 6 -17 -13 -16 -15 8 -44 14 -16 25 -41
25 -55 0 -44 10 -57 45 -57 30 0 35 -5 52 -45 l18 -45 53 3 c38 1 55 -2 62
-13 14 -21 7 -34 -18 -38 -28 -4 -29 -22 -2 -29 13 -3 20 -14 20 -29 0 -30
-22 -31 -62 -3 -22 16 -32 19 -41 10 -9 -9 -6 -13 10 -17 12 -3 24 -13 28 -21
6 -17 -21 -53 -40 -53 -7 0 -20 -9 -30 -20 -18 -19 -18 -22 -2 -38 16 -16 19
-15 43 11 36 39 66 33 75 -17 2 -11 10 -21 17 -24 19 -6 14 30 -8 58 -21 26
-27 60 -10 60 5 0 14 -9 20 -20 13 -24 70 -29 70 -5 0 8 -7 15 -15 15 -8 0
-15 5 -15 11 0 7 9 9 23 5 12 -3 30 -6 39 -6 9 0 20 -9 23 -20 4 -13 15 -20
31 -20 13 0 24 -6 24 -13 0 -16 39 -46 103 -77 54 -27 70 -19 58 29 -8 28 -42
48 -128 76 -31 10 -53 23 -53 31 0 18 29 18 36 0 4 -11 22 -13 75 -10 l70 3 6
-29 c3 -17 12 -30 19 -30 10 0 13 7 8 25 -6 25 -6 25 42 18 52 -7 79 -29 90
-73 10 -38 34 -60 66 -60 21 0 28 -5 28 -19 0 -39 -57 -50 -97 -19 -20 16 -45
1 -41 -23 5 -33 32 -46 62 -30 31 17 56 1 56 -36 0 -15 12 -34 30 -50 23 -18
30 -33 30 -59 0 -19 2 -34 5 -34 2 0 25 10 49 22 40 19 48 20 71 8 14 -7 25
-19 25 -26 0 -19 -68 -54 -105 -54 -19 0 -37 -4 -40 -10 -3 -5 -15 -10 -26
-10 -42 0 -14 -60 43 -88 40 -20 48 -57 23 -109 -16 -34 -16 -38 -1 -65 16
-26 16 -29 0 -35 -10 -4 -22 0 -29 11 -12 16 -15 15 -50 -4 -21 -12 -42 -17
-46 -13 -10 10 38 93 54 93 19 0 34 61 22 88 -12 27 -46 29 -63 2 -10 -16 -10
-24 0 -40 11 -17 9 -23 -10 -42 l-23 -23 -21 25 c-11 14 -26 24 -34 22 -17 -4
-29 41 -16 65 5 10 10 48 10 85 1 75 -22 120 -57 111 -26 -7 -62 14 -55 32 9
22 43 29 62 12 9 -9 35 -19 57 -23 22 -4 46 -15 53 -26 7 -10 17 -18 23 -18
18 0 8 20 -26 51 -19 18 -32 35 -30 39 5 9 -23 34 -47 43 -10 4 -18 12 -18 19
0 7 -11 18 -24 24 -21 10 -28 8 -45 -10 -10 -11 -21 -32 -23 -46 -2 -18 -10
-26 -28 -28 -37 -6 -95 -82 -62 -82 15 0 32 -50 32 -94 0 -28 6 -48 16 -57 30
-25 55 -131 34 -144 -19 -12 -10 -31 20 -42 43 -16 40 -43 -4 -43 -19 0 -38
-4 -41 -10 -11 -17 -35 -11 -35 9 0 10 -7 24 -15 31 -14 12 -14 15 0 36 27 41
19 71 -27 105 -24 17 -53 35 -65 40 -13 5 -23 15 -23 24 0 9 -9 15 -24 15 -14
0 -28 5 -31 10 -3 6 -16 10 -29 10 -12 0 -35 14 -51 30 -16 17 -35 30 -42 30
-24 0 -13 -26 30 -68 33 -33 51 -42 77 -43 27 0 41 -7 59 -30 13 -17 20 -33
16 -37 -3 -4 -29 -7 -57 -7 l-51 0 -4 -42 -4 -42 45 16 c46 17 70 13 48 -9
-17 -17 -15 -59 3 -85 20 -28 55 -20 55 13 0 24 33 50 50 39 12 -8 13 -38 1
-50 -4 -6 -11 -24 -14 -42 -5 -26 -2 -34 18 -47 21 -14 22 -19 12 -45 -6 -17
-8 -34 -3 -38 11 -12 46 38 46 68 0 14 3 28 6 32 11 11 35 -5 45 -29 10 -29
24 -30 46 -5 16 19 17 18 55 -21 32 -33 36 -43 26 -55 -9 -11 -23 -13 -50 -9
-41 7 -46 -1 -26 -34 10 -16 10 -24 0 -41 -23 -36 -4 -34 34 5 37 38 66 44 72
13 2 -11 -6 -20 -22 -27 -51 -19 -22 -50 44 -47 31 1 50 7 61 20 15 19 16 19
32 -7 10 -14 24 -26 32 -26 8 0 15 -7 15 -15 0 -13 -7 -15 -35 -9 -24 4 -46 1
-70 -10 -30 -15 -34 -20 -25 -37 8 -14 21 -19 50 -19 21 0 41 -4 45 -9 3 -6
40 -26 82 -47 68 -32 81 -35 106 -26 27 10 34 8 85 -34 45 -37 60 -44 83 -39
18 4 36 1 51 -9 30 -22 48 -20 48 4 0 11 7 20 16 20 11 0 14 -6 9 -20 -5 -14
-1 -22 12 -26 10 -3 26 -10 35 -15 10 -5 26 -9 36 -9 10 0 23 -5 30 -12 13
-13 42 5 42 28 0 7 12 19 28 26 33 16 40 52 17 78 -12 13 -15 25 -10 37 11 25
6 52 -18 95 -17 31 -18 40 -7 53 8 9 10 28 7 49 -3 20 0 45 9 61 21 41 17 60
-17 89 -37 31 -52 32 -91 5 -23 -17 -28 -26 -24 -48 3 -14 3 -30 -2 -36 -14
-19 -100 -85 -111 -85 -19 0 -16 -74 4 -107 12 -18 12 -26 -1 -52 -8 -16 -29
-42 -45 -55 -24 -21 -34 -24 -50 -16 -26 15 -24 25 11 50 29 21 31 26 28 78
-2 46 -7 57 -22 60 -27 6 -40 -12 -26 -37 15 -29 6 -53 -29 -74 -31 -18 -54
-6 -32 16 16 16 14 52 -4 67 -21 18 -51 -10 -62 -58 -7 -30 -14 -38 -35 -40
-29 -3 -48 25 -23 34 22 9 18 41 -5 54 -32 17 -26 41 9 34 16 -3 39 -1 51 6
22 12 22 13 4 22 -56 30 -66 39 -53 54 6 8 29 14 51 14 32 0 41 -4 45 -20 3
-12 12 -20 21 -18 15 3 18 7 43 63 8 16 42 56 77 89 58 57 76 86 51 86 -6 0
-9 10 -7 22 4 32 34 35 44 5 8 -20 13 -23 31 -16 13 5 31 22 42 39 10 17 40
43 67 57 27 14 66 41 87 59 43 39 41 39 76 18 26 -15 30 -15 77 10 69 36 84
50 84 77 0 14 9 31 20 39 11 8 20 21 20 30 1 17 79 80 100 80 8 0 24 10 37 22
l24 23 52 -28 c46 -24 61 -26 134 -24 45 1 85 6 89 10 14 14 -58 77 -89 77
-19 0 -36 10 -54 30 -20 24 -33 30 -64 30 -31 0 -42 5 -56 28 -41 62 -89 77
-150 47 -32 -16 -63 -11 -63 10 0 7 -7 18 -15 25 -13 11 -24 9 -60 -9 -25 -12
-47 -26 -50 -32 -4 -5 -21 -9 -39 -9 -17 0 -37 -5 -43 -11 -19 -19 -43 -2 -43
30 0 16 -4 32 -9 35 -4 3 -11 28 -15 55 -4 28 -11 53 -16 56 -15 9 -50 -14
-50 -34 0 -20 -30 -51 -49 -51 -6 0 -16 11 -21 25 -8 22 -15 25 -57 25 -46 0
-50 -2 -93 -55 -46 -57 -73 -66 -78 -28 -2 14 7 28 28 43 25 18 30 28 28 54
-3 27 0 31 25 34 16 2 36 15 49 32 11 16 34 34 49 41 24 9 29 17 29 46 0 32 2
35 23 29 12 -3 28 -6 35 -6 14 0 16 -36 2 -45 -5 -3 -10 -16 -10 -29 0 -24
-28 -56 -49 -56 -31 0 0 -25 39 -32 54 -9 61 -1 58 66 -2 29 1 51 8 53 15 5
67 -75 60 -93 -3 -7 -1 -16 4 -19 6 -4 10 5 10 19 0 14 5 28 11 32 6 3 8 16 4
28 -9 27 -25 117 -31 181 -3 28 -10 54 -15 60 -13 13 -11 42 3 65 10 16 10 24
0 40 -6 11 -12 28 -12 38 0 33 -31 82 -60 97 -47 24 -82 19 -105 -15 -25 -37
-50 -38 -67 -3 -9 18 -23 30 -42 33 -16 3 -32 13 -35 23 -6 16 -10 14 -36 -13
-21 -22 -38 -30 -64 -30 -20 0 -41 4 -47 8 -13 8 -29 53 -25 67 2 6 7 26 10
45 8 47 39 52 64 10 16 -27 23 -30 65 -30 43 0 48 3 61 31 19 42 0 76 -46 85
-25 5 -41 17 -59 45 -15 24 -35 41 -52 45 -38 9 -52 23 -52 50 0 21 5 24 39
24 22 0 43 -4 46 -10 3 -5 23 -10 44 -10 37 0 66 -25 84 -73 4 -9 19 -22 34
-28 16 -6 37 -21 48 -34 14 -17 32 -25 65 -27 43 -3 45 -2 48 25 3 26 6 28 33
22 24 -6 29 -3 29 13 0 24 25 46 44 39 7 -3 23 1 34 9 26 18 37 4 34 -43 -3
-36 8 -42 32 -18 8 8 23 15 34 15 11 0 25 -7 32 -15 7 -8 21 -15 31 -15 16 0
19 8 21 45 1 25 2 53 2 63 1 10 -8 18 -22 20 -31 5 -45 37 -38 89 4 33 2 49
-9 60 -8 8 -15 18 -15 23 0 17 32 40 54 40 13 0 35 10 50 21 23 18 27 28 24
61 -2 32 2 44 20 58 12 10 22 23 22 28 0 5 7 15 15 22 11 9 14 22 10 41 -3 15
-2 30 4 33 6 4 8 20 4 36 -5 29 -4 30 29 30 43 0 79 36 67 67 -12 32 3 42 64
45 55 2 58 4 52 25 -4 16 0 25 10 29 8 4 15 15 15 27 0 11 10 31 21 43 l21 23
-23 -1 c-31 -2 -49 -16 -49 -39 0 -11 -7 -19 -15 -19 -11 0 -15 12 -15 45 0
25 5 45 10 45 6 0 10 8 10 18 0 11 9 27 20 37 11 10 20 27 20 39 0 20 46 76
63 76 5 0 7 -19 5 -43 -4 -37 -2 -43 13 -44 21 -2 24 8 8 24 -8 8 -8 13 0 17
8 5 8 13 0 28 -8 14 -8 23 0 31 17 17 14 67 -4 67 -8 0 -15 5 -15 11 0 6 6 9
14 6 7 -3 23 1 35 9 16 12 21 26 21 59 0 41 26 105 43 105 4 0 7 11 7 24 0 19
7 25 36 30 22 5 41 3 50 -5 20 -17 28 -5 14 21 -9 16 -15 19 -23 11 -14 -14
-54 -14 -62 -1 -3 5 -12 7 -20 3 -10 -3 -15 2 -15 16 0 24 2 24 85 21 36 -1
74 5 95 14 l35 15 -41 1 c-33 0 -45 5 -58 25 -9 13 -16 30 -16 38 0 7 -21 24
-46 36 -65 33 -66 47 -8 98 38 34 55 42 75 39 15 -3 29 -2 32 1 8 8 -46 73
-60 73 -20 0 -15 25 7 45 19 17 21 29 18 122 -1 57 -5 109 -9 115 -4 7 -4 19
1 29 7 12 4 22 -10 34 -11 10 -20 28 -20 40 0 12 -9 30 -20 40 -11 10 -20 29
-20 42 0 28 -16 30 -30 3 -13 -24 -25 -25 -64 -5 -46 24 -43 9 8 -42 49 -50
60 -73 54 -119 -4 -34 -27 -44 -35 -15 -4 16 -13 21 -39 21 -40 0 -45 -16 -10
-30 19 -7 26 -19 32 -55 8 -56 1 -65 -29 -37 -13 12 -30 22 -39 22 -23 0 -41
27 -36 54 4 20 0 26 -16 28 -16 2 -22 11 -24 36 l-3 34 41 -3 c45 -4 68 16 56
48 -6 14 -8 14 -24 -1 -39 -34 -109 -17 -174 43 -27 24 -28 24 -28 3 0 -11 -5
-24 -12 -28 -11 -7 -19 2 -44 43 -10 16 -14 16 -37 4 -25 -13 -29 -12 -50 10
-13 13 -32 29 -43 35 -16 10 -17 13 -5 28 12 14 11 16 -11 16 -33 0 -59 29
-51 58 4 15 1 22 -9 22 -8 0 -23 9 -33 20 -20 22 -13 36 19 42 32 5 29 23 -6
39 -37 16 -48 51 -25 77 8 9 17 34 20 55 l6 37 -73 0 c-77 0 -96 9 -96 47 0
13 -4 31 -9 41 -5 9 -12 25 -15 35 -3 9 -14 20 -23 23 -10 3 -26 10 -35 15
-10 5 -49 9 -87 9 -39 0 -73 5 -76 10 -3 6 -10 10 -15 10 -11 0 -38 -57 -42
-90 -4 -31 -49 -50 -78 -32 -12 7 -21 8 -25 2 -10 -17 -61 -11 -78 8 -24 26
-23 103 1 123 10 8 26 18 36 22 10 4 16 13 13 21 -6 16 19 49 46 59 10 4 17
17 17 31 0 14 4 28 10 31 6 3 10 17 10 30 0 13 5 27 10 30 6 3 10 19 10 34 0
34 17 51 51 51 51 0 59 -9 59 -61 0 -55 19 -80 86 -114 21 -11 42 -24 45 -28
4 -5 25 3 47 17 23 14 49 26 57 26 32 0 55 -20 55 -49 0 -15 9 -36 20 -46 11
-10 20 -26 20 -35 0 -10 7 -20 15 -24 8 -3 15 -17 15 -31 0 -22 4 -25 33 -25
21 0 41 -8 52 -20 13 -14 22 -17 29 -10 28 28 81 -16 72 -60 -3 -18 3 -33 22
-53 20 -21 27 -38 27 -74 1 -41 6 -50 40 -80 35 -30 38 -36 27 -53 -10 -16
-10 -20 2 -20 8 0 16 -7 20 -15 4 -11 13 -14 31 -9 15 4 32 1 40 -6 20 -17 32
-5 15 15 -7 8 -10 29 -8 46 3 20 0 33 -9 36 -16 6 -19 133 -3 133 6 0 10 11
10 24 0 35 13 39 44 15 27 -21 34 -57 14 -77 -15 -15 7 -42 33 -42 26 0 24
-25 -3 -44 -26 -19 -18 -32 10 -17 30 16 32 14 32 -24 0 -20 5 -35 12 -35 6 0
19 -6 27 -14 9 -7 35 -16 59 -19 40 -5 42 -4 42 20 0 14 10 38 21 55 18 25 19
32 8 39 -8 5 -22 9 -32 9 -11 0 -17 6 -14 13 2 6 9 12 14 12 19 0 27 15 29 53
4 65 20 267 23 277 7 21 0 65 -9 65 -6 0 -10 -29 -10 -66 0 -56 -2 -65 -17
-62 -25 5 -40 64 -24 90 10 16 10 22 1 28 -7 4 -10 16 -8 26 3 16 13 19 58 21
30 1 60 -3 66 -8 16 -13 25 3 14 21 -5 8 -6 25 -3 39 5 20 3 22 -14 17 -29 -9
-48 16 -32 42 10 16 10 23 -4 37 -16 15 -17 14 -17 -14 0 -17 -5 -31 -10 -31
-6 0 -20 -11 -32 -25 -35 -40 -68 -31 -75 21 -2 14 6 27 22 38 18 12 25 25 25
49 0 18 5 38 12 45 9 9 9 12 0 12 -7 0 -12 5 -12 11 0 13 76 89 89 89 6 0 15
15 22 34 7 19 20 37 28 40 9 3 30 14 46 25 17 11 42 20 58 20 24 1 27 4 21 26
-8 32 11 55 43 55 22 0 24 -3 18 -29 -6 -26 -3 -29 26 -33 46 -7 68 0 62 21
-7 26 21 43 72 43 31 1 45 5 45 15 0 8 -12 13 -34 13 -19 0 -38 5 -41 10 -3 5
-43 10 -87 10 -70 0 -85 -3 -104 -21 l-23 -22 -32 33 c-28 27 -31 35 -21 51
16 25 15 32 -3 25 -31 -12 -45 5 -45 53 0 26 5 52 12 59 9 9 8 12 -5 12 -10 0
-17 -8 -17 -21 0 -30 -51 -89 -77 -89 -23 0 -73 40 -73 58 0 22 54 54 81 48
36 -7 54 14 34 40 -8 10 -15 31 -15 47 0 15 -4 27 -8 27 -5 0 -9 14 -9 31 0
25 8 36 38 55 21 13 45 24 53 24 8 0 18 5 22 11 3 6 25 19 48 29 22 9 50 27
60 39 11 11 25 21 33 21 7 0 13 5 13 10 0 6 8 10 18 10 21 0 92 -69 92 -89 0
-10 3 -11 14 -2 10 8 16 9 21 1 3 -5 10 -10 16 -10 15 0 10 22 -8 35 -23 17
-10 45 22 45 25 0 35 23 15 35 -5 3 -10 17 -10 31 0 14 -5 34 -11 45 -23 43
21 81 51 44 9 -11 27 -15 59 -13 43 3 46 5 49 32 2 16 -2 39 -8 51 -9 17 -9
40 -1 93 18 115 16 132 -16 133 -21 0 -36 11 -61 46 -30 40 -33 51 -28 88 5
32 15 48 48 76 23 19 47 33 53 32 6 -2 19 16 29 40 15 33 20 69 22 165 2 113
1 123 -18 133 -11 6 -20 9 -21 7 -16 -30 -28 -45 -45 -54 -12 -6 -30 -18 -40
-27 -20 -19 -67 -23 -77 -7 -3 6 -19 10 -34 10 -36 0 -51 17 -51 56 0 17 -7
44 -15 60 -13 25 -18 28 -64 25 -27 -1 -52 2 -56 8 -3 6 -16 11 -29 11 -25 0
-56 29 -80 78 -14 27 -22 32 -51 32 -18 0 -37 5 -40 10 -10 16 -61 12 -76 -6
-7 -9 -23 -20 -35 -24 -19 -8 -21 -14 -16 -60 3 -33 0 -60 -9 -76 -10 -20 -10
-29 -1 -44 7 -11 12 -37 12 -58 0 -45 14 -62 50 -62 35 0 50 -17 50 -56 0 -45
-23 -64 -76 -64 -36 0 -54 7 -94 38 -43 32 -49 42 -49 75 -1 29 -5 37 -19 37
-21 0 -42 19 -42 38 0 31 -28 42 -104 42 -41 0 -78 5 -81 10 -3 6 -21 10 -39
10 -20 0 -40 8 -51 20 -10 11 -28 20 -41 20 -13 0 -31 11 -41 26 -10 14 -29
39 -42 55 -18 23 -22 38 -18 64 4 23 1 38 -9 46 -8 6 -14 22 -14 35 0 12 -4
26 -10 29 -5 3 -10 17 -10 31 0 16 -11 35 -30 51 -26 22 -30 31 -30 77 0 60
12 76 55 76 44 0 83 -43 87 -95 3 -37 5 -40 38 -45 20 -4 41 -10 48 -14 16 -9
16 -81 0 -106 -10 -16 -9 -22 10 -38 12 -11 22 -26 22 -34 0 -22 21 -38 50
-38 14 0 31 -5 38 -12 9 -9 15 -9 24 0 19 19 60 14 85 -10 29 -27 56 -15 61
27 2 16 17 41 33 56 16 15 29 36 29 47 0 37 12 51 46 58 19 3 37 10 40 15 3 5
16 9 29 9 14 0 40 9 60 20 20 11 42 20 49 20 17 0 114 -50 171 -89 24 -16 54
-32 67 -36 12 -4 34 -17 47 -29 17 -15 25 -17 28 -8 5 14 73 17 73 2 0 -5 17
-10 38 -10 26 0 45 -7 57 -20 25 -28 37 -25 23 6 -10 22 -9 28 9 42 11 10 23
29 27 45 6 27 29 36 41 17 10 -17 25 -11 25 10 0 21 15 27 25 10 3 -5 16 -10
29 -10 12 0 27 -5 32 -10 8 -8 15 -6 25 6 11 13 11 18 2 21 -7 3 -13 18 -13
34 0 29 -13 39 -25 19 -3 -5 -15 -10 -26 -10 -16 0 -18 5 -13 25 6 23 4 25
-23 19 -25 -5 -34 -1 -51 21 -20 25 -20 29 -6 51 9 13 25 26 36 30 12 3 16 10
11 15 -6 6 -22 3 -41 -7 -67 -33 -115 12 -52 49 16 10 30 24 30 31 0 21 -48
47 -90 50 -22 2 -47 12 -61 25 -12 11 -26 21 -31 21 -4 0 -8 13 -8 29 0 17 -4
33 -10 36 -14 9 -13 38 3 54 6 6 12 26 12 44 0 29 3 32 33 35 27 3 34 -1 43
-25 18 -47 38 -53 68 -21 l20 21 41 -41 c22 -23 40 -46 40 -51 0 -5 7 -14 15
-21 8 -7 15 -25 15 -41 0 -25 28 -90 49 -111 4 -5 21 -10 38 -11 49 -6 56 -15
51 -68 -5 -46 3 -62 17 -39 3 6 15 10 26 10 10 0 19 5 19 10 0 6 -4 10 -9 10
-22 0 -41 34 -41 71 0 22 -5 49 -11 61 -17 32 -3 68 26 68 25 0 35 23 15 35
-18 11 -11 27 9 20 11 -3 29 0 40 7 25 15 45 6 69 -35 14 -22 14 -31 4 -47
-15 -25 -15 -30 2 -30 7 0 16 9 19 20 5 21 41 28 52 10 3 -5 17 -10 31 -10 19
0 24 -5 24 -24 0 -15 -7 -26 -20 -29 -26 -7 -26 -27 0 -34 13 -3 20 -14 20
-29 0 -20 -5 -24 -30 -24 -33 0 -35 -2 -19 -31 8 -17 13 -18 25 -8 12 10 18 9
32 -4 15 -16 18 -15 44 10 24 23 31 25 53 15 40 -18 55 -15 55 13 0 25 23 44
56 44 10 0 31 3 46 6 20 6 27 3 32 -13 9 -27 -3 -52 -25 -52 -15 0 -19 -7 -19
-35 0 -32 2 -35 29 -35 17 0 33 5 36 10 3 5 17 10 31 10 21 0 24 5 24 34 0 19
5 38 10 41 6 3 10 17 10 31 0 28 3 29 36 8 22 -15 26 -15 42 -1 22 20 47 7 38
-21 -10 -30 13 -72 40 -72 13 0 25 -4 29 -9 7 -13 -44 -51 -77 -58 -16 -3 -37
-18 -48 -33 -12 -17 -38 -33 -74 -44 -37 -12 -56 -23 -59 -38 -4 -15 -11 -18
-26 -13 -13 4 -21 2 -21 -5 0 -6 -10 -15 -22 -20 -23 -9 -23 -9 -2 -9 12 -1
24 -7 27 -15 7 -18 -25 -56 -46 -56 -9 0 -18 -9 -22 -19 -4 -14 -17 -21 -42
-23 -29 -2 -40 -10 -53 -33 -9 -16 -28 -36 -43 -43 -39 -19 -34 -36 7 -28 23
4 37 2 45 -8 29 -35 -12 -74 -44 -42 -14 13 -19 13 -48 -2 -52 -27 -58 -43
-27 -69 11 -10 20 -26 20 -36 0 -17 2 -18 16 -6 14 12 19 10 39 -15 19 -24 25
-27 44 -17 11 7 21 20 21 30 0 29 12 32 37 9 18 -16 23 -18 23 -6 0 8 -9 23
-20 33 -11 10 -20 28 -20 40 0 12 -3 25 -7 29 -4 4 -9 27 -10 52 -3 38 -1 44
16 44 26 0 36 -17 21 -35 -9 -11 -7 -17 9 -27 12 -7 21 -20 21 -30 0 -9 5 -20
10 -23 6 -3 10 -17 10 -31 0 -30 17 -23 30 11 7 19 18 24 62 27 70 6 90 -3
119 -49 l24 -38 3 33 c2 21 -3 41 -12 51 -18 20 -20 37 -7 45 16 10 42 -6 36
-22 -6 -17 12 -42 31 -42 7 0 15 9 19 19 3 11 14 23 24 26 10 3 17 14 17 27
-1 31 19 33 38 3 19 -29 12 -49 -15 -42 -13 4 -19 0 -19 -12 0 -9 -4 -21 -10
-27 -11 -11 -17 -81 -7 -90 4 -4 7 8 7 28 0 21 7 41 18 51 26 24 34 21 28 -10
-4 -19 0 -36 13 -52 24 -32 43 -19 39 27 -2 29 1 38 18 47 44 22 54 37 54 81
0 23 5 46 10 49 6 3 10 15 10 26 0 24 16 25 29 2 9 -15 10 -14 11 10 0 26 2
27 49 27 28 0 53 5 56 10 3 6 23 10 43 10 36 0 36 1 13 13 -13 6 -29 20 -35
30 -20 32 13 44 106 39 68 -3 81 -2 71 9 -16 16 -17 65 -1 75 6 4 20 -4 33
-19 30 -39 67 -36 81 6 20 59 20 61 -4 65 -15 2 -22 9 -20 19 4 22 24 27 39
10 12 -12 15 -12 26 2 12 15 14 15 27 -1 21 -28 36 -21 36 17 0 30 -3 35 -23
35 -13 0 -28 -5 -35 -12 -9 -9 -15 -9 -23 -1 -23 23 -2 42 48 45 40 2 49 7 51
24 4 31 -24 51 -50 35 -18 -11 -24 -10 -42 9 l-21 21 24 20 c13 10 32 19 42
19 11 0 28 5 39 12 15 10 22 9 38 -6 28 -25 41 0 14 27 -20 20 -22 20 -40 4
-23 -21 -65 -22 -82 -2 -19 23 -4 45 30 45 23 0 30 4 30 20 0 16 7 20 34 20
19 0 38 5 41 10 3 6 19 10 36 10 26 0 29 3 29 31 0 17 5 39 11 50 7 13 7 24 1
32 -6 7 -12 35 -13 62 -4 46 -2 50 19 53 19 3 23 -1 20 -16 -2 -11 5 -29 16
-41 15 -16 16 -24 7 -35 -15 -18 2 -64 26 -73 29 -10 53 -35 53 -53 0 -10 10
-24 22 -32 22 -15 22 -15 3 -34 -18 -19 -18 -19 4 -22 13 -2 26 -12 28 -22 4
-16 8 -17 24 -7 27 17 45 -3 28 -31 -11 -18 -10 -23 12 -41 l24 -19 3 31 c2
18 9 36 15 40 9 6 9 10 0 14 -7 2 -13 12 -13 22 0 9 -9 23 -20 31 -21 15 -27
45 -10 55 30 19 -13 95 -54 95 -13 0 -17 7 -14 28 2 15 8 27 13 28 6 0 18 4
27 8 28 13 11 25 -21 16 -16 -4 -32 -6 -35 -2 -14 14 -4 34 24 43 26 10 28 13
17 31 -9 16 -9 22 1 25 7 3 12 23 12 49 0 58 18 65 72 25 23 -17 50 -31 60
-31 22 0 23 -18 1 -42 -14 -16 -14 -18 -1 -18 15 0 28 -20 28 -41 0 -5 -7 -9
-16 -9 -9 0 -36 -18 -60 -40 -41 -38 -42 -40 -19 -40 22 0 25 -4 25 -36 0 -27
5 -37 20 -41 11 -3 20 -8 20 -12 0 -3 4 -12 9 -19 7 -11 12 -12 29 -1 17 11
25 11 46 -1 32 -17 43 -7 27 24 -18 32 -10 60 17 64 20 3 22 -1 22 -37 0 -38
16 -56 46 -50 22 4 34 -2 34 -17 0 -25 33 -12 48 19 7 15 31 39 52 52 29 18
37 29 33 44 -3 13 4 28 21 44 23 21 24 26 11 37 -13 10 -15 9 -15 -8 0 -37
-75 -45 -105 -12 -18 20 -18 21 2 39 11 11 27 19 34 19 31 -2 49 3 49 12 0 5
-10 9 -22 7 -20 -2 -23 2 -20 26 2 15 -1 27 -7 27 -16 0 -13 21 6 42 9 11 11
18 5 18 -7 0 -12 7 -12 15 0 17 55 21 65 5 10 -16 55 -12 55 5 0 10 -10 15
-29 15 -29 0 -41 14 -41 51 0 11 -11 24 -25 31 -21 9 -28 8 -45 -7 -23 -21
-50 -14 -50 13 0 22 30 52 52 52 17 0 46 29 32 31 -64 9 -81 40 -48 87 17 25
52 29 60 7 4 -8 12 -15 20 -15 7 0 16 -11 20 -25 6 -24 34 -36 34 -15 0 6 10
10 23 10 22 1 22 1 2 13 -54 31 -85 62 -85 83 0 30 42 56 76 48 23 -6 25 -4
20 13 -4 14 -1 23 9 27 18 7 20 37 3 54 -9 9 -9 15 0 24 22 22 46 -5 56 -60 5
-29 15 -52 21 -52 7 0 19 18 28 40 13 34 20 40 46 40 16 0 33 -4 36 -10 10
-17 45 -12 39 5 -7 18 17 20 33 4 7 -7 13 -7 17 -1 11 19 -27 37 -78 37 -48 0
-51 2 -54 28 -3 25 -7 27 -50 27 -55 0 -77 12 -69 34 5 13 18 15 63 11 61 -4
83 8 84 48 0 18 25 24 35 7 11 -17 23 -11 29 15 5 18 13 25 30 25 25 0 81 -25
109 -48 15 -13 21 -13 42 -2 22 12 30 11 60 -3 19 -9 35 -23 35 -31 0 -18 31
-29 54 -20 9 3 16 17 16 30 0 19 6 24 28 26 15 1 -4 4 -43 7 -64 6 -71 8 -83
34 -13 26 -12 31 9 53 17 18 20 27 11 36 -13 13 -42 -6 -42 -28 0 -7 -10 -20
-21 -28 -20 -14 -25 -12 -60 16 -28 22 -39 39 -39 58 0 26 -15 38 -63 54 -28
9 -17 40 16 44 34 4 37 32 3 32 -26 0 -51 24 -41 40 3 5 16 10 28 10 16 0 11
6 -23 25 -25 13 -56 29 -69 35 -15 7 -22 16 -18 28 12 44 12 47 -6 44 -10 -2
-25 2 -32 8 -7 6 -28 13 -46 15 -18 3 -35 8 -38 13 -3 5 -14 11 -23 15 -22 8
-24 47 -3 47 8 0 15 -4 15 -10 0 -5 13 -10 28 -10 15 0 33 -5 40 -12 9 -9 15
-9 24 0 18 18 49 15 55 -5 5 -18 65 -63 84 -63 19 0 8 21 -16 30 -14 5 -25 16
-25 24 0 19 34 38 54 30 9 -3 16 -1 16 5 0 7 -8 14 -17 17 -10 3 -26 10 -35
15 -10 5 -38 9 -63 9 -35 0 -47 4 -56 21 -14 28 4 41 44 33 23 -5 35 0 58 22
16 15 29 36 29 46 0 11 7 18 18 18 21 0 52 -29 52 -48 0 -7 7 -12 15 -12 17 0
20 16 4 26 -6 3 -9 19 -7 35 4 27 2 29 -28 29 -23 0 -34 5 -39 19 -8 27 3 49
28 54 18 4 17 5 -5 6 -15 0 -29 5 -32 10 -11 18 6 41 30 41 24 0 32 14 14 25
-5 3 -10 15 -10 26 0 19 4 20 43 14 46 -8 60 -20 53 -48 -5 -20 16 -66 34 -77
18 -11 2 -50 -21 -50 -25 0 -25 -29 1 -75 11 -20 20 -44 20 -55 0 -21 15 -27
25 -10 4 7 14 6 28 -2 12 -6 34 -11 48 -10 18 2 38 -10 66 -37 30 -29 46 -38
62 -34 13 3 21 1 21 -7 0 -21 -33 -39 -72 -40 -33 0 -38 3 -38 23 0 12 -7 30
-14 39 -12 17 -14 17 -31 -2 -10 -11 -27 -20 -37 -20 -28 0 -17 -24 13 -28 13
-2 28 -8 33 -13 6 -5 23 -9 38 -9 18 0 28 -5 28 -15 0 -8 -4 -15 -10 -15 -21
0 -9 -19 21 -34 24 -12 35 -13 45 -5 15 13 21 4 27 -46 4 -28 4 -28 6 5 1 42
16 60 48 60 27 0 45 -35 45 -87 0 -35 0 -34 74 -37 12 -1 31 -9 41 -18 26 -24
86 -25 81 -1 -2 10 -14 17 -31 17 -40 2 -69 56 -30 56 52 0 101 37 73 55 -17
11 -11 37 10 42 20 5 29 33 10 33 -16 0 -11 47 6 54 24 9 34 7 34 -8 0 -8 13
-28 29 -45 26 -28 31 -29 62 -19 19 6 42 15 53 20 10 5 28 11 39 14 25 4 37
21 37 51 0 12 9 28 21 36 23 16 88 115 89 135 0 6 11 12 25 12 20 0 25 5 25
24 0 53 -12 85 -34 88 -13 2 -22 11 -24 25 -2 13 -13 24 -28 27 -35 9 -30 21
23 47 l46 22 -26 22 c-32 25 -35 45 -6 45 18 0 20 4 14 29 -5 25 -3 30 17 33
31 4 32 42 1 46 -14 2 -23 -3 -28 -17 -8 -25 -22 -26 -63 -5 -43 21 -44 54 -3
54 36 0 43 9 35 47 -6 31 -45 65 -52 44 -2 -6 -9 -11 -16 -11 -7 0 -23 -11
-36 -25 -13 -14 -29 -25 -36 -25 -18 0 -37 37 -24 45 5 3 17 21 26 40 19 41 7
65 -32 65 -25 0 -32 -18 -14 -36 15 -15 1 -44 -20 -44 -9 0 -25 9 -35 20 -19
21 -60 27 -70 10 -17 -27 -95 18 -95 56 0 31 25 47 76 49 24 1 47 5 51 8 3 4
13 2 23 -3 12 -6 23 -5 36 5 18 15 18 15 1 29 -22 17 -19 49 5 54 9 2 35 -15
57 -37 29 -29 49 -41 70 -41 16 0 31 -6 34 -14 3 -7 17 -16 32 -20 15 -4 38
-14 52 -23 21 -14 24 -22 20 -49 -7 -41 0 -48 32 -28 24 16 25 16 48 -10 13
-15 23 -34 23 -42 0 -8 7 -14 15 -14 11 0 15 12 15 48 0 39 4 49 23 57 17 8
23 20 25 54 l3 44 -44 -6 c-32 -5 -55 -2 -77 9 -34 17 -35 20 -45 76 -5 35 -3
39 35 63 45 28 49 45 20 82 -11 14 -17 29 -14 34 8 14 40 10 54 -6 25 -30 40
-17 40 34 0 42 -5 54 -31 80 -27 28 -37 31 -90 31 -50 0 -64 4 -84 25 -14 13
-25 32 -25 42 0 9 -19 36 -41 59 -46 47 -44 64 6 64 21 0 35 6 39 16 4 12 13
14 29 9 12 -4 45 -10 72 -15 28 -4 57 -10 65 -11 9 -3 16 5 18 18 2 12 12 25
23 28 20 7 27 49 9 60 -5 3 -10 12 -10 20 0 14 65 16 88 1 7 -4 21 -5 31 -1
17 5 19 14 17 66 -1 36 3 64 10 70 18 15 44 -1 44 -26 0 -12 7 -28 15 -35 9
-7 14 -19 11 -27 -8 -19 34 -42 67 -36 22 4 27 11 27 34 0 16 5 38 10 49 37
73 36 66 9 73 -31 8 -21 41 14 45 26 3 26 5 12 25 -8 11 -12 31 -9 43 5 19 3
22 -15 17 -31 -8 -25 18 11 46 l31 25 23 -30 c13 -16 24 -41 24 -56 0 -32 8
-35 25 -11 15 20 45 11 45 -15 0 -39 44 -57 53 -21 5 19 11 21 41 15 28 -5 36
-4 36 8 0 26 -31 36 -62 20 -32 -16 -58 -9 -58 17 0 10 -5 30 -12 44 -10 22
-9 27 8 39 14 11 16 18 8 26 -8 8 -16 4 -28 -15 -16 -25 -19 -26 -35 -11 -14
13 -32 15 -75 12 -31 -3 -60 -7 -65 -10 -9 -6 -113 52 -119 66 -2 4 -11 17
-21 29 -15 19 -20 20 -40 8 -20 -13 -24 -11 -49 19 -23 27 -34 32 -70 32 -40
0 -42 -1 -32 -20 13 -24 6 -40 -18 -40 -10 0 -25 -9 -35 -21 -24 -28 -106 -24
-122 6 -17 33 -54 65 -75 65 -11 0 -23 7 -26 15 -4 10 -14 13 -31 9 -16 -4
-28 -2 -34 7 -7 11 -11 10 -23 -6 -20 -26 -20 -49 0 -65 8 -8 14 -25 12 -39
-4 -33 -39 -35 -53 -3 -6 13 -18 22 -32 22 -16 0 -23 6 -23 19 0 11 5 23 10
26 25 16 8 27 -32 21 -24 -4 -54 -7 -66 -7 -17 -1 -28 -11 -38 -35 -16 -38
-14 -37 -67 -25 -43 10 -100 -7 -110 -34 -4 -9 -18 -15 -35 -15 -16 0 -37 -9
-47 -20 -22 -24 -42 -25 -67 -4 -16 16 -21 16 -64 -1 -26 -10 -54 -18 -63 -19
-9 -1 -26 -7 -38 -14 -20 -11 -24 -9 -40 18 -9 16 -23 30 -30 30 -8 0 -16 7
-19 15 -5 13 -9 13 -26 1 -11 -8 -27 -12 -34 -9 -18 7 -18 40 0 50 7 4 18 18
25 30 9 19 8 24 -7 32 -14 7 -27 5 -52 -10 -18 -11 -42 -18 -53 -15 -17 4 -41
-3 -114 -37 -27 -12 -53 -3 -53 19 0 11 -5 14 -17 9 -10 -4 -26 -10 -35 -12
-10 -3 -18 -14 -18 -24 0 -16 -8 -18 -69 -17 -37 0 -73 -2 -80 -6 -23 -14 -10
-26 28 -26 45 0 59 -13 40 -36 -9 -11 -22 -14 -41 -10 -15 3 -28 1 -28 -4 0
-7 38 -40 79 -67 9 -6 -31 -53 -44 -53 -8 0 -15 -4 -15 -10 0 -15 -27 -12 -33
4 -3 7 -19 16 -36 19 -41 9 -45 47 -4 47 l26 0 -21 23 c-12 13 -22 31 -22 40
0 21 -17 22 -36 2 -18 -17 -42 -19 -64 -5 -13 8 -10 15 17 40 18 16 41 30 52
30 14 0 19 5 15 15 -4 8 -15 15 -25 15 -10 0 -24 9 -31 20 -16 26 -50 26 -66
0 -16 -26 -62 -27 -62 -2 0 10 5 23 12 30 9 9 6 12 -14 12 -15 0 -30 -4 -33
-10 -3 -5 -26 -10 -51 -10 -40 0 -44 2 -44 25 0 29 10 31 206 26 82 -2 124 0
128 8 4 6 32 11 62 11 46 0 54 3 54 19 0 10 -7 22 -16 25 -8 3 -13 10 -9 16 4
6 15 6 31 0 33 -13 34 -13 34 6 0 9 7 30 16 47 9 18 21 40 26 50 13 26 -11 21
-44 -10 -26 -25 -30 -26 -66 -15 -49 15 -97 15 -123 2 -15 -8 -19 -7 -19 4 0
8 5 18 10 21 6 3 10 13 10 21 0 10 -14 14 -56 14 -47 0 -57 3 -61 20 -3 11
-11 20 -19 20 -7 0 -20 10 -28 21 l-15 22 -34 -20 c-28 -17 -37 -18 -58 -8
-33 17 -116 28 -123 16 -10 -15 -99 -10 -119 7 -11 10 -34 16 -57 15 -25 -1
-40 3 -44 13 -8 20 -34 17 -46 -6 -6 -11 -15 -20 -21 -20 -6 0 -13 9 -16 20
-6 23 -16 25 -44 9 -16 -8 -25 -7 -38 5 -25 22 -31 20 -31 -11 0 -33 -9 -47
-32 -56 -9 -3 -18 -18 -20 -34 -2 -22 -9 -29 -30 -31 -34 -4 -108 44 -108 69
0 27 -19 23 -30 -6 -11 -29 -18 -31 -34 -10 -7 9 -36 18 -75 22 -50 5 -65 10
-68 24 -3 10 -13 21 -23 24 -10 3 -20 14 -23 24 -4 16 -12 18 -58 14 -29 -2
-59 -9 -66 -14 -6 -6 -50 -13 -96 -15 -68 -4 -86 -2 -97 10 -10 13 -10 19 0
31 10 12 10 21 2 38 -6 12 -12 28 -14 36 -3 11 -7 10 -21 -4 -18 -17 -47 -14
-47 5 0 6 -4 8 -10 5 -5 -3 -15 3 -22 15 -7 11 -20 20 -28 20 -18 1 -50 24
-50 36 1 5 10 20 20 33 20 23 21 23 55 7 19 -9 37 -21 40 -27 7 -11 74 -2 89
12 5 5 4 14 -4 24 -17 20 -27 19 -33 -5 -6 -24 -45 -27 -53 -5 -4 8 -11 15
-17 15 -6 0 -18 7 -28 16 -16 14 -20 13 -49 -13 -18 -15 -42 -28 -54 -28 -16
0 -22 -7 -24 -33 -4 -37 -21 -41 -47 -12 -24 26 -35 25 -90 -6 -43 -23 -48
-24 -64 -10 -24 22 -28 20 -34 -11 -3 -16 -12 -36 -20 -47 -13 -17 -15 -17
-35 15 l-22 34 0 -32 c0 -25 -6 -35 -32 -47 -39 -20 -58 -20 -58 -1 0 17 -18
19 -40 5 -9 -6 -23 -3 -42 8 -23 13 -32 14 -48 4 -33 -20 -40 -14 -40 37 0 46
18 81 28 53 2 -7 12 -12 21 -12 32 0 21 60 -17 97 -35 33 -36 45 -16 156 4 19
2 27 -9 27 -12 0 -16 -26 -21 -137 -4 -76 -7 -168 -6 -204 0 -48 -4 -69 -15
-79 -12 -10 -16 -9 -21 4 -3 9 -3 27 0 40 3 13 2 35 -3 48 -6 13 -10 16 -11 8
0 -8 -9 -26 -20 -40 l-20 -25 -23 26 c-12 15 -31 29 -41 30 -32 6 -43 35 -22
58 16 17 17 23 6 36 -9 11 -16 13 -24 5 -5 -5 -17 -10 -26 -10 -22 0 -70 52
-70 76 0 10 -9 24 -19 29 -94 49 -93 49 -112 37 -25 -16 -54 -15 -68 1 -8 11
-4 20 20 41 l31 28 -26 27 c-32 33 -33 57 -4 67 20 6 19 7 -11 20 -25 11 -32
19 -29 36 2 15 11 24 24 26 12 2 30 12 40 23 16 17 16 22 4 29 -8 5 -24 7 -35
4 -13 -3 -28 2 -39 14 -9 11 -25 18 -34 15 -10 -2 -26 5 -36 15 -16 18 -20 19
-44 6 -15 -8 -35 -14 -44 -14 -22 0 -58 47 -58 74 0 32 -23 76 -39 76 -8 0
-25 -10 -38 -22 l-23 -22 -30 22 c-16 12 -34 22 -40 22 -13 0 -13 117 0 125 6
3 10 15 10 26 0 32 -49 24 -93 -16 -21 -19 -47 -35 -58 -35 -12 0 -29 -10 -39
-22 l-19 -23 -20 22 c-35 37 -21 69 26 57 13 -4 35 7 62 30 24 20 47 36 52 36
5 0 9 7 9 15 0 8 -4 15 -9 15 -5 0 -11 9 -14 20 -4 15 -14 20 -40 20 -36 0
-56 13 -37 25 18 11 11 33 -20 63 -16 17 -30 40 -30 52 0 16 -4 19 -17 12 -25
-13 -43 -4 -43 19 0 11 10 23 24 29 45 17 58 70 17 70 -27 0 -44 26 -38 57 14
71 16 67 -48 78 -74 14 -107 31 -103 53 3 14 14 16 58 14 30 -1 65 -5 78 -8
20 -4 22 -2 16 21 -6 24 -5 25 46 25 l51 0 0 73 c-2 161 3 201 23 205 22 5 36
-14 36 -49 0 -18 6 -28 20 -32 23 -6 27 -39 5 -57 -16 -14 -10 -67 12 -88 18
-18 17 -42 -2 -42 -24 0 -19 -47 6 -53 16 -4 20 -11 16 -26 -6 -23 7 -36 46
-45 32 -7 33 -4 11 30 -23 33 -6 52 33 38 22 -7 29 -17 31 -42 4 -35 21 -48
48 -38 15 6 15 8 -1 25 -33 38 6 91 43 58 22 -20 32 -22 32 -4 0 24 83 87 114
87 7 0 21 -16 30 -35 18 -36 36 -39 36 -5 0 10 10 26 22 34 21 15 21 17 6 33
-15 15 -15 19 -2 46 12 23 21 28 40 24 36 -7 39 9 4 23 -37 15 -38 33 -5 48
38 18 63 15 70 -9 5 -16 12 -19 35 -14 33 7 70 -9 70 -30 0 -8 6 -15 13 -15 6
0 23 -9 37 -20 33 -26 50 -25 50 3 0 33 -12 45 -45 49 -27 3 -30 6 -27 37 2
30 1 32 -14 20 -14 -11 -21 -7 -52 29 -21 23 -45 42 -54 42 -9 0 -20 10 -24
23 -14 46 -44 44 -44 -3 0 -38 -35 -60 -58 -36 -14 14 -14 19 3 50 16 29 17
37 5 50 -11 14 -10 20 6 37 19 21 18 21 -9 44 -37 29 -35 71 3 68 45 -3 77
-11 100 -23 12 -6 28 -9 35 -6 19 7 43 -15 47 -44 2 -15 11 -26 23 -29 11 -2
26 -12 33 -22 9 -13 25 -19 53 -19 33 0 40 -3 37 -17 -3 -21 30 -63 49 -63 8
0 13 13 13 36 0 28 5 37 20 41 20 5 20 7 4 24 -20 22 -12 49 16 49 23 0 26 10
8 28 -10 10 -10 15 2 22 13 8 13 13 2 30 -18 30 -6 43 34 35 l34 -6 0 67 c0
62 -1 66 -20 61 -24 -6 -76 17 -84 38 -3 9 -3 36 1 60 5 38 9 45 28 45 33 0
52 -26 37 -51 -21 -33 8 -53 66 -45 58 8 71 20 49 44 -9 10 -17 24 -17 30 0 6
-9 14 -20 17 -28 9 -25 34 5 45 14 5 28 17 31 25 9 22 28 19 78 -16 40 -26 46
-35 46 -66 0 -28 3 -34 16 -29 9 3 18 6 20 6 2 0 4 9 4 20 0 27 26 25 53 -4
19 -21 29 -23 75 -18 49 4 52 3 52 -19 0 -18 3 -20 12 -11 7 7 40 12 79 12 65
0 67 -1 79 -30 16 -38 30 -38 30 -1 0 17 5 33 10 36 6 3 10 36 11 73 1 94 9
116 41 120 15 2 38 -4 51 -12 22 -15 25 -14 45 4 12 11 27 20 34 20 7 0 19 9
26 20 7 11 21 20 32 20 11 0 20 5 20 10 0 6 13 10 29 10 17 0 33 5 36 10 3 6
26 10 50 10 24 0 47 5 50 10 3 6 31 10 61 10 30 0 54 -4 54 -10 0 -16 35 -11
56 8 38 32 127 72 165 72 9 0 42 27 73 60 32 33 63 60 70 60 8 0 19 7 26 15
16 19 68 45 91 45 10 0 21 5 24 10 3 6 26 10 50 10 24 0 47 5 50 10 9 14 108
13 123 -2 9 -9 17 -7 34 8 13 11 37 26 53 34 17 8 47 30 68 49 20 19 37 31 37
26 0 -5 12 2 28 16 36 32 68 49 91 49 11 0 23 5 26 10 3 6 28 10 56 10 27 0
49 5 49 10 0 6 25 10 55 10 30 0 55 -4 55 -10 0 -5 15 -10 34 -10 19 0 38 5
41 10 3 6 19 10 36 10 16 0 29 5 29 10 0 6 18 10 40 10 22 0 40 5 40 10 0 6
25 10 55 10 30 0 55 -4 55 -10 0 -17 26 -11 45 10 10 11 23 20 30 20 7 0 20 9
30 20 10 11 28 20 40 20 13 0 29 7 36 16 9 11 23 14 46 11 18 -3 33 -2 33 4 0
11 107 12 114 1 3 -5 18 -7 34 -4 18 2 33 -2 41 -12 8 -9 23 -16 35 -16 12 0
32 -9 44 -20 12 -11 28 -20 37 -20 8 0 15 -4 15 -10 0 -5 24 -10 54 -10 30 0
58 5 61 10 3 6 42 10 86 10 46 0 79 4 79 10 0 6 18 10 39 10 22 0 43 5 46 10
9 14 91 12 116 -2 17 -10 23 -10 26 0 3 6 20 12 40 12 19 0 41 7 49 15 9 8 33
15 53 15 22 0 44 -6 51 -15 7 -8 27 -15 46 -15 18 0 36 -4 39 -10 3 -5 17 -10
30 -10 13 0 27 -4 30 -10 3 -5 15 -10 26 -10 10 0 19 -4 19 -10 0 -5 18 -10
40 -10 22 0 40 -4 40 -10 0 -5 13 -10 28 -10 16 0 37 -9 47 -20 10 -11 24 -20
31 -20 7 0 14 -6 17 -12 4 -10 7 -10 18 0 16 14 95 16 104 2 3 -5 24 -10 46
-10 21 0 39 -4 39 -10 0 -5 14 -10 30 -10 17 0 30 -4 30 -10 0 -5 22 -10 49
-10 28 0 53 5 56 10 3 6 21 10 40 10 19 0 37 5 40 10 3 6 28 10 55 10 27 0 52
-4 55 -10 3 -5 21 -10 39 -10 17 0 37 -5 43 -11 13 -13 71 9 93 36 7 8 20 15
30 15 26 0 81 30 87 49 8 22 94 111 108 111 7 0 22 11 35 25 13 14 31 25 40
25 16 0 68 50 117 113 15 20 30 27 54 27 26 0 43 9 73 40 41 43 48 45 140 55
44 5 59 11 63 25 3 9 16 23 29 29 13 6 24 17 24 26 0 13 -533 15 -5020 15
-2761 0 -5020 -2 -5020 -4z m2881 -2806 c21 -12 26 -48 7 -55 -7 -2 -34 -6
-59 -8 -26 -2 -54 -10 -63 -20 -19 -18 -72 -23 -95 -8 -17 11 -7 41 13 41 9 0
20 9 26 20 7 14 21 20 45 20 18 0 37 5 40 10 8 13 61 13 86 0z m2047 -959 c5
-32 -13 -48 -33 -31 -18 15 -20 46 -2 53 20 9 32 2 35 -22z m997 -184 c23 -17
12 -37 -21 -37 -28 0 -44 28 -23 41 19 12 22 11 44 -4z m-101 -24 c8 -20 -9
-32 -35 -26 -11 3 -25 0 -33 -6 -10 -9 -16 -9 -21 -1 -4 6 -5 12 -4 13 2 1 18
9 34 19 39 21 51 22 59 1z m-194 -7 c0 -8 -4 -17 -9 -21 -12 -7 -24 12 -16 25
9 15 25 12 25 -4z m432 -31 c-8 -50 -6 -60 12 -63 10 -2 23 2 27 10 8 10 12 9
24 -6 19 -25 19 -36 0 -36 -8 0 -19 -9 -25 -20 -14 -26 -40 -26 -40 0 0 11
-11 27 -25 36 -14 9 -25 23 -25 32 0 12 -3 13 -12 4 -14 -14 -45 -16 -53 -2
-9 14 13 50 38 60 12 5 36 8 52 7 24 -2 29 -6 27 -22z m1831 -1159 c6 -16 -11
-36 -30 -36 -13 0 -18 32 -6 43 11 12 31 8 36 -7z m-739 -404 c2 -4 1 -14 -4
-22 -7 -11 -12 -12 -21 -3 -6 6 -8 16 -5 22 8 13 23 14 30 3z m-117 -45 c-2
-7 -30 -13 -70 -14 -61 -2 -67 0 -67 17 0 21 24 26 49 11 10 -6 22 -5 34 4 23
16 61 3 54 -18z m43 -74 c0 -10 3 -28 6 -40 4 -14 2 -23 -5 -23 -16 0 -44 48
-37 65 8 21 36 19 36 -2z m107 -89 c5 -15 -20 -24 -37 -14 -7 4 -9 13 -5 19 8
14 37 11 42 -5z m-950 -126 c-3 -8 -6 -5 -6 6 -1 11 2 17 5 13 3 -3 4 -12 1
-19z m324 -118 c12 -7 19 -21 19 -39 0 -21 6 -30 21 -34 15 -4 20 -12 17 -29
-2 -19 -10 -23 -46 -26 -31 -2 -44 1 -48 12 -8 22 -21 20 -27 -4 -3 -11 -16
-24 -29 -29 -20 -9 -19 -10 15 -10 36 -1 38 -3 35 -28 -2 -23 -7 -28 -28 -25
-32 3 -70 -17 -70 -37 0 -9 7 -24 14 -34 14 -19 26 -11 39 26 5 13 15 17 34
15 24 -3 28 -7 26 -32 -2 -25 1 -27 20 -21 47 15 72 11 75 -12 4 -27 10 -28
33 -7 27 25 53 10 46 -25 -6 -28 -5 -29 43 -35 55 -7 73 -27 63 -67 -7 -29
-20 -39 -50 -39 -28 0 -31 -26 -4 -35 11 -3 26 -17 35 -30 9 -14 23 -25 30
-25 8 0 26 -14 41 -32 23 -27 26 -38 21 -72 -7 -43 -35 -76 -67 -76 -27 0 -33
18 -15 45 21 32 20 38 -3 25 -11 -5 -29 -10 -41 -10 -24 0 -90 46 -90 64 0 6
-10 22 -21 36 -19 24 -21 24 -32 6 -43 -67 -69 -78 -80 -35 -4 16 -14 19 -61
19 -31 0 -65 5 -76 12 -15 9 -24 9 -43 -1 -27 -14 -47 -8 -47 15 0 8 -5 14
-11 14 -8 0 -9 -14 -5 -44 10 -65 -1 -96 -35 -103 -20 -4 -31 -13 -35 -30 -6
-22 -8 -23 -23 -8 -37 32 -110 5 -81 -30 16 -19 6 -45 -19 -45 -11 0 -21 -9
-25 -23 -6 -26 -48 -53 -66 -42 -7 4 -9 18 -5 36 6 24 3 31 -19 40 -23 11 -29
9 -50 -14 -14 -15 -30 -27 -36 -27 -5 0 -9 -15 -8 -32 3 -29 0 -33 -22 -33
-20 0 -26 6 -30 30 -4 21 -12 31 -27 33 -23 3 -37 27 -27 44 4 6 28 8 55 6 41
-4 50 -2 55 14 3 10 16 26 29 34 13 9 34 32 47 52 12 20 26 42 30 48 4 6 -1
22 -12 34 -22 26 -26 55 -8 66 7 4 23 -6 41 -27 18 -21 31 -29 34 -21 7 19 31
14 43 -8 13 -24 39 -26 66 -5 18 14 17 14 -13 15 -23 0 -33 6 -38 20 -4 13
-15 20 -31 20 -28 0 -29 3 -11 30 10 17 9 22 -2 29 -9 6 -12 19 -8 38 5 25 2
30 -36 47 -23 10 -55 25 -70 33 -17 9 -39 12 -56 8 -49 -11 -83 43 -41 65 14
7 26 8 39 0 27 -14 31 -13 31 9 0 11 4 22 9 25 16 10 41 -5 41 -25 0 -28 23
-23 38 8 16 35 15 43 -2 43 -29 0 -25 18 6 38 36 23 52 19 45 -9 -4 -14 0 -19
17 -19 12 0 27 -5 33 -11 7 -7 19 -9 29 -5 13 5 16 15 11 50 -4 26 -2 47 5 54
8 8 4 14 -18 23 l-29 11 23 15 c14 10 22 26 22 44 0 43 26 52 71 22 36 -23 39
-24 62 -8 20 13 30 14 46 5 12 -6 21 -15 21 -20 0 -6 7 -10 15 -10 18 0 19 12
4 27 -7 7 -9 19 -5 28 5 13 14 15 45 10 24 -4 42 -2 46 4 8 14 70 14 96 1z
m699 -70 c0 -5 -6 -10 -14 -10 -8 0 -18 5 -21 10 -3 6 3 10 14 10 12 0 21 -4
21 -10z m130 -210 c0 -5 -4 -10 -9 -10 -6 0 -13 5 -16 10 -3 6 1 10 9 10 9 0
16 -4 16 -10z m-1560 -46 c0 -8 -4 -12 -10 -9 -5 3 -10 10 -10 16 0 5 5 9 10
9 6 0 10 -7 10 -16z m1063 -174 c16 -14 -5 -40 -33 -40 -29 0 -66 32 -56 49 7
10 75 4 89 -9z m107 -129 c0 -5 -7 -14 -15 -21 -8 -7 -15 -21 -15 -32 0 -23
-29 -36 -41 -17 -5 8 -9 26 -9 41 0 21 5 27 28 31 48 7 52 7 52 -2z m-820
-141 c0 -5 -5 -10 -11 -10 -5 0 -7 5 -4 10 3 6 8 10 11 10 2 0 4 -4 4 -10z
m25 -556 c3 -20 4 -38 1 -41 -11 -11 -37 7 -46 33 -12 30 -6 44 19 44 14 0 21
-10 26 -36z m415 2 c0 -3 -4 -8 -10 -11 -5 -3 -10 -1 -10 4 0 6 5 11 10 11 6
0 10 -2 10 -4z m-370 -62 c0 -16 -16 -19 -25 -4 -8 13 4 32 16 25 5 -4 9 -13
9 -21z m-2165 -226 c22 -29 46 -64 53 -78 11 -24 12 -23 7 11 -4 26 -1 40 11
50 14 11 19 10 35 -10 30 -37 23 -79 -16 -93 -5 -1 -8 -13 -7 -25 2 -13 -2
-23 -9 -23 -17 0 -109 98 -109 116 0 8 -7 14 -15 14 -9 0 -27 12 -41 27 -21
23 -27 25 -50 14 -30 -13 -44 -7 -44 19 0 14 9 20 38 23 105 11 105 11 147
-45z m2213 -20 c-2 -13 -10 -23 -18 -23 -8 0 -16 10 -18 23 -3 17 2 22 18 22
16 0 21 -5 18 -22z m340 -30 c-7 -19 -38 -22 -38 -4 0 10 9 16 21 16 12 0 19
-5 17 -12z m-525 -40 c28 -14 35 -33 15 -41 -17 -6 -68 24 -68 40 0 16 18 17
53 1z m-215 -27 c-2 -9 -13 -17 -26 -19 -16 -3 -22 2 -22 16 0 11 6 22 13 25
20 7 38 -4 35 -22z m-2094 -247 c9 -3 16 -15 16 -25 0 -14 -7 -19 -30 -19 -22
0 -30 5 -30 18 0 30 13 38 44 26z m1744 -276 c4 -19 -27 -33 -41 -19 -7 7 -6
16 3 26 15 18 34 15 38 -7z m-353 -167 c7 -13 -5 -91 -15 -91 -9 0 -19 70 -12
88 5 14 18 16 27 3z m-1811 -2553 c-4 -35 -8 -79 -8 -98 -1 -31 -4 -35 -30
-38 -42 -5 -54 13 -22 33 24 16 26 23 26 84 0 70 4 81 28 81 11 0 13 -11 6
-62z m-40 -234 c20 -19 20 -28 0 -44 -21 -18 -49 9 -39 39 8 25 18 26 39 5z
m46 -409 c9 -11 9 -19 2 -28 -6 -6 -12 -27 -14 -46 -3 -38 -22 -52 -32 -25 -3
9 -3 38 0 65 7 50 21 62 44 34z m-2784 -876 c10 -17 -13 -36 -27 -22 -12 12
-4 33 11 33 5 0 12 -5 16 -11z m-168 -133 c18 -11 15 -36 -4 -36 -9 0 -23 8
-29 17 -13 17 -14 17 -32 0 -27 -24 -43 -21 -43 6 0 22 4 24 48 22 27 -1 54
-5 60 -9z m280 -630 c3 -13 -1 -17 -14 -14 -11 2 -20 11 -22 22 -3 13 1 17 14
14 11 -2 20 -11 22 -22z m-82 -60 c15 -12 17 -19 8 -32 -15 -26 -28 -27 -54
-6 -44 36 0 72 46 38z m92 -54 c2 -6 -6 -16 -18 -22 -18 -10 -24 -8 -35 7 -18
24 -1 45 28 34 11 -4 23 -13 25 -19z m631 -516 c7 -8 13 -40 14 -73 2 -56 1
-58 -23 -58 -22 0 -25 4 -25 36 -1 20 -7 44 -14 53 -12 14 -11 19 4 36 21 24
29 25 44 6z m1101 -161 c7 -8 10 -22 6 -30 -3 -9 0 -25 7 -36 10 -16 9 -21 -3
-29 -17 -11 -44 16 -34 32 4 5 -4 21 -17 34 -20 21 -21 26 -9 34 21 14 36 12
50 -5z m50 -255 c0 -5 -7 -10 -16 -10 -8 0 -12 5 -9 10 3 6 10 10 16 10 5 0 9
-4 9 -10z m-5 -73 c0 -26 -20 -25 -23 2 -3 16 1 22 10 19 7 -3 13 -12 13 -21z
m-444 -97 c10 -6 19 -17 19 -25 0 -8 7 -15 16 -15 19 0 16 -41 -4 -48 -9 -3
-13 3 -10 19 2 19 -2 25 -27 29 -21 4 -31 12 -33 28 -4 24 9 28 39 12z m-31
-169 c0 -31 -22 -57 -40 -46 -15 9 -12 41 6 59 23 24 34 19 34 -13z m70 -46
c14 -17 10 -47 -7 -52 -15 -5 -36 34 -29 53 7 18 20 18 36 -1z m-60 -547 c0
-26 30 -36 45 -15 15 21 24 21 47 0 14 -13 23 -14 41 -5 32 16 143 22 156 9
19 -19 12 -54 -15 -72 -20 -13 -47 -17 -105 -17 -73 1 -80 -1 -99 -25 -11 -14
-20 -32 -20 -39 0 -8 -4 -14 -9 -14 -5 0 -14 -13 -20 -30 -12 -37 -33 -38 -72
-5 l-30 24 -20 -20 c-11 -11 -24 -17 -29 -14 -18 11 -10 43 11 48 28 7 23 52
-6 53 -39 2 -45 4 -45 17 0 17 42 37 77 37 15 0 36 -9 48 -20 19 -18 24 -19
34 -6 10 12 9 18 -7 34 -23 23 -36 89 -19 95 17 6 37 -12 37 -35z"/>
<path d="M12101 13694 c0 -11 3 -14 6 -6 3 7 2 16 -1 19 -3 4 -6 -2 -5 -13z"/>
<path d="M11990 13650 c0 -5 5 -10 10 -10 6 0 10 5 10 10 0 6 -4 10 -10 10 -5
0 -10 -4 -10 -10z"/>
<path d="M12264 13629 c-10 -17 13 -36 27 -22 12 12 4 33 -11 33 -5 0 -12 -5
-16 -11z"/>
<path d="M12125 13620 c-3 -5 3 -10 15 -10 12 0 18 5 15 10 -3 6 -10 10 -15
10 -5 0 -12 -4 -15 -10z"/>
<path d="M11790 13585 c0 -25 14 -34 24 -16 8 12 -3 41 -15 41 -5 0 -9 -11 -9
-25z"/>
<path d="M11920 13550 c0 -5 5 -10 10 -10 6 0 10 5 10 10 0 6 -4 10 -10 10 -5
0 -10 -4 -10 -10z"/>
<path d="M12477 13353 c-12 -11 -8 -23 8 -23 8 0 15 7 15 15 0 16 -12 20 -23
8z"/>
<path d="M11930 13320 c0 -5 7 -10 15 -10 8 0 15 5 15 10 0 6 -7 10 -15 10 -8
0 -15 -4 -15 -10z"/>
<path d="M9945 18661 c-40 -8 -50 -51 -11 -51 14 0 28 5 31 10 3 6 15 10 26
10 14 0 19 -7 19 -28 0 -36 44 -82 62 -64 7 7 39 12 73 13 43 0 54 3 39 9 -12
4 -24 15 -27 24 -4 9 -22 16 -49 18 -39 3 -43 6 -46 31 -3 20 -9 27 -25 27
-12 0 -31 2 -42 4 -11 2 -33 1 -50 -3z"/>
<path d="M9957 18583 c-4 -3 -7 -27 -8 -52 0 -25 -4 -68 -9 -96 -4 -27 -6 -52
-4 -54 11 -12 23 20 28 74 3 33 8 72 9 87 4 29 -5 52 -16 41z"/>
<path d="M10240 18511 c0 -10 50 -25 57 -17 3 2 2 9 -2 15 -8 13 -55 15 -55 2z"/>
<path d="M4895 18431 c-3 -6 -26 -11 -51 -11 -24 0 -44 -4 -44 -10 0 -6 32
-10 76 -10 66 0 75 2 72 18 -4 19 -43 29 -53 13z"/>
<path d="M8640 17822 c0 -12 24 -22 53 -22 27 0 11 16 -25 25 -17 4 -28 3 -28
-3z"/>
<path d="M8915 17670 c-3 -5 1 -10 9 -10 9 0 16 5 16 10 0 6 -4 10 -9 10 -6 0
-13 -4 -16 -10z"/>
<path d="M8702 17508 c2 -6 10 -14 16 -16 7 -2 10 2 6 12 -7 18 -28 22 -22 4z"/>
<path d="M8743 17468 c2 -7 14 -13 27 -13 13 0 25 6 28 13 2 8 -7 12 -28 12
-21 0 -30 -4 -27 -12z"/>
<path d="M4923 17263 c-13 -8 -23 -19 -23 -24 0 -16 25 -9 55 16 26 21 27 24
10 24 -11 0 -30 -7 -42 -16z"/>
<path d="M4800 17214 c0 -17 22 -14 28 4 2 7 -3 12 -12 12 -9 0 -16 -7 -16
-16z"/>
<path d="M4465 17160 c-3 -5 -2 -10 4 -10 5 0 13 5 16 10 3 6 2 10 -4 10 -5 0
-13 -4 -16 -10z"/>
<path d="M4323 17115 c1 -22 6 -35 14 -35 8 0 13 13 13 35 0 23 -5 35 -14 35
-10 0 -14 -11 -13 -35z"/>
<path d="M3600 17077 c0 -27 4 -37 13 -35 18 7 20 31 3 53 -15 19 -15 18 -16
-18z"/>
<path d="M4212 17098 c-5 -7 -12 -22 -14 -33 -3 -18 3 -20 57 -21 33 -1 46 1
28 3 -22 3 -35 12 -45 34 -12 23 -17 27 -26 17z"/>
<path d="M4281 17094 c0 -11 3 -14 6 -6 3 7 2 16 -1 19 -3 4 -6 -2 -5 -13z"/>
<path d="M4650 17035 c0 -8 7 -15 15 -15 8 0 15 7 15 15 0 8 -7 15 -15 15 -8
0 -15 -7 -15 -15z"/>
<path d="M4787 16972 c-22 -24 -21 -39 3 -52 36 -19 24 -39 -27 -42 l-48 -3
-3 -64 c-3 -67 8 -95 30 -73 7 7 22 12 34 12 15 0 27 10 36 28 7 15 23 28 36
30 13 2 22 10 22 21 0 10 9 26 20 36 25 23 26 35 2 35 -49 0 -101 47 -72 65
11 7 4 25 -9 25 -4 0 -15 -8 -24 -18z"/>
<path d="M4200 16970 c0 -5 7 -10 15 -10 8 0 15 5 15 10 0 6 -7 10 -15 10 -8
0 -15 -4 -15 -10z"/>
<path d="M4918 16938 c9 -9 15 -9 24 0 9 9 7 12 -12 12 -19 0 -21 -3 -12 -12z"/>
<path d="M4072 16875 c0 -16 2 -22 5 -12 2 9 2 23 0 30 -3 6 -5 -1 -5 -18z"/>
<path d="M5091 16814 c0 -11 3 -14 6 -6 3 7 2 16 -1 19 -3 4 -6 -2 -5 -13z"/>
<path d="M3945 16791 c-3 -5 -1 -12 5 -16 5 -3 10 1 10 9 0 18 -6 21 -15 7z"/>
<path d="M10562 16758 c4 -31 53 -34 53 -3 0 15 -8 21 -28 23 -25 3 -28 0 -25
-20z"/>
<path d="M10816 16531 c-7 -11 18 -33 27 -24 4 3 7 12 7 20 0 15 -26 18 -34 4z"/>
<path d="M9655 16503 c-3 -15 -14 -32 -22 -39 -15 -10 -14 -13 5 -23 22 -12
39 0 27 19 -7 11 12 51 29 62 6 5 2 8 -10 8 -15 0 -24 -8 -29 -27z"/>
<path d="M10250 16521 c0 -6 5 -13 10 -16 6 -3 10 1 10 9 0 9 -4 16 -10 16 -5
0 -10 -4 -10 -9z"/>
<path d="M10740 16500 c0 -5 4 -10 9 -10 6 0 13 5 16 10 3 6 -1 10 -9 10 -9 0
-16 -4 -16 -10z"/>
<path d="M9900 16475 c0 -8 5 -15 10 -15 6 0 10 7 10 15 0 8 -4 15 -10 15 -5
0 -10 -7 -10 -15z"/>
<path d="M10670 16364 c0 -8 5 -12 10 -9 6 3 10 10 10 16 0 5 -4 9 -10 9 -5 0
-10 -7 -10 -16z"/>
<path d="M14027 16223 c-4 -3 -7 -15 -7 -25 0 -26 24 -17 28 10 3 21 -8 29
-21 15z"/>
<path d="M13905 16170 c-3 -5 -18 -10 -32 -10 -21 0 -24 -2 -13 -15 10 -12 10
-18 0 -30 -7 -9 -10 -19 -6 -23 4 -4 16 3 26 16 16 19 22 21 43 11 21 -9 30
-8 51 7 31 23 33 34 7 34 -11 0 -23 5 -26 10 -3 6 -15 10 -25 10 -10 0 -22 -4
-25 -10z"/>
<path d="M13287 16124 c-8 -8 1 -24 14 -24 5 0 9 7 9 15 0 15 -12 20 -23 9z"/>
<path d="M13664 16009 c-7 -11 8 -16 69 -22 42 -4 66 8 35 17 -32 10 -99 13
-104 5z"/>
<path d="M13500 16000 c0 -5 5 -10 11 -10 5 0 7 5 4 10 -3 6 -8 10 -11 10 -2
0 -4 -4 -4 -10z"/>
<path d="M13542 15978 c7 -19 38 -22 38 -4 0 10 -9 16 -21 16 -12 0 -19 -5
-17 -12z"/>
<path d="M14612 15924 c-37 -39 -39 -44 -14 -44 20 0 62 39 62 58 0 24 -17 19
-48 -14z"/>
<path d="M2888 15838 c9 -9 15 -9 24 0 9 9 7 12 -12 12 -19 0 -21 -3 -12 -12z"/>
<path d="M14627 15830 c-56 -10 -71 -29 -55 -66 6 -16 13 -30 13 -32 1 -1 18
4 37 12 36 15 68 53 68 81 0 16 -5 17 -63 5z"/>
<path d="M14622 15596 c1 -10 8 -17 13 -17 15 1 12 24 -3 29 -9 3 -13 -2 -10
-12z"/>
<path d="M5951 15546 c-9 -10 -8 -15 2 -19 19 -7 41 8 33 22 -10 15 -21 14
-35 -3z"/>
<path d="M2510 15540 c0 -5 5 -10 11 -10 5 0 7 5 4 10 -3 6 -8 10 -11 10 -2 0
-4 -4 -4 -10z"/>
<path d="M14390 15484 c0 -8 5 -12 10 -9 6 4 8 11 5 16 -9 14 -15 11 -15 -7z"/>
<path d="M3385 15481 c-3 -5 -1 -12 5 -16 5 -3 10 1 10 9 0 18 -6 21 -15 7z"/>
<path d="M5833 15468 c-44 -21 -19 -72 44 -92 31 -10 40 25 16 66 -21 37 -30
40 -60 26z"/>
<path d="M14435 15461 c-7 -12 12 -24 25 -16 11 7 4 25 -10 25 -5 0 -11 -4
-15 -9z"/>
<path d="M2415 15440 c-8 -13 12 -40 31 -40 13 0 28 -32 29 -60 0 -18 62 -27
78 -11 20 20 46 12 53 -16 12 -56 13 -57 39 -29 27 29 60 26 52 -6 -3 -11 2
-22 14 -29 27 -14 40 -3 33 28 -7 25 -6 25 42 22 39 -3 49 -1 52 12 2 14 -9
17 -70 21 -50 3 -79 0 -94 -9 -18 -11 -23 -11 -36 4 -8 10 -18 30 -22 46 -8
33 -35 36 -61 7 -11 -12 -28 -20 -39 -18 -17 2 -21 10 -21 41 0 26 -4 37 -15
37 -8 0 -25 3 -36 6 -12 3 -25 1 -29 -6z"/>
<path d="M2835 15440 c-3 -5 -1 -10 4 -10 6 0 11 5 11 10 0 6 -2 10 -4 10 -3
0 -8 -4 -11 -10z"/>
<path d="M2910 15430 c0 -5 5 -10 10 -10 6 0 10 5 10 10 0 6 -4 10 -10 10 -5
0 -10 -4 -10 -10z"/>
<path d="M2425 15310 c-3 -5 -1 -10 4 -10 6 0 11 5 11 10 0 6 -2 10 -4 10 -3
0 -8 -4 -11 -10z"/>
<path d="M14108 15283 c7 -3 16 -2 19 1 4 3 -2 6 -13 5 -11 0 -14 -3 -6 -6z"/>
<path d="M14080 15180 c0 -5 5 -10 11 -10 5 0 7 5 4 10 -3 6 -8 10 -11 10 -2
0 -4 -4 -4 -10z"/>
<path d="M5535 14980 c-16 -18 -17 -23 -5 -45 16 -30 36 -32 50 -4 9 16 8 26
-5 45 -19 29 -17 29 -40 4z"/>
<path d="M3755 14731 c-3 -6 -20 -11 -36 -11 -45 0 -71 -17 -64 -41 9 -26 -31
-89 -56 -89 -14 0 -19 -7 -19 -29 0 -37 -16 -48 -39 -27 -24 22 -36 20 -49 -8
-13 -28 -7 -36 25 -36 15 0 27 -9 35 -25 9 -20 14 -22 30 -14 22 12 21 12 37
-18 8 -17 21 -23 44 -23 26 0 38 -8 62 -41 28 -38 33 -40 67 -35 25 4 49 1 72
-10 36 -17 71 -13 64 8 -3 7 -18 16 -36 20 -42 11 -47 22 -23 55 28 41 34 68
16 83 -8 7 -15 19 -15 27 0 7 -7 25 -16 38 -13 20 -14 28 -4 40 7 8 19 15 26
15 8 0 14 10 14 25 0 21 -5 25 -29 25 -23 0 -33 7 -48 38 -20 37 -46 52 -58
33z"/>
<path d="M5538 14696 c-20 -14 -24 -36 -8 -36 6 0 10 -11 10 -25 0 -21 -5 -25
-30 -25 -19 0 -33 7 -40 21 -10 18 -18 20 -68 15 -101 -9 -129 -17 -158 -47
-15 -16 -33 -29 -40 -29 -8 0 -11 -17 -10 -53 3 -70 10 -79 41 -65 20 9 28 8
43 -5 25 -23 34 -21 62 8 27 29 42 31 60 10 9 -11 17 -12 30 -5 13 7 21 7 25
0 4 -6 13 -7 24 -1 10 6 23 6 31 1 19 -12 42 8 35 29 -6 22 10 46 32 46 14 0
19 10 21 48 2 30 8 50 18 54 25 9 15 41 -18 57 -37 19 -38 19 -60 2z"/>
<path d="M3010 14555 c-7 -8 -8 -15 -2 -15 5 0 15 7 22 15 7 8 8 15 2 15 -5 0
-15 -7 -22 -15z"/>
<path d="M2873 14513 c-3 -8 -3 -17 0 -20 7 -7 67 16 67 26 0 13 -62 8 -67 -6z"/>
<path d="M5665 14514 c-15 -16 -15 -18 -1 -26 19 -11 59 8 53 25 -6 19 -33 19
-52 1z"/>
<path d="M3060 14469 c0 -11 5 -17 10 -14 6 3 10 13 10 21 0 8 -4 14 -10 14
-5 0 -10 -9 -10 -21z"/>
<path d="M2670 14361 c-22 -42 -6 -69 18 -31 7 11 19 20 27 20 8 0 15 7 15 15
0 22 -47 19 -60 -4z"/>
<path d="M3630 14320 c-12 -8 -11 -10 8 -10 12 0 22 5 22 10 0 13 -11 13 -30
0z"/>
<path d="M5630 14305 c0 -9 9 -15 21 -15 18 0 19 2 9 15 -7 8 -16 15 -21 15
-5 0 -9 -7 -9 -15z"/>
<path d="M13960 14190 c0 -5 4 -10 9 -10 6 0 13 5 16 10 3 6 -1 10 -9 10 -9 0
-16 -4 -16 -10z"/>
<path d="M3552 14161 c4 -13 18 -16 19 -4 0 4 -5 9 -11 12 -7 2 -11 -2 -8 -8z"/>
<path d="M13892 14159 c2 -6 8 -10 13 -10 5 0 11 4 13 10 2 6 -4 11 -13 11 -9
0 -15 -5 -13 -11z"/>
<path d="M3223 14110 c-25 -10 -31 -45 -10 -53 21 -8 65 4 79 20 10 12 9 18
-7 29 -21 16 -31 16 -62 4z"/>
<path d="M3440 14101 c-19 -5 -21 -8 -9 -13 11 -4 18 -25 23 -63 7 -65 -7 -99
-46 -110 -13 -3 -33 -11 -45 -17 -17 -8 -33 -8 -57 -1 -27 8 -45 7 -80 -4 -50
-17 -53 -20 -32 -49 14 -19 15 -19 38 4 14 12 32 22 41 22 26 0 32 -28 12 -50
-17 -19 -17 -20 7 -29 13 -5 30 -16 37 -25 8 -9 21 -14 31 -11 9 3 24 -3 34
-14 24 -26 131 -20 163 11 29 27 58 18 49 -18 -10 -36 1 -46 30 -27 16 10 24
23 21 34 -8 30 56 66 106 60 10 -1 21 8 27 23 12 32 22 32 60 5 37 -28 60 -19
60 24 0 46 -23 76 -47 61 -14 -9 -26 -8 -51 4 -41 20 -64 8 -73 -36 -14 -67
-58 -83 -85 -30 -16 30 -15 32 6 48 18 14 21 23 15 49 -9 40 -29 49 -56 25
-16 -14 -22 -15 -28 -5 -5 7 -19 18 -32 25 -16 7 -30 29 -41 61 -17 53 -30 60
-78 46z"/>
<path d="M3930 14070 c0 -5 7 -10 16 -10 8 0 12 5 9 10 -3 6 -10 10 -16 10 -5
0 -9 -4 -9 -10z"/>
<path d="M4090 14005 c-11 -13 -8 -15 25 -15 25 0 35 4 33 13 -7 18 -43 20
-58 2z"/>
<path d="M12862 13835 c0 -16 2 -22 5 -12 2 9 2 23 0 30 -3 6 -5 -1 -5 -18z"/>
<path d="M12873 13775 c-8 -19 -8 -25 0 -25 7 0 17 11 24 25 8 19 8 25 0 25
-7 0 -17 -11 -24 -25z"/>
<path d="M5635 13760 c-4 -6 14 -10 47 -9 45 1 49 3 23 9 -44 11 -63 11 -70 0z"/>
<path d="M13913 13734 c-7 -18 17 -38 31 -24 11 11 1 40 -14 40 -6 0 -13 -7
-17 -16z"/>
<path d="M13810 13712 c0 -5 14 -9 30 -9 17 0 30 4 30 9 0 4 -13 8 -30 8 -16
0 -30 -4 -30 -8z"/>
<path d="M12905 13690 c4 -6 11 -8 16 -5 14 9 11 15 -7 15 -8 0 -12 -5 -9 -10z"/>
<path d="M12986 13691 c-4 -7 -5 -15 -2 -18 9 -9 19 4 14 18 -4 11 -6 11 -12
0z"/>
<path d="M12792 13664 c9 -9 21 -13 27 -10 20 13 11 26 -16 26 -25 0 -26 -1
-11 -16z"/>
<path d="M13640 13665 c-7 -8 -10 -22 -6 -30 4 -13 10 -14 26 -5 23 13 25 23
6 39 -10 9 -16 8 -26 -4z"/>
<path d="M12875 13639 c-4 -6 -4 -13 -1 -16 8 -8 36 5 36 17 0 13 -27 13 -35
-1z"/>
<path d="M12937 13602 c-23 -25 -21 -35 4 -27 15 5 25 1 35 -14 8 -11 21 -18
29 -15 20 8 19 24 0 24 -9 0 -20 11 -25 25 -11 30 -21 31 -43 7z"/>
<path d="M13030 13604 c0 -14 3 -14 15 -4 8 7 15 14 15 16 0 2 -7 4 -15 4 -8
0 -15 -7 -15 -16z"/>
<path d="M13088 13575 c-8 -43 0 -55 39 -55 26 0 40 17 25 32 -6 6 -12 6 -16
-1 -15 -24 -35 -10 -38 27 l-3 37 -7 -40z"/>
<path d="M12820 13553 c0 -10 14 -33 32 -52 25 -26 29 -37 21 -50 -6 -9 -18
-15 -28 -14 -11 0 -14 -4 -11 -14 3 -8 6 -17 6 -19 0 -2 6 -4 13 -4 13 0 37
45 37 71 0 9 7 22 15 29 20 17 19 30 -3 30 -11 0 -27 9 -37 20 -22 25 -45 26
-45 3z"/>
<path d="M13090 13435 c0 -8 7 -15 15 -15 8 0 15 7 15 15 0 8 -7 15 -15 15 -8
0 -15 -7 -15 -15z"/>
<path d="M13150 13435 c0 -8 7 -15 15 -15 8 0 15 7 15 15 0 8 -7 15 -15 15 -8
0 -15 -7 -15 -15z"/>
<path d="M13370 13342 c0 -16 28 -34 34 -23 4 6 -3 15 -14 21 -11 6 -20 7 -20
2z"/>
<path d="M13317 13313 c-13 -12 -7 -23 13 -23 11 0 20 7 20 15 0 15 -21 21
-33 8z"/>
<path d="M13017 13304 c-16 -16 -5 -22 38 -21 25 1 44 6 42 12 -4 12 -70 19
-80 9z"/>
<path d="M13236 13285 c17 -26 29 -31 39 -16 3 5 -4 12 -15 16 -11 3 -20 11
-20 16 0 5 -5 9 -10 9 -6 0 -3 -11 6 -25z"/>
<path d="M13150 13265 c0 -8 5 -15 10 -15 6 0 10 7 10 15 0 8 -4 15 -10 15 -5
0 -10 -7 -10 -15z"/>
<path d="M12705 13200 c-4 -6 5 -10 19 -10 30 0 34 -17 9 -36 -16 -12 -16 -13
-2 -14 21 0 55 38 43 49 -15 14 -62 22 -69 11z"/>
<path d="M12639 13164 c-11 -14 -10 -15 11 -12 13 1 25 9 28 16 5 17 -23 15
-39 -4z"/>
<path d="M12796 13079 c-21 -41 -21 -40 16 -32 22 4 34 2 43 -10 10 -14 12
-12 12 13 0 17 -5 30 -10 30 -6 0 -18 7 -28 16 -16 14 -18 13 -33 -17z"/>
<path d="M12612 12972 c2 -11 -3 -27 -11 -36 -10 -12 -11 -20 -4 -27 8 -8 14
-5 22 10 7 11 25 28 42 36 37 20 29 35 -17 35 -29 0 -35 -3 -32 -18z"/>
<path d="M12742 12969 c1 -13 8 -23 13 -21 15 3 12 35 -3 40 -9 3 -13 -3 -10
-19z"/>
<path d="M12795 12980 c4 -6 11 -8 16 -5 14 9 11 15 -7 15 -8 0 -12 -5 -9 -10z"/>
<path d="M12910 12972 c0 -5 7 -16 16 -23 14 -12 16 -11 13 5 -4 20 -29 35
-29 18z"/>
<path d="M12490 12923 c0 -13 5 -23 10 -23 13 0 13 11 0 30 -8 12 -10 11 -10
-7z"/>
<path d="M4770 12914 c0 -9 7 -14 17 -12 25 5 28 28 4 28 -12 0 -21 -6 -21
-16z"/>
<path d="M12880 12913 c0 -12 5 -25 10 -28 6 -3 10 -15 10 -26 0 -27 -32 -24
-60 6 -27 28 -40 32 -40 10 0 -8 -6 -15 -14 -15 -7 0 -19 7 -26 15 -23 28 -40
18 -40 -24 0 -44 -12 -57 -55 -64 -16 -2 -1 -4 35 -3 73 2 90 9 90 37 0 23 35
26 48 4 10 -18 41 -9 79 22 l22 18 -29 35 c-26 31 -29 33 -30 13z"/>
<path d="M4887 12883 c-12 -11 -8 -23 8 -23 8 0 15 7 15 15 0 16 -12 20 -23 8z"/>
<path d="M12546 12874 c-4 -10 -1 -14 6 -12 15 5 23 28 10 28 -5 0 -13 -7 -16
-16z"/>
<path d="M12625 12839 c-4 -6 -4 -13 -1 -16 8 -8 36 5 36 17 0 13 -27 13 -35
-1z"/>
<path d="M4900 12755 c0 -8 7 -15 15 -15 8 0 15 7 15 15 0 8 -7 15 -15 15 -8
0 -15 -7 -15 -15z"/>
<path d="M12407 12763 c-14 -13 -6 -24 15 -21 27 4 36 28 11 28 -11 0 -23 -3
-26 -7z"/>
<path d="M4800 12741 c0 -5 10 -13 23 -17 12 -4 25 -12 29 -18 4 -6 10 -7 14
-3 11 10 -26 47 -48 47 -10 0 -18 -4 -18 -9z"/>
<path d="M12663 12735 c6 -16 82 -18 95 -2 10 11 2 13 -43 13 -32 -1 -54 -5
-52 -11z"/>
<path d="M12828 12703 c7 -3 16 -2 19 1 4 3 -2 6 -13 5 -11 0 -14 -3 -6 -6z"/>
<path d="M4753 12670 c0 -16 4 -30 9 -30 4 0 8 14 8 30 0 17 -4 30 -8 30 -5 0
-9 -13 -9 -30z"/>
<path d="M12380 12690 c0 -5 7 -10 15 -10 8 0 15 5 15 10 0 6 -7 10 -15 10 -8
0 -15 -4 -15 -10z"/>
<path d="M4800 12660 c0 -5 5 -10 10 -10 6 0 10 5 10 10 0 6 -4 10 -10 10 -5
0 -10 -4 -10 -10z"/>
<path d="M12515 12620 c-3 -5 1 -10 9 -10 9 0 16 5 16 10 0 6 -4 10 -9 10 -6
0 -13 -4 -16 -10z"/>
<path d="M4768 12588 c9 -9 15 -9 24 0 9 9 7 12 -12 12 -19 0 -21 -3 -12 -12z"/>
<path d="M4830 12545 c-10 -12 -10 -15 4 -15 9 0 16 7 16 15 0 8 -2 15 -4 15
-2 0 -9 -7 -16 -15z"/>
<path d="M4908 12513 c7 -3 16 -2 19 1 4 3 -2 6 -13 5 -11 0 -14 -3 -6 -6z"/>
<path d="M5020 12505 c0 -8 4 -15 9 -15 5 0 12 -13 16 -30 7 -30 19 -38 30
-21 3 5 1 12 -5 16 -5 3 -10 14 -10 23 0 10 -9 23 -20 30 -17 10 -20 10 -20
-3z"/>
<path d="M5088 12493 c7 -3 16 -2 19 1 4 3 -2 6 -13 5 -11 0 -14 -3 -6 -6z"/>
<path d="M4880 12465 c0 -8 2 -15 4 -15 2 0 6 7 10 15 3 8 1 15 -4 15 -6 0
-10 -7 -10 -15z"/>
<path d="M12468 12463 c-35 -18 -35 -29 -2 -37 19 -5 30 -2 40 11 30 40 12 53
-38 26z"/>
<path d="M4810 12445 c7 -8 16 -15 20 -15 4 0 10 7 14 15 4 11 -2 15 -21 15
-21 0 -24 -2 -13 -15z"/>
<path d="M11940 12430 c0 -5 5 -10 10 -10 6 0 10 5 10 10 0 6 -4 10 -10 10 -5
0 -10 -4 -10 -10z"/>
<path d="M5160 12410 c0 -5 5 -10 10 -10 6 0 10 5 10 10 0 6 -4 10 -10 10 -5
0 -10 -4 -10 -10z"/>
<path d="M4800 12310 c0 -18 3 -19 20 -10 11 6 20 15 20 20 0 6 -9 10 -20 10
-13 0 -20 -7 -20 -20z"/>
<path d="M4867 12283 c-12 -11 -8 -23 8 -23 8 0 15 7 15 15 0 16 -12 20 -23 8z"/>
<path d="M4980 12215 c0 -10 7 -15 18 -13 21 4 19 22 -2 26 -10 2 -16 -3 -16
-13z"/>
<path d="M4876 12194 c-8 -22 4 -40 15 -23 11 18 11 39 0 39 -5 0 -12 -7 -15
-16z"/>
<path d="M9544 12196 c-8 -21 14 -56 35 -56 20 0 31 19 31 51 0 15 -7 19 -30
19 -17 0 -33 -6 -36 -14z"/>
<path d="M5027 12164 c-4 -4 -7 -18 -7 -31 0 -20 -4 -23 -20 -18 -16 5 -20 2
-20 -15 0 -18 3 -19 20 -10 15 8 26 7 43 -5 30 -19 41 -8 22 22 -9 13 -14 31
-13 40 3 17 -14 28 -25 17z"/>
<path d="M12040 12162 c0 -14 11 -21 26 -15 21 8 17 23 -6 23 -11 0 -20 -4
-20 -8z"/>
<path d="M12216 12161 c-4 -7 -5 -15 -2 -18 9 -9 19 4 14 18 -4 11 -6 11 -12
0z"/>
<path d="M11630 12150 c-12 -8 -11 -10 8 -10 12 0 22 5 22 10 0 13 -11 13 -30
0z"/>
<path d="M12124 12115 c-9 -22 24 -51 40 -35 7 7 3 17 -11 32 -21 20 -23 21
-29 3z"/>
<path d="M12036 12081 c-11 -12 -16 -24 -12 -28 9 -9 39 22 34 37 -2 7 -10 4
-22 -9z"/>
<path d="M10030 12044 c0 -8 5 -12 10 -9 6 3 10 10 10 16 0 5 -4 9 -10 9 -5 0
-10 -7 -10 -16z"/>
<path d="M4940 12006 c0 -11 9 -16 26 -16 31 0 28 23 -4 28 -15 2 -22 -2 -22
-12z"/>
<path d="M9780 12006 c0 -9 7 -16 16 -16 9 0 14 5 12 12 -6 18 -28 21 -28 4z"/>
<path d="M4760 11970 c0 -5 5 -10 10 -10 6 0 10 5 10 10 0 6 -4 10 -10 10 -5
0 -10 -4 -10 -10z"/>
<path d="M10070 11966 c0 -9 7 -16 16 -16 17 0 14 22 -4 28 -7 2 -12 -3 -12
-12z"/>
<path d="M11633 11973 c9 -2 23 -2 30 0 6 3 -1 5 -18 5 -16 0 -22 -2 -12 -5z"/>
<path d="M11568 11953 c7 -3 16 -2 19 1 4 3 -2 6 -13 5 -11 0 -14 -3 -6 -6z"/>
<path d="M11682 11948 c5 -15 28 -18 29 -3 0 6 -7 12 -17 13 -10 3 -15 -1 -12
-10z"/>
<path d="M4973 11926 c-8 -10 -26 -13 -55 -9 -40 4 -42 3 -24 -11 11 -9 26
-16 33 -16 9 0 13 -14 13 -40 0 -22 4 -40 8 -40 11 0 42 33 42 44 0 4 9 21 21
37 11 16 17 33 14 39 -9 14 -38 12 -52 -4z"/>
<path d="M10031 11903 c-1 -30 2 -33 27 -33 l27 1 -21 17 c-11 10 -23 24 -27
32 -3 8 -6 0 -6 -17z"/>
<path d="M9790 11900 c-8 -5 -12 -12 -8 -15 10 -10 49 5 43 16 -8 11 -16 11
-35 -1z"/>
<path d="M10267 11893 c-13 -12 -7 -23 13 -23 13 0 18 5 14 15 -7 16 -17 19
-27 8z"/>
<path d="M11620 11896 c0 -2 6 -9 14 -15 10 -9 16 -8 26 4 11 13 8 15 -14 15
-14 0 -26 -2 -26 -4z"/>
<path d="M4840 11832 c0 -26 5 -34 27 -43 15 -6 31 -16 35 -22 5 -8 8 -7 8 4
0 9 -16 33 -35 55 l-34 39 -1 -33z"/>
<path d="M10090 11824 c-25 -14 -25 -14 13 -14 30 0 40 -5 44 -19 3 -11 13
-21 24 -24 14 -4 19 -14 19 -38 0 -32 1 -32 17 -16 15 14 15 21 5 37 -6 11
-12 36 -12 55 0 35 0 35 -42 34 -24 -1 -54 -7 -68 -15z"/>
<path d="M9920 11780 c0 -5 5 -10 10 -10 6 0 10 5 10 10 0 6 -4 10 -10 10 -5
0 -10 -4 -10 -10z"/>
<path d="M4965 11770 c-8 -13 4 -32 16 -25 12 8 12 35 0 35 -6 0 -13 -4 -16
-10z"/>
<path d="M11625 11770 c-8 -13 4 -32 16 -25 12 8 12 35 0 35 -6 0 -13 -4 -16
-10z"/>
<path d="M4766 11751 c-4 -5 -2 -12 3 -15 5 -4 12 -2 15 3 4 5 2 12 -3 15 -5
4 -12 2 -15 -3z"/>
<path d="M10110 11744 c0 -8 5 -12 10 -9 6 4 8 11 5 16 -9 14 -15 11 -15 -7z"/>
<path d="M4804 11696 c-18 -14 -18 -15 -1 -22 21 -8 67 10 67 26 0 15 -43 12
-66 -4z"/>
<path d="M4930 11670 c0 -16 5 -30 10 -30 6 0 10 14 10 30 0 17 -4 30 -10 30
-5 0 -10 -13 -10 -30z"/>
<path d="M9820 11691 c0 -5 6 -14 14 -20 16 -13 32 2 21 19 -8 12 -35 13 -35
1z"/>
<path d="M9700 11660 c0 -5 7 -10 15 -10 8 0 15 5 15 10 0 6 -7 10 -15 10 -8
0 -15 -4 -15 -10z"/>
<path d="M10157 11643 c-15 -14 -6 -24 20 -21 34 4 43 28 11 28 -14 0 -28 -3
-31 -7z"/>
<path d="M11490 11635 c-11 -13 -8 -15 14 -15 16 0 26 5 26 15 0 8 -6 15 -14
15 -7 0 -19 -7 -26 -15z"/>
<path d="M9820 11576 c0 -9 7 -16 16 -16 17 0 14 22 -4 28 -7 2 -12 -3 -12
-12z"/>
<path d="M10118 11583 c7 -3 16 -2 19 1 4 3 -2 6 -13 5 -11 0 -14 -3 -6 -6z"/>
<path d="M11533 11583 c9 -2 23 -2 30 0 6 3 -1 5 -18 5 -16 0 -22 -2 -12 -5z"/>
<path d="M4898 11548 c28 -31 28 -33 -8 -48 -18 -8 -30 -20 -30 -31 0 -25 15
-24 41 2 16 16 29 20 51 15 28 -6 30 -4 24 20 -9 36 -26 50 -67 59 l-34 7 23
-24z"/>
<path d="M11170 11560 c0 -5 5 -10 10 -10 6 0 10 5 10 10 0 6 -4 10 -10 10 -5
0 -10 -4 -10 -10z"/>
<path d="M4820 11540 c0 -5 5 -10 11 -10 5 0 7 5 4 10 -3 6 -8 10 -11 10 -2 0
-4 -4 -4 -10z"/>
<path d="M11500 11532 c0 -10 7 -13 23 -8 12 3 25 6 30 6 4 0 7 4 7 9 0 5 -13
9 -30 9 -19 -1 -30 -6 -30 -16z"/>
<path d="M9988 11508 c5 -53 -70 -116 -93 -78 -7 12 -75 -30 -75 -47 0 -11 47
-19 87 -14 6 1 18 -6 25 -16 7 -10 23 -24 36 -30 12 -7 31 -18 41 -25 15 -9
23 -9 35 1 21 18 20 28 -4 34 -11 3 -20 13 -20 22 0 15 7 17 40 12 22 -3 40
-2 40 2 0 10 -62 31 -93 31 -15 0 -27 5 -27 11 0 13 34 44 73 64 36 20 34 34
-4 33 -19 -1 -37 6 -44 15 -18 24 -21 21 -17 -15z"/>
<path d="M5060 11505 c0 -8 5 -15 10 -15 6 0 10 7 10 15 0 8 -4 15 -10 15 -5
0 -10 -7 -10 -15z"/>
<path d="M11183 11508 c-13 -6 -23 -15 -23 -20 0 -11 17 -10 25 2 3 6 15 10
26 10 11 0 17 5 14 10 -7 12 -13 12 -42 -2z"/>
<path d="M10985 11480 c3 -5 15 -10 26 -10 10 0 19 5 19 10 0 6 -12 10 -26 10
-14 0 -23 -4 -19 -10z"/>
<path d="M9805 11460 c-3 -5 -1 -10 4 -10 6 0 11 5 11 10 0 6 -2 10 -4 10 -3
0 -8 -4 -11 -10z"/>
<path d="M11150 11430 c0 -13 5 -20 13 -17 6 2 12 10 12 17 0 7 -6 15 -12 18
-8 2 -13 -5 -13 -18z"/>
<path d="M11050 11419 c0 -5 6 -9 14 -9 8 0 17 -11 20 -25 7 -28 26 -25 26 3
0 10 -13 22 -30 29 -16 6 -30 7 -30 2z"/>
<path d="M10550 11360 c0 -19 3 -21 12 -12 9 9 9 15 0 24 -9 9 -12 7 -12 -12z"/>
<path d="M10920 11361 c0 -5 11 -16 24 -25 29 -18 86 -12 86 10 0 16 -16 19
-25 4 -10 -15 -52 -12 -59 5 -6 16 -26 21 -26 6z"/>
<path d="M10605 11290 c-3 -6 1 -13 10 -16 19 -8 30 0 20 15 -8 14 -22 14 -30
1z"/>
<path d="M4974 11148 c-4 -6 1 -17 11 -25 27 -19 33 -16 27 12 -5 26 -26 33
-38 13z"/>
<path d="M4960 11076 c0 -9 5 -16 10 -16 6 0 10 4 10 9 0 6 -4 13 -10 16 -5 3
-10 -1 -10 -9z"/>
<path d="M5040 11080 c0 -5 5 -10 10 -10 6 0 10 5 10 10 0 6 -4 10 -10 10 -5
0 -10 -4 -10 -10z"/>
<path d="M5033 11013 c-18 -6 -16 -33 1 -33 8 0 17 4 20 8 7 12 -7 30 -21 25z"/>
<path d="M5115 11011 c-3 -5 -1 -12 5 -16 12 -7 30 2 30 16 0 12 -27 12 -35 0z"/>
<path d="M4957 10984 c-8 -8 2 -55 14 -68 11 -13 12 44 1 62 -5 7 -11 9 -15 6z"/>
<path d="M5032 10928 c-18 -18 -14 -28 11 -28 30 0 40 10 26 27 -14 16 -22 16
-37 1z"/>
<path d="M5000 10870 c0 -5 5 -10 10 -10 6 0 10 5 10 10 0 6 -4 10 -10 10 -5
0 -10 -4 -10 -10z"/>
<path d="M5090 10846 c0 -15 6 -26 14 -26 17 0 16 42 -1 48 -8 2 -13 -6 -13
-22z"/>
<path d="M4940 10845 c0 -8 7 -15 15 -15 8 0 15 7 15 15 0 8 -7 15 -15 15 -8
0 -15 -7 -15 -15z"/>
<path d="M5061 10477 c-6 -8 -8 -17 -5 -20 9 -8 44 11 44 23 0 15 -26 12 -39
-3z"/>
<path d="M5198 10443 c7 -3 16 -2 19 1 4 3 -2 6 -13 5 -11 0 -14 -3 -6 -6z"/>
<path d="M5086 10401 c-4 -5 -3 -17 1 -27 6 -16 7 -16 20 2 7 10 13 21 13 26
0 11 -27 10 -34 -1z"/>
<path d="M9655 10340 c-7 -12 12 -40 27 -40 13 0 6 43 -9 47 -6 2 -14 -1 -18
-7z"/>
<path d="M5077 10322 c-13 -14 -14 -21 -5 -30 22 -22 39 -14 32 16 -9 35 -8
35 -27 14z"/>
<path d="M9275 10260 c3 -5 8 -10 11 -10 2 0 4 5 4 10 0 6 -5 10 -11 10 -5 0
-7 -4 -4 -10z"/>
<path d="M5125 10195 c32 -26 45 -31 45 -16 0 9 -55 41 -69 41 -3 0 8 -11 24
-25z"/>
<path d="M5100 10069 c0 -5 5 -7 10 -4 6 3 10 8 10 11 0 2 -4 4 -10 4 -5 0
-10 -5 -10 -11z"/>
<path d="M5240 9919 c0 -5 5 -7 10 -4 6 3 10 8 10 11 0 2 -4 4 -10 4 -5 0 -10
-5 -10 -11z"/>
<path d="M9400 9700 c0 -5 5 -10 10 -10 6 0 10 5 10 10 0 6 -4 10 -10 10 -5 0
-10 -4 -10 -10z"/>
<path d="M5406 9643 c-11 -11 -6 -23 9 -23 8 0 15 4 15 9 0 13 -16 22 -24 14z"/>
<path d="M9250 9620 c0 -5 5 -10 10 -10 6 0 10 5 10 10 0 6 -4 10 -10 10 -5 0
-10 -4 -10 -10z"/>
<path d="M9158 9579 c-10 -10 -18 -27 -17 -36 0 -11 3 -13 6 -5 2 6 13 12 24
12 14 0 19 7 19 25 0 29 -8 30 -32 4z"/>
<path d="M9221 9214 c0 -11 3 -14 6 -6 3 7 2 16 -1 19 -3 4 -6 -2 -5 -13z"/>
<path d="M5437 9083 c-13 -12 -7 -21 16 -26 12 -2 30 -8 40 -12 12 -5 17 -3
17 9 0 9 -8 16 -19 16 -11 0 -23 5 -26 10 -7 12 -19 13 -28 3z"/>
<path d="M5761 8271 c-36 -10 -36 -27 -1 -34 35 -7 36 -13 11 -46 -23 -30 -51
-22 -51 14 0 28 -25 44 -42 27 -8 -8 -6 -22 7 -48 10 -21 21 -49 25 -63 8 -30
39 -40 52 -17 10 18 38 22 38 4 0 -6 -18 -26 -40 -45 -43 -37 -44 -60 -2 -65
22 -2 27 -8 26 -28 -1 -13 5 -30 12 -38 8 -7 14 -22 14 -33 0 -10 6 -19 13
-19 20 0 47 -33 47 -57 0 -18 28 -53 43 -53 16 0 6 68 -13 88 -11 12 -20 30
-20 41 0 11 -4 23 -10 26 -5 3 -10 21 -10 40 0 19 5 37 10 40 6 3 10 37 10 75
0 38 -4 72 -10 75 -5 3 -10 19 -10 34 0 15 -7 42 -16 59 -16 33 -32 37 -83 23z
m-21 -131 c0 -5 -5 -10 -11 -10 -5 0 -7 5 -4 10 3 6 8 10 11 10 2 0 4 -4 4
-10z"/>
<path d="M5618 7949 c-27 -23 -48 -47 -48 -55 0 -17 5 -17 29 -2 29 18 53 3
45 -27 -7 -30 -7 -30 36 -9 27 14 34 14 41 3 5 -8 9 -19 9 -26 0 -6 9 -15 20
-18 16 -5 20 -15 20 -46 0 -41 18 -54 27 -18 3 12 11 18 19 15 8 -3 21 -9 29
-12 29 -12 16 27 -15 44 -16 9 -30 22 -30 28 0 6 -18 32 -40 57 -22 25 -40 54
-40 64 0 23 -19 43 -39 43 -9 -1 -37 -19 -63 -41z"/>
<path d="M9306 7943 c-11 -11 -6 -23 9 -23 8 0 15 4 15 9 0 13 -16 22 -24 14z"/>
<path d="M9372 7938 c6 -18 28 -21 28 -4 0 9 -7 16 -16 16 -9 0 -14 -5 -12
-12z"/>
<path d="M9257 7890 c4 -16 0 -20 -19 -20 -14 0 -33 -9 -42 -19 -17 -19 -17
-20 3 -31 12 -6 21 -17 21 -25 0 -19 20 -19 45 -1 17 12 18 17 7 40 -10 22 -9
28 7 38 18 11 18 13 3 25 -24 18 -31 16 -25 -7z"/>
<path d="M9367 7842 c-27 -28 -48 -102 -29 -102 6 0 14 10 18 22 4 12 17 31
30 41 24 18 32 51 16 61 -5 3 -21 -7 -35 -22z"/>
<path d="M9340 7670 c-8 -5 -23 -11 -32 -14 -21 -6 -24 -26 -5 -26 18 0 67 23
67 32 0 12 -15 16 -30 8z"/>
<path d="M5794 7582 c-4 -12 -12 -22 -19 -22 -7 0 -18 -7 -25 -15 -17 -20 3
-45 30 -38 14 4 22 -2 30 -21 7 -18 17 -26 34 -26 14 0 28 -4 31 -10 11 -17
61 -11 81 11 15 16 16 22 5 29 -8 4 -17 25 -20 46 -6 37 -9 39 -44 42 -36 3
-37 2 -31 -23 4 -18 2 -30 -7 -36 -19 -12 -25 -11 -43 7 -12 12 -14 20 -5 36
8 15 8 23 0 31 -9 9 -13 6 -17 -11z"/>
<path d="M5975 7589 c-4 -6 -3 -15 3 -21 6 -6 11 -4 15 6 7 18 -9 31 -18 15z"/>
<path d="M9105 7590 c4 -6 11 -8 16 -5 14 9 11 15 -7 15 -8 0 -12 -5 -9 -10z"/>
<path d="M6024 7515 c-10 -19 -25 -35 -32 -35 -7 0 -11 -4 -7 -9 8 -14 86 40
83 58 -6 27 -25 21 -44 -14z"/>
<path d="M9060 7530 c0 -5 5 -10 10 -10 6 0 10 5 10 10 0 6 -4 10 -10 10 -5 0
-10 -4 -10 -10z"/>
<path d="M6140 7510 c0 -5 7 -10 15 -10 8 0 15 5 15 10 0 6 -7 10 -15 10 -8 0
-15 -4 -15 -10z"/>
<path d="M5780 7395 c6 -8 9 -23 5 -35 -4 -14 -1 -28 9 -39 15 -16 15 -19 -4
-36 -21 -19 -27 -69 -10 -80 5 -3 24 10 41 29 22 26 39 36 60 36 22 0 32 6 38
23 11 28 6 37 -24 37 -13 0 -27 5 -30 10 -3 6 -17 10 -31 10 -15 0 -24 6 -24
15 0 17 75 22 85 5 9 -15 25 -12 25 5 0 9 -9 15 -24 15 -14 0 -28 5 -31 10 -3
6 -27 10 -52 10 -39 0 -44 -2 -33 -15z"/>
<path d="M6020 7240 c0 -15 38 -32 45 -20 3 5 3 15 0 20 -8 13 -45 13 -45 0z"/>
<path d="M6060 7166 c0 -16 19 -25 38 -19 22 8 13 33 -13 33 -15 0 -25 -6 -25
-14z"/>
<path d="M6006 7093 c-4 -5 -47 -10 -94 -13 -107 -6 -119 -23 -46 -64 41 -23
49 -25 56 -11 14 23 36 18 52 -12 15 -30 22 -23 28 27 2 17 10 26 25 28 26 4
47 27 38 42 -7 12 -48 14 -59 3z"/>
<path d="M6240 7016 c0 -2 7 -6 15 -10 8 -3 15 -1 15 4 0 6 -7 10 -15 10 -8 0
-15 -2 -15 -4z"/>
<path d="M5895 6950 c-3 -5 -14 -10 -24 -10 -13 0 -20 -9 -24 -32 -6 -41 -2
-46 21 -25 25 23 49 21 62 -3 12 -23 50 -27 50 -6 0 7 -6 19 -14 26 -8 6 -12
18 -9 27 10 26 -47 47 -62 23z"/>
<path d="M6139 6933 c-1 -4 0 -18 0 -30 1 -12 -6 -26 -16 -32 -10 -6 -12 -11
-5 -11 7 0 16 -8 19 -17 4 -10 16 -26 27 -36 20 -18 21 -18 24 -2 2 10 -1 27
-7 39 -6 11 -12 36 -13 55 -2 19 -9 36 -15 39 -7 2 -13 0 -14 -5z"/>
<path d="M5896 6813 c4 -16 9 -31 13 -35 8 -9 101 3 101 13 0 16 -59 49 -89
49 -29 0 -31 -2 -25 -27z"/>
<path d="M6180 6420 c0 -5 7 -10 16 -10 8 0 12 5 9 10 -3 6 -10 10 -16 10 -5
0 -9 -4 -9 -10z"/>
<path d="M6684 6225 c-9 -22 1 -29 15 -11 8 10 9 16 1 21 -5 3 -13 -1 -16 -10z"/>
<path d="M6447 6113 c-4 -3 -7 -11 -7 -17 0 -6 5 -5 12 2 6 6 9 14 7 17 -3 3
-9 2 -12 -2z"/>
<path d="M6740 6100 c0 -5 7 -10 15 -10 8 0 15 5 15 10 0 6 -7 10 -15 10 -8 0
-15 -4 -15 -10z"/>
<path d="M6360 6066 c0 -29 17 -43 33 -27 8 8 9 16 1 28 -17 27 -34 27 -34 -1z"/>
<path d="M6662 6016 c1 -10 8 -17 13 -17 15 1 12 24 -3 29 -9 3 -13 -2 -10
-12z"/>
<path d="M6693 5953 c-7 -2 -13 -9 -13 -15 0 -14 43 -6 48 10 4 12 -12 15 -35
5z"/>
<path d="M6850 5946 c0 -9 5 -16 10 -16 6 0 10 4 10 9 0 6 -4 13 -10 16 -5 3
-10 -1 -10 -9z"/>
<path d="M6447 5919 c-21 -12 -13 -29 13 -29 24 0 50 -53 48 -98 -1 -21 7 -41
22 -57 22 -23 22 -27 10 -65 -14 -44 -33 -48 -38 -9 -5 33 -32 63 -46 49 -17
-17 -23 -12 -23 18 0 30 -11 84 -19 92 -10 10 -42 -45 -47 -80 -3 -25 1 -38
14 -48 13 -9 16 -21 12 -47 -3 -19 -3 -35 0 -35 3 0 19 14 36 31 l31 31 2 -49
c2 -55 1 -66 -8 -110 -8 -39 16 -55 45 -29 25 23 31 20 31 -13 0 -16 -6 -31
-15 -35 -19 -7 -20 -36 -1 -36 8 0 17 11 20 25 4 14 11 25 16 25 6 0 10 12 10
26 0 17 -6 28 -20 31 -27 7 -26 42 3 52 19 7 22 16 22 62 0 41 4 54 15 54 19
0 37 -95 19 -106 -9 -5 -8 -17 5 -49 16 -41 16 -43 -4 -77 -16 -27 -18 -38 -9
-49 16 -19 29 -17 29 4 0 10 7 27 15 38 9 12 14 43 15 86 0 37 5 70 10 73 6 3
10 14 10 24 0 12 10 20 29 24 21 5 30 13 34 35 12 60 -19 98 -33 41 -5 -20
-12 -24 -43 -23 -20 1 -48 9 -62 18 -20 13 -25 24 -25 60 0 30 -5 46 -15 50
-10 3 -15 19 -15 46 0 34 -4 42 -26 50 -32 12 -44 12 -67 -1z"/>
<path d="M6674 5867 c-9 -24 6 -44 18 -22 7 11 6 21 -1 28 -7 7 -12 6 -17 -6z"/>
<path d="M6620 5764 c0 -20 4 -25 16 -20 9 3 20 6 25 6 15 0 10 27 -7 34 -27
11 -34 7 -34 -20z"/>
<path d="M8425 5620 c7 -85 11 -100 23 -100 5 0 5 24 1 53 -5 39 -3 55 7 63
11 9 9 15 -12 35 l-26 24 7 -75z"/>
<path d="M6802 5659 c2 -6 8 -10 13 -10 5 0 11 4 13 10 2 6 -4 11 -13 11 -9 0
-15 -5 -13 -11z"/>
<path d="M6744 5606 c-9 -14 -22 -26 -30 -26 -7 0 -16 -5 -20 -12 -13 -20 -22
-88 -12 -94 5 -3 25 9 45 26 30 27 41 31 69 25 38 -7 44 6 22 48 -6 12 -14 29
-18 37 -12 25 -38 23 -56 -4z"/>
<path d="M6701 5421 c-37 -44 -41 -52 -29 -70 7 -12 16 -21 19 -21 16 0 43 44
43 73 1 26 6 33 24 35 13 2 21 9 19 15 -9 27 -37 15 -76 -32z"/>
<path d="M7090 5406 c-5 -13 -15 -26 -22 -29 -10 -3 -10 -9 -2 -23 17 -29 40
-24 36 8 -4 32 11 43 29 22 10 -12 10 -20 1 -35 -7 -10 -12 -26 -12 -34 0 -8
-4 -15 -8 -15 -5 0 -17 -7 -28 -16 -18 -15 -18 -15 9 -11 25 4 28 2 23 -16
-13 -50 52 -65 79 -19 10 16 27 32 38 38 24 10 36 44 16 44 -6 0 -20 10 -30
22 -11 12 -29 26 -42 32 -12 6 -26 21 -32 34 -13 29 -43 28 -55 -2z"/>
<path d="M6758 5318 c-8 -13 -17 -31 -21 -40 -3 -10 -13 -18 -22 -18 -18 0
-20 -21 -3 -38 20 -20 38 -13 60 24 15 26 26 34 39 31 25 -7 26 38 2 47 -10 3
-23 8 -29 11 -6 3 -18 -5 -26 -17z"/>
<path d="M6950 5321 c0 -25 19 -38 31 -20 12 19 6 33 -14 37 -11 2 -17 -3 -17
-17z"/>
<path d="M6600 5295 c0 -23 4 -25 41 -25 43 0 52 22 11 28 -12 2 -22 8 -22 13
0 5 -7 9 -15 9 -9 0 -15 -9 -15 -25z"/>
<path d="M7343 5295 c-13 -9 -23 -21 -23 -28 0 -20 -53 -67 -77 -67 -13 0 -23
-4 -23 -9 0 -5 9 -7 20 -4 12 3 29 -2 40 -12 20 -18 21 -18 35 1 8 10 15 30
15 45 0 31 17 49 48 49 17 0 23 5 20 17 -4 24 -28 27 -55 8z"/>
<path d="M6857 5253 c-8 -13 2 -43 14 -43 10 0 10 8 0 34 -5 12 -10 16 -14 9z"/>
<path d="M6776 5184 c-3 -9 -4 -20 0 -25 7 -12 34 -12 34 0 0 5 3 16 6 25 4
11 0 16 -14 16 -11 0 -23 -7 -26 -16z"/>
<path d="M6880 5141 c0 -13 26 -32 33 -24 8 7 -11 33 -24 33 -5 0 -9 -4 -9 -9z"/>
<path d="M6875 5090 c-4 -6 -3 -16 3 -22 6 -6 12 -6 17 2 4 6 3 16 -3 22 -6 6
-12 6 -17 -2z"/>
<path d="M7070 5049 c0 -21 21 -49 37 -49 20 0 114 -53 127 -72 9 -12 16 -15
20 -9 9 14 -20 44 -61 65 -17 9 -34 25 -38 36 -15 49 -85 73 -85 29z"/>
<path d="M6700 5034 c-9 -10 -10 -18 -2 -26 12 -12 32 -2 32 17 0 21 -16 26
-30 9z"/>
<path d="M6835 5019 c-4 -5 0 -18 9 -28 9 -10 16 -25 16 -34 0 -9 5 -19 10
-22 6 -3 10 -15 10 -27 0 -14 -5 -18 -16 -14 -9 3 -18 6 -20 6 -3 0 -9 12 -14
26 -12 31 -44 29 -48 -4 -4 -29 14 -52 40 -52 18 0 19 -5 14 -35 -7 -38 9 -75
34 -75 9 0 26 7 38 16 23 16 42 12 42 -9 0 -6 -14 -26 -32 -44 l-32 -33 26 0
c16 0 38 -12 56 -30 23 -23 31 -26 36 -15 3 8 12 12 21 9 24 -9 18 7 -20 55
-19 24 -35 46 -35 49 0 3 11 20 25 38 14 18 25 39 25 48 0 23 -20 30 -39 12
-10 -9 -23 -16 -29 -16 -19 0 -14 28 8 40 28 15 25 26 -10 42 -16 7 -30 17
-30 23 0 11 -63 85 -73 85 -3 0 -9 -5 -12 -11z"/>
<path d="M7545 4960 c-15 -16 -16 -23 -6 -33 14 -14 31 5 31 36 0 22 -3 21
-25 -3z"/>
<path d="M8965 4828 c-22 -5 -53 -11 -70 -15 -16 -3 -43 -18 -60 -33 -31 -28
-80 -54 -125 -64 -25 -6 -130 -99 -130 -115 0 -16 -53 -61 -71 -61 -10 0 -24
9 -31 20 -7 11 -16 20 -20 20 -13 0 -21 -71 -9 -83 6 -6 11 -25 11 -43 0 -44
19 -94 36 -94 8 0 22 -9 31 -20 23 -27 39 -25 73 8 31 31 150 92 180 92 10 0
31 11 47 24 15 13 38 27 51 31 20 6 23 12 20 47 -3 47 16 61 64 47 29 -8 44 3
33 22 -9 14 24 38 53 39 19 0 49 15 91 46 9 7 -116 145 -129 143 -3 -1 -23 -5
-45 -11z m78 -73 c20 -41 22 -71 6 -81 -18 -11 -36 18 -43 69 -9 59 12 65 37
12z"/>
<path d="M7177 4575 c-24 -30 -26 -36 -12 -41 22 -9 67 16 56 30 -5 6 -10 19
-12 29 -3 14 -9 10 -32 -18z"/>
<path d="M9050 4575 c0 -14 5 -25 10 -25 6 0 10 11 10 25 0 14 -4 25 -10 25
-5 0 -10 -11 -10 -25z"/>
<path d="M9086 4505 c-9 -9 -16 -21 -16 -26 0 -15 -42 -10 -61 7 -16 14 -20
14 -48 -7 -24 -17 -31 -31 -31 -56 0 -25 -7 -37 -27 -50 -16 -9 -57 -45 -92
-80 -42 -42 -71 -63 -87 -63 -16 0 -28 -9 -39 -29 -8 -17 -25 -31 -37 -33 -37
-5 -36 -57 1 -97 16 -17 31 -44 33 -58 2 -14 10 -29 18 -33 49 -24 131 -50
158 -50 11 0 24 -4 27 -10 3 -5 19 -10 36 -10 28 0 57 -12 89 -37 8 -6 26 -13
40 -15 17 -2 25 -9 25 -23 0 -16 -8 -21 -39 -23 -21 -2 -43 1 -49 7 -6 6 -20
11 -32 11 -11 0 -29 10 -40 23 l-20 22 -5 -30 c-7 -40 -35 -44 -52 -8 -10 20
-21 29 -43 30 -17 1 -24 0 -17 -3 6 -3 12 -13 12 -22 0 -9 14 -28 30 -41 36
-28 39 -51 7 -51 -29 0 -100 81 -91 104 5 12 -1 16 -25 16 -35 0 -42 -22 -15
-52 16 -16 15 -18 0 -24 -10 -4 -36 3 -59 14 -49 24 -122 39 -112 23 3 -6 10
-11 16 -11 5 0 23 -13 41 -30 17 -16 41 -30 53 -30 24 0 35 -16 28 -37 -7 -20
-55 -15 -79 8 -32 30 -51 18 -59 -35 -10 -62 -35 -63 -35 -2 0 25 5 48 10 51
6 3 10 15 10 26 0 15 -7 19 -35 19 -35 0 -35 0 -35 -44 0 -47 -14 -66 -33 -47
-6 6 -29 11 -52 11 -23 0 -46 5 -52 11 -8 8 -13 5 -18 -10 -4 -14 -15 -21 -31
-21 -17 0 -24 -5 -24 -20 0 -11 -7 -20 -15 -20 -8 0 -20 9 -27 20 -7 11 -23
20 -35 20 -33 0 -28 -16 7 -29 20 -7 30 -17 30 -30 0 -28 -37 -28 -67 1 -13
12 -24 20 -26 17 -1 -2 -10 -20 -18 -39 -22 -48 -8 -86 38 -105 48 -20 63 -19
63 6 0 15 -5 19 -19 14 -25 -8 -71 11 -71 30 0 24 83 13 110 -15 30 -31 40
-32 69 -7 28 23 38 25 118 23 83 -1 88 -2 91 -23 2 -15 10 -23 23 -23 10 0 19
-4 19 -10 0 -5 10 -10 23 -10 26 0 77 -21 77 -32 0 -5 16 -8 35 -8 44 0 46 19
5 43 -43 26 -37 37 19 37 31 0 53 5 61 15 7 8 21 15 31 15 10 0 34 9 54 20 40
22 66 25 82 9 6 -6 32 -12 59 -14 27 -2 64 -7 82 -11 32 -6 99 7 132 27 17 10
68 37 117 63 18 10 35 21 37 25 3 4 55 5 116 3 101 -4 114 -3 155 19 39 21 48
22 78 11 18 -7 64 -12 101 -12 52 0 73 -5 95 -21 20 -15 39 -19 70 -17 l43 3
-22 28 c-24 30 -23 55 2 71 21 13 31 4 32 -31 1 -18 7 -29 19 -31 29 -6 76 21
88 50 9 23 18 28 45 28 18 0 36 -4 39 -10 11 -17 42 -11 48 9 3 14 15 21 43
23 30 2 40 8 42 23 2 11 7 29 12 40 4 11 11 37 14 58 4 35 3 37 -23 37 -15 0
-36 -9 -46 -20 -17 -19 -17 -21 1 -41 18 -20 18 -21 0 -34 -33 -25 -65 12 -36
41 8 8 6 15 -5 24 -22 18 -49 -5 -35 -30 22 -41 0 -91 -24 -58 -7 10 -22 14
-43 11 -24 -4 -40 2 -67 23 -20 16 -36 37 -36 47 0 14 -9 17 -50 17 -27 0 -50
4 -50 9 0 5 -15 16 -32 24 -18 9 -53 36 -78 61 -34 35 -52 46 -75 46 -21 0
-40 9 -55 25 -28 30 -50 32 -50 5 0 -45 -54 -36 -78 12 -7 15 -26 31 -42 37
-29 10 -30 9 -30 -19 0 -39 -17 -47 -46 -19 -23 22 -32 49 -16 49 4 0 13 4 21
9 11 7 9 13 -8 30 -26 26 -36 22 -44 -19 -8 -38 -23 -39 -30 -1 -9 42 -36 48
-63 14 -19 -25 -24 -26 -48 -15 -14 6 -26 20 -26 30 0 27 42 62 73 62 34 0 34
7 -4 48 -30 33 -37 34 -71 10 -13 -9 -20 -9 -32 1 -18 15 -21 47 -6 56 13 8
13 52 0 60 -6 4 -9 19 -8 33 3 25 0 27 -43 30 -33 2 -51 -2 -63 -13z m19 -70
c1 -11 9 -52 18 -90 25 -109 59 -334 51 -347 -10 -16 -34 20 -34 50 0 36 -50
294 -61 314 -5 10 -9 36 -9 59 0 32 3 40 17 37 9 -2 17 -12 18 -23z m420 -486
c4 -5 0 -18 -9 -28 -9 -10 -16 -21 -16 -24 0 -13 83 -7 116 9 19 9 41 14 49
10 51 -19 -37 -86 -114 -86 -27 0 -65 -7 -85 -15 -20 -8 -71 -18 -113 -21 -43
-3 -88 -11 -101 -17 -18 -9 -26 -7 -40 6 -31 32 -5 51 79 58 142 12 179 29
179 85 0 11 3 24 7 27 10 11 41 8 48 -4z m-479 -181 c3 -11 3 -22 0 -25 -9
-10 -36 18 -36 38 0 24 27 14 36 -13z m-53 -10 c7 -23 -5 -48 -24 -48 -25 0
-35 26 -19 45 15 18 37 19 43 3z m-653 -118 c12 -8 12 -12 0 -36 -29 -54 -72
-41 -44 14 17 34 21 37 44 22z m97 -36 c8 -21 -13 -42 -28 -27 -13 13 -5 43
11 43 6 0 13 -7 17 -16z"/>
<path d="M7340 4500 c0 -5 4 -10 9 -10 6 0 13 5 16 10 3 6 -1 10 -9 10 -9 0
-16 -4 -16 -10z"/>
<path d="M7010 4432 c0 -5 14 -21 30 -37 17 -16 30 -34 30 -39 0 -13 55 -50
88 -60 18 -6 20 -11 12 -26 -15 -27 -12 -50 5 -50 10 0 15 10 15 30 0 37 23
39 89 10 48 -22 65 -25 56 -10 -10 16 5 33 18 22 20 -16 75 -24 82 -13 10 16
25 13 25 -5 0 -9 -9 -18 -19 -21 -25 -6 -34 -71 -13 -95 17 -20 10 -48 -12
-48 -8 0 -28 17 -45 37 -35 43 -41 31 -11 -22 11 -20 20 -44 20 -55 0 -27 41
-27 65 0 23 26 24 26 62 -10 18 -17 35 -30 38 -30 3 0 23 12 44 26 32 21 43
24 60 14 24 -12 27 -30 9 -49 -11 -10 -9 -15 7 -27 11 -8 20 -23 20 -32 0 -10
9 -18 23 -20 12 -2 22 -9 22 -16 0 -7 9 -21 20 -31 31 -28 25 -45 -14 -45 -39
0 -53 -14 -36 -35 17 -21 54 -19 74 4 10 11 30 21 45 23 20 2 26 8 25 26 -1
26 15 28 63 6 29 -15 34 -21 31 -48 -2 -25 -8 -32 -30 -34 -43 -5 -29 -52 14
-52 10 0 18 -7 18 -15 0 -11 -12 -15 -44 -15 -36 0 -46 4 -51 20 -3 11 -13 20
-21 20 -38 0 5 -44 84 -86 l52 -28 22 22 c19 19 20 22 5 28 -10 4 -17 17 -17
34 0 16 -4 32 -10 35 -18 11 -12 96 8 111 34 26 49 17 56 -32 3 -26 11 -53 17
-60 17 -20 63 -17 83 5 17 19 17 21 -6 44 -12 14 -32 27 -42 29 -11 1 -21 9
-24 16 -9 28 105 2 123 -29 12 -19 25 -8 25 20 0 33 11 44 34 35 23 -9 20 -51
-4 -66 -29 -18 -26 -48 5 -48 21 0 25 5 25 30 0 36 43 71 63 51 8 -8 7 -18 -6
-40 -22 -38 -22 -41 10 -41 40 0 60 23 55 65 -2 19 -8 35 -13 35 -5 0 -9 14
-9 31 0 31 0 31 -40 25 -33 -5 -40 -3 -40 10 0 12 -7 15 -25 12 -14 -3 -30 1
-36 8 -12 14 -41 19 -51 8 -4 -3 -2 -18 2 -34 6 -21 4 -32 -5 -40 -29 -24 -65
29 -38 55 14 14 14 18 2 25 -8 5 -23 7 -35 4 -12 -3 -26 1 -34 10 -10 13 -16
14 -26 5 -8 -6 -14 -16 -14 -22 0 -20 -33 -35 -52 -24 -23 15 -35 1 -20 -23
26 -43 2 -71 -37 -44 -17 12 -21 25 -21 70 0 53 0 54 30 54 16 0 33 -7 38 -16
5 -9 14 -14 21 -10 18 12 13 26 -14 36 -13 5 -31 23 -40 40 -18 35 -22 36 -46
14 -24 -22 -49 -11 -49 21 0 21 -4 25 -31 25 -24 0 -30 -3 -25 -16 8 -21 -1
-34 -19 -27 -8 3 -15 17 -15 32 0 31 -16 51 -41 51 -10 0 -31 11 -47 25 -17
14 -36 25 -44 25 -8 0 -23 7 -34 15 -10 8 -29 15 -41 15 -13 0 -29 10 -38 23
-20 31 -90 67 -130 67 -18 0 -35 4 -37 9 -1 5 -28 12 -58 15 -111 11 -141 19
-151 38 -10 19 -81 68 -99 68 -5 0 -10 -4 -10 -8z m475 -246 c16 -12 17 -16 6
-30 -17 -20 -50 -21 -57 -1 -6 15 11 45 25 45 4 0 16 -6 26 -14z m605 -256 c0
-5 -7 -10 -15 -10 -8 0 -15 5 -15 10 0 6 7 10 15 10 8 0 15 -4 15 -10z m-5
-155 c0 -10 -5 -20 -11 -22 -13 -4 -27 24 -18 38 9 15 29 4 29 -16z"/>
<path d="M7331 4421 c-7 -5 -10 -14 -7 -20 10 -16 20 -14 34 9 10 16 10 20 0
20 -7 0 -19 -4 -27 -9z"/>
<path d="M9565 4381 c-6 -5 -25 -11 -44 -13 -44 -4 -55 -28 -12 -28 16 0 33 5
36 10 3 6 19 10 36 10 19 0 29 5 29 15 0 17 -31 20 -45 6z"/>
<path d="M9410 4335 c0 -19 5 -35 10 -35 6 0 10 4 10 9 0 5 7 17 16 25 18 19
10 36 -17 36 -15 0 -19 -7 -19 -35z"/>
<path d="M8467 4213 c-4 -3 -7 -15 -7 -25 0 -10 -4 -18 -10 -18 -19 0 -10 -37
15 -60 17 -16 24 -32 22 -53 -2 -24 4 -33 27 -46 29 -17 40 -30 50 -63 7 -23
25 -23 33 -2 4 10 -1 22 -10 29 -10 7 -17 19 -17 27 0 8 -11 24 -25 36 -15 13
-27 37 -31 62 -4 22 -11 43 -15 46 -5 3 -9 21 -9 40 0 32 -8 42 -23 27z"/>
<path d="M7224 4176 c-17 -13 -18 -16 -3 -31 14 -14 17 -14 33 4 10 11 15 25
11 30 -8 15 -17 14 -41 -3z"/>
<path d="M8396 4064 c-17 -43 6 -107 54 -150 14 -12 21 -26 17 -30 -4 -5 -12
-2 -16 5 -11 18 -31 5 -31 -20 0 -16 7 -19 44 -19 35 0 45 4 49 20 6 24 35 26
63 5 26 -20 56 -19 52 1 -2 11 -17 18 -48 20 -62 6 -70 10 -70 38 0 16 -11 32
-30 46 -17 12 -30 31 -30 43 -1 25 -22 57 -38 57 -5 0 -13 -7 -16 -16z"/>
<path d="M10770 3990 c0 -5 -13 -10 -29 -10 -17 0 -33 -4 -36 -10 -3 -5 -19
-10 -35 -10 -16 0 -32 -4 -35 -10 -3 -5 -15 -10 -25 -10 -10 0 -25 -9 -34 -21
-10 -14 -20 -19 -34 -15 -25 8 -38 -10 -22 -29 22 -26 63 -18 100 20 25 26 42
35 66 35 18 0 36 5 39 10 3 6 16 10 29 10 24 0 61 32 49 43 -10 11 -33 8 -33
-3z"/>
<path d="M7583 3926 c-7 -8 -17 -16 -24 -18 -7 -2 -9 -10 -5 -17 6 -10 12 -9
26 4 15 14 18 14 30 0 17 -20 27 -19 33 5 3 13 -1 24 -13 30 -24 13 -32 12
-47 -4z"/>
<path d="M10110 3910 c0 -5 9 -10 20 -10 11 0 20 5 20 10 0 6 -9 10 -20 10
-11 0 -20 -4 -20 -10z"/>
<path d="M10838 3913 c7 -3 16 -2 19 1 4 3 -2 6 -13 5 -11 0 -14 -3 -6 -6z"/>
<path d="M10771 3886 c-7 -8 -23 -17 -37 -20 -14 -4 -22 -11 -19 -16 4 -6 14
-5 28 2 12 6 28 14 36 18 17 8 27 30 13 30 -5 0 -15 -6 -21 -14z"/>
<path d="M10675 3870 c-3 -5 1 -10 10 -10 9 0 13 5 10 10 -3 6 -8 10 -10 10
-2 0 -7 -4 -10 -10z"/>
<path d="M7556 3801 c-8 -13 39 -41 69 -41 30 0 32 11 7 33 -20 18 -67 23 -76
8z"/>
<path d="M10495 3779 c-5 -7 5 -8 32 -3 51 9 54 14 10 14 -20 0 -39 -5 -42
-11z"/>
<path d="M7717 3734 c-8 -8 1 -24 14 -24 5 0 9 7 9 15 0 15 -12 20 -23 9z"/>
<path d="M10320 3715 c0 -8 7 -15 15 -15 8 0 15 7 15 15 0 8 -7 15 -15 15 -8
0 -15 -7 -15 -15z"/>
<path d="M10551 3686 c-25 -25 -42 -48 -39 -51 3 -3 11 1 18 10 7 8 19 15 26
15 8 0 14 4 14 9 0 5 7 17 16 25 8 9 14 21 12 26 -2 6 -23 -10 -47 -34z"/>
<path d="M10396 3675 c-3 -8 -1 -15 4 -15 6 0 10 7 10 15 0 8 -2 15 -4 15 -2
0 -6 -7 -10 -15z"/>
<path d="M10738 3663 c7 -3 16 -2 19 1 4 3 -2 6 -13 5 -11 0 -14 -3 -6 -6z"/>
<path d="M9620 3648 c-19 -5 -82 -14 -140 -19 -73 -7 -113 -15 -130 -28 -14
-10 -44 -20 -68 -24 -24 -3 -51 -12 -60 -20 -9 -9 -30 -17 -47 -19 -32 -3 -41
-26 -15 -38 8 -4 25 -12 37 -18 47 -24 116 1 140 50 16 33 39 52 55 45 7 -3
23 -32 36 -66 13 -33 30 -61 37 -61 7 0 20 16 30 36 18 38 31 36 37 -6 2 -20
9 -26 36 -28 28 -3 32 0 32 21 0 28 24 53 61 62 36 9 46 -11 22 -38 -41 -46
-37 -78 6 -49 14 10 38 24 54 32 19 9 27 21 27 40 0 14 4 30 9 36 6 5 -5 25
-27 50 -41 45 -77 57 -132 42z"/>
<path d="M9780 3641 c0 -13 60 -45 68 -36 3 3 1 14 -4 23 -12 19 -64 29 -64
13z"/>
<path d="M10663 3635 c-22 -25 -14 -34 17 -18 17 8 28 19 25 24 -9 13 -28 10
-42 -6z"/>
<path d="M10230 3580 c0 -11 5 -20 10 -20 6 0 10 9 10 20 0 11 -4 20 -10 20
-5 0 -10 -9 -10 -20z"/>
<path d="M10365 3580 c-4 -6 -3 -16 3 -22 6 -6 12 -6 17 2 4 6 3 16 -3 22 -6
6 -12 6 -17 -2z"/>
<path d="M10550 3580 c0 -5 5 -10 10 -10 6 0 10 5 10 10 0 6 -4 10 -10 10 -5
0 -10 -4 -10 -10z"/>
<path d="M10302 3560 c0 -14 2 -19 5 -12 2 6 2 18 0 25 -3 6 -5 1 -5 -13z"/>
<path d="M9948 3563 c-11 -3 -18 -14 -18 -29 0 -34 37 -33 50 2 15 37 13 39
-32 27z"/>
<path d="M8887 3534 c-4 -4 -4 -18 0 -32 4 -18 2 -23 -8 -20 -8 3 -13 13 -13
22 3 31 -35 18 -45 -16 -5 -18 -10 -27 -10 -20 -1 6 -9 12 -19 12 -10 0 -23 5
-29 11 -6 6 -16 8 -22 5 -15 -9 -14 -39 1 -54 14 -14 78 -16 78 -2 0 6 7 10
15 10 22 0 18 -34 -5 -55 -23 -21 -26 -45 -6 -45 8 0 21 -9 29 -20 11 -16 21
-19 41 -14 19 5 27 2 33 -12 4 -10 2 -19 -5 -22 -7 -2 -12 -19 -12 -38 0 -32
2 -33 29 -28 16 3 37 1 48 -4 13 -8 22 -7 36 5 16 15 18 15 31 -2 12 -17 16
-17 52 -3 38 15 58 38 33 38 -7 0 -26 12 -41 27 -30 29 -36 67 -14 96 19 25
41 21 62 -10 33 -52 88 -103 110 -103 12 0 24 -7 28 -15 5 -15 56 -22 56 -8 0
4 -9 17 -21 29 -22 23 -19 44 7 44 8 0 17 -7 20 -15 4 -8 12 -15 19 -15 7 0
15 7 19 15 6 17 32 20 41 4 4 -6 7 -26 8 -45 1 -24 5 -33 14 -30 21 8 43 -5
43 -25 0 -10 7 -19 15 -19 23 0 19 63 -4 84 -11 10 -21 30 -23 45 -3 22 -8 26
-38 29 -19 1 -45 8 -57 14 -17 8 -26 8 -37 -1 -11 -10 -19 -9 -35 1 -37 23
-25 38 28 38 58 0 73 14 56 53 -10 25 -13 26 -24 13 -11 -13 -35 -16 -112 -16
-54 0 -101 4 -104 10 -3 6 -15 10 -26 10 -13 0 -19 7 -19 24 0 22 -4 24 -34
23 -27 -2 -36 -7 -41 -24 -4 -16 -13 -23 -30 -23 -33 0 -32 23 3 48 24 19 25
21 9 28 -10 3 -29 1 -43 -6 -19 -11 -27 -11 -36 -2 -13 13 -41 16 -51 6z m138
-275 c19 -19 19 -19 -28 -19 -34 0 -49 4 -54 16 -14 37 44 39 82 3z"/>
<path d="M9816 3511 c-23 -25 -17 -55 12 -59 20 -3 22 1 22 37 0 45 -8 51 -34
22z"/>
<path d="M10267 3513 c-10 -9 -8 -43 2 -43 5 0 11 11 13 25 5 24 -2 32 -15 18z"/>
<path d="M10332 3508 c-6 -6 -12 -18 -12 -26 0 -10 3 -10 16 2 8 9 14 21 12
26 -2 7 -8 6 -16 -2z"/>
<path d="M8391 3480 c-73 -4 -85 -8 -91 -26 -5 -11 -4 -27 0 -35 7 -11 13 -9
33 9 13 12 29 22 35 22 17 0 15 -35 -3 -50 -12 -10 -13 -16 -4 -27 17 -20 33
-11 39 23 3 19 12 30 25 32 32 5 65 24 65 38 0 19 -6 20 -99 14z"/>
<path d="M10465 3440 c3 -5 11 -10 16 -10 6 0 7 5 4 10 -3 6 -11 10 -16 10 -6
0 -7 -4 -4 -10z"/>
<path d="M8504 3429 c-3 -6 -15 -9 -25 -6 -16 4 -19 -1 -19 -34 0 -27 4 -39
14 -39 8 0 17 4 21 10 3 5 30 9 60 9 40 -1 58 -6 71 -20 22 -24 31 -24 60 4
29 27 30 33 3 47 -16 9 -26 8 -44 -4 -26 -17 -35 -12 -35 21 0 21 -2 22 -20
11 -15 -10 -22 -10 -32 0 -15 15 -45 16 -54 1z"/>
<path d="M10143 3381 c-7 -12 -13 -29 -13 -38 0 -16 1 -16 16 -1 9 8 14 25 12
37 -3 22 -3 22 -15 2z"/>
<path d="M8776 3314 c-11 -28 -6 -40 25 -63 24 -18 33 -20 45 -10 20 16 13 32
-17 39 -15 4 -25 14 -27 28 -4 26 -17 29 -26 6z"/>
<path d="M9613 3293 c11 -62 68 -113 128 -113 29 0 46 -14 29 -25 -5 -3 -10
-13 -10 -21 0 -17 31 -19 48 -2 8 8 15 8 27 -2 12 -10 15 -10 15 4 0 9 -7 16
-15 16 -24 0 -105 92 -99 112 6 20 -14 34 -28 20 -6 -6 -5 -17 3 -31 11 -16
11 -23 1 -33 -9 -9 -18 -6 -41 16 -17 16 -31 38 -33 49 -2 11 -9 22 -16 25 -7
2 -11 -3 -9 -15z"/>
<path d="M10130 3242 c0 -14 11 -21 26 -15 21 8 17 23 -6 23 -11 0 -20 -4 -20
-8z"/>
<path d="M9655 3119 c-4 -5 -19 -8 -33 -5 -36 8 -59 -6 -38 -23 10 -8 16 -9
21 -1 8 13 52 13 60 -1 7 -11 45 16 45 33 0 12 -48 10 -55 -3z"/>
<path d="M9780 3076 c0 -9 5 -16 10 -16 6 0 10 4 10 9 0 6 -4 13 -10 16 -5 3
-10 -1 -10 -9z"/>
</g>
</svg>
