<?xml version="1.0" encoding="UTF-8"?>
<!DOCTYPE svg  PUBLIC '-//W3C//DTD SVG 20010904//EN'  'http://www.w3.org/TR/2001/REC-SVG-20010904/DTD/svg10.dtd'>
<svg width="2622pt" height="2996pt" version="1.0" viewBox="0 0 2622.000000 2996.000000" xmlns="http://www.w3.org/2000/svg">
<metadata>Created by potrace 1.15, written by Peter Selinger 2001-2017</metadata>
<g transform="translate(0 2996) scale(.1 -.1)">
<path d="m12112 28775c-24-13-92-82-92-94 0-3-17-23-37-45-63-66-98-126-74-126 5 0 7-9 4-20s-12-20-19-20c-26 0-14-30 14-36 15-4 34-12 42-19s41-27 73-45c31-17 57-36 57-41s3-8 8-7c18 5 52-15 58-35 4-12 7-66 7-120v-99l79-61c46-35 81-71 84-84 4-16-4-45-26-88-18-35-30-71-27-79s22-22 42-32c20-9 39-23 42-30 2-7 17-16 32-19 16-3 37-17 49-30 12-14 54-34 106-51 79-26 88-32 106-66 11-21 20-49 20-62 0-29 27-54 67-62 25-5 33-2 42 15 7 12 19 21 27 21 18 0 159-112 214-170 45-47 61-75 54-95-3-8-1-15 5-15s11-7 11-15c0-31 30-73 56-79 14-4 38-19 52-33 23-23 34-26 94-26 40 1 80 7 99 17 18 9 42 16 54 16 11 0 26 5 32 11 9 9 18 8 37-4 13-9 40-16 59-15 32 1 107-34 107-50-1-30-28-40-160-60-43-7-45-8-45-41 0-31 4-36 33-43 27-7 32-13 32-37 0-27 21-57 32-46 2 3 22-4 43-15 22-11 35-20 30-21-6 0-1-4 10-8 11-5 45-5 75 0s93 13 140 19 101 16 120 23c44 15 107 63 113 87 7 29 55 31 84 4l25-24-21-45c-28-59-28-129-1-152 11-10 20-25 20-33 0-19 40-60 58-60 7 0 12-4 12-8 0-5 18-15 40-22s40-17 40-22c0-4 7-8 15-8s15-6 15-13c0-20 33-47 58-47 13 0 22 8 25 23l4 22 2-23c0-13-4-32-9-43-8-15-7-19 5-19 21 0 19-17-10-75-13-27-25-61-25-75 0-15-5-31-11-37-15-15 6-99 32-129 11-11 19-26 19-32 0-7 7-12 15-12s15-6 15-13 9-19 20-27 20-21 20-28 20-34 45-59c25-24 45-53 45-63s5-22 10-25c6-3 10-14 10-24s9-26 20-36 24-32 28-49c5-18 21-39 40-51 17-11 31-26 32-32 0-7 4-13 8-13 16 0 30-47 38-119 6-64 5-71-12-78-55-20-57-54-6-108 50-52 80-148 85-268 2-59 8-92 18-102 8-7 67-41 132-75 109-56 120-60 131-44 9 11 18 14 27 8 8-4 27-7 42-5 15 1 33-2 40-7s41-12 76-16c35-3 77-13 94-21 47-23 67-20 68 13 1 15 2 55 3 88 1 40 7 67 17 77 13 12 15 31 11 92s-2 78 11 88c8 7 20 30 26 51 8 32 8 43-4 56-17 19-20 40-6 40 5 0 11-6 14-12 2-7 4 3 4 22 1 19 4 49 8 65 5 24 2 35-19 54-34 32-34 68-1 83 31 14 39 44 31 109-6 46-5 51 22 74 30 25 48 84 30 96-5 3 1 18 14 32 19 22 28 25 55 19 40-9 83-46 83-71 0-24 21-73 35-83 6-5 4-17-6-35-9-15-22-45-28-65-11-34-10-40 12-64 21-22 31-26 71-23 44 4 46 3 46-23 0-18 7-29 20-33 11-3 20-12 20-19s-9-21-20-31-20-26-20-36-4-21-10-24c-5-3-10-22-10-41 0-32 2-34 33-34 29 0 35-5 47-35 10-26 20-35 36-35 19 0 24-7 29-37 3-21 12-56 19-78 13-39 12-45-15-104-16-35-29-75-29-90 0-48 13-56 89-53 39 1 74 3 78 4 5 1 33-3 63-9 164-34 250-42 250-25 0 14 48 32 85 32 19 0 35 3 35 8 0 4 39 8 88 10 48 1 89 7 90 12 2 6 12 10 22 10 9 0 23 7 30 15s17 15 23 15 21 9 33 21l23 21 22-21c28-26 119-31 119-6 0 11-11 15-36 15-27 0-37 5-41 20-3 11-11 20-18 20-6 0-20 9-30 20-29 32-53 25-83-25-15-24-32-43-38-40-7 2-22-7-35-21-18-19-32-24-75-24-29 0-56 5-59 10-9 15-36 12-50-6-6-9-29-17-51-19-51-4-97-22-89-35 9-14-17-12-67 4-24 8-68 17-98 20-90 10-163 25-169 34-3 5-18 12-33 16-22 5-26 10-19 24 44 90 43 87 31 148-23 116-49 166-93 180-16 5-18 13-15 50 2 32-1 44-10 44-10 0-12 8-6 33 15 57 9 92-21 129-26 32-31 35-59 27-42-12-44-12-61 15-14 21-14 28-2 58 23 55 30 108 14 108-7 0-18 15-25 33-15 41-15 60-2 52 14-9 12 17-3 36-14 18-90 39-141 39-47 0-90-49-84-97 3-25 0-34-14-38-35-12-79-115-48-115 19 0 10-45-14-67-13-13-26-35-29-50-6-32 2-93 13-93 4 0 11-10 17-23 8-18 7-31-8-57-22-42-24-70-5-95 15-21 11-40-13-68-9-11-16-40-17-73-1-30-10-103-20-164l-18-110-41 7c-22 3-42 9-45 13-3 3-23 7-45 8s-66 8-98 14c-48 9-61 8-67-3-7-11-13-11-37 0-65 31-111 56-155 85-42 27-47 34-54 80-5 28-7 66-5 83 1 18-3 50-9 70-11 36-19 56-55 136-14 32-20 63-15 82 4 13 10 64 11 95 2 47-28 138-59 181-18 24-32 48-32 54 0 7-18 31-40 55s-40 49-40 56-5 16-11 20-9 19-5 36c6 30 2 36-75 105-13 12-40 42-58 67-19 24-38 43-42 40-4-2-13 4-20 13-12 15-12 16 4 10 10-4 16-3 13 2-36 57-34 105 5 187 31 66 36 93 18 111-5 5-11 24-11 40-1 22-9 34-32 48-17 10-40 18-51 16-11-1-36 12-55 29s-45 33-57 36c-25 7-61 51-86 106-16 34-16 40-2 67 22 43 20 124-3 144-23 21-93 22-130 3-15-8-40-31-57-51-41-51-79-64-220-77l-122-11-57 27c-31 15-58 32-60 39s-8 27-14 45c-9 30-9 32 12 32 103 0 230 117 149 136-16 4-49 17-74 30-81 40-237 44-275 7-9-10-38-18-68-21-49-4-53-2-91 36-22 23-42 36-46 31-4-7-13-4-23 7-14 14-15 19-4 26 10 7 10 11-4 22-10 7-18 19-18 25 0 19-31 74-51 92-10 9-23 28-28 42-7 19-15 25-27 20-10-4-20 0-26 11-5 9-21 21-34 27-15 5-22 14-18 21s3 8-4 4c-6-3-16 3-22 14s-15 18-19 15c-5-2-15 3-22 12-10 12-10 14-1 9 16-10 15 14-2 37-20 26-46 21-88-20-36-35-37-36-63-19-14 9-23 21-20 27 4 5-3 34-15 63-16 38-32 58-56 71-19 10-37 15-41 12-3-4-12 1-20 11-8 9-12 11-8 5 9-19 2-16-55 22-29 19-58 35-66 35s-14 4-14 9-13 14-29 21c-45 18-74 54-63 76 17 33 32 90 32 120 0 33-24 74-44 74-8 0-36 21-64 48l-49 47-7 102c-3 56-9 109-12 117-4 9-54 43-113 76-155 86-147 78-119 126 47 82 168 220 204 233 33 12 37 11 74-21 21-18 39-38 39-45 1-6 9-18 19-25 9-7 18-20 20-28 6-26 33-35 90-30 31 2 139-51 181-90 28-27 33-36 28-64-5-29 0-39 32-70 20-20 42-36 48-36s16-7 23-15c7-9 15-13 18-11 2 3 15-8 28-24 17-19 38-30 67-35 23-4 51-12 62-19s40-18 65-25c162-48 225-74 233-96 4-8 25-26 49-41s45-30 48-33c19-22 75-50 135-65 39-10 79-27 91-37 11-11 24-19 28-19 8 0 75-59 121-106 50-52 64-56 193-48 109 6 120 5 157-16 22-12 54-35 70-51 17-16 35-29 39-29 5 0 15-8 21-17 10-14 30-18 89-19 42-1 79 2 82 7 9 16 250 10 318-7 80-20 148-43 161-54 6-5 52-14 103-21l93-12 47 34c25 18 54 41 63 50 21 21 96 71 134 89 17 8 38 21 48 29 16 13 16 12 1-18-22-45-12-117 18-124 26-7 62 18 135 93 29 30 53 49 53 42 0-8 11 0 25 16 26 31 33 48 15 37-24-15-7 5 25 29 29 22 41 26 71 20 20-4 45-15 56-26 18-18 18-19-2-58-20-40-27-110-11-110 22 0 16-33-20-104-21-43-39-84-39-91s-7-18-15-25-15-21-15-31c0-11-20-43-44-73-33-41-45-65-50-104-7-55 7-134 30-169 7-12 14-29 14-36 0-32 36-47 126-53 49-3 93-9 99-14 15-13 192-15 207-2 7 5 41 21 74 35l61 25-23-42c-13-22-24-57-24-77 0-21-7-42-16-49-8-8-14-25-12-39 3-21 10-27 46-34 39-8 47-6 70 16 106 99 110 102 191 105 55 2 72 0 61-7-18-13-12-13 73-1 49 7 81 19 112 40 24 17 53 30 64 30 12 0 20 4 18 9-4 17 158 157 208 177 43 18 60 20 120 13 39-4 88-6 110-3 30 3 35 2 20-5-18-9-19-10-2-10 11-1 34 6 53 15s37 14 40 11-24-61-60-130c-36-68-66-129-66-136 0-18 28-13 39 8 6 10 23 21 38 24 91 19 152 35 178 46 19 9 78 14 162 15 118 1 134 3 161 23 24 18 44 21 128 23 54 1 140-3 189-10 85-12 95-12 160 8 39 12 93 25 120 28 28 4 60 13 73 21s31 11 42 8c16-5 17-11 9-38-5-17-9-51-9-74 0-35 7-49 37-83 23-25 46-40 61-40 25 0 63 17 73 33 4 5 12 0 18-12 10-18 8-27-9-50-11-16-20-34-20-40s-7-11-15-11c-18 0-20 16-2 23 9 4 9 6-1 6-7 1-17-10-24-24-6-13-24-29-40-34-50-18-67-48-66-115 1-49-3-63-21-77-38-31-57-119-25-119 9 0 50 16 92 36 101 48 136 44 196-20 23-25 47-46 53-46s30-16 54-35 54-35 67-35c12 0 25-7 28-15 8-19 34-20 34-1 0 12 4 12 28 1 19-10 83-14 229-16l201-3 36 27c19 15 38 27 42 27s14 7 23 15c58 53 92 75 115 75 8 0 21 6 28 13 31 31 60 37 186 37 103 0 132 3 142 15 7 8 20 15 30 15 9 0 37 13 61 30 24 16 55 30 68 30 35 0 91 22 91 36 0 6 20 19 45 29 48 18 75 10 75-23 0-20 36-49 71-57 16-4 31-11 34-16 8-12 147-12 181 1 19 7 30 7 40-1 20-17 17-29-7-29-11 0-17-4-14-10 4-6-3-82-15-169s-20-176-18-197l3-39 102-1c81-1 107-5 130-19 22-15 50-19 126-21l98-3 34 38c19 21 39 50 45 65 11 29 5 86-12 119-5 9-6 23-2 29 5 8 10 5 15-8 6-15 8-12 8 13 1 38-33 133-66 186-16 25-22 45-17 59 4 14 2 18-5 14-26-17-8 32 20 53 26 19 38 22 80 16 40-6 50-4 55 9 3 9 11 15 18 14 6-2 12 1 13 6s6 12 12 16c6 3 19 29 29 57 16 44 52 98 52 77 0-5 5-3 12 4 15 15 158 16 192 1 19-9 32-8 66 7 42 19 42 19 37 63-3 27-2 38 4 30 7-11 9-9 9 6 0 13 21 35 58 62 31 24 88 72 126 107 38 36 81 68 97 71 39 9 111 101 139 178 5 15 16 27 24 27 29 0 65-23 68-44 9-63 76-4 182 160l71 111 95-4c52-3 113-4 135-4s49-6 59-14c19-14 19-19 6-81-13-66-12-67 11-85 13-10 29-19 35-19 14 0 44-16 101-53 24-15 45-27 49-27 3 0 18-8 32-19 15-10 42-22 60-26 26-5 112-65 158-110 21-20 54-102 60-149l7-49-28 7c-19 5-30 2-39-9-9-12-35-18-94-22-46-3-85-10-88-14-3-5-15-9-28-9-26 0-46-17-46-41 0-11 25-25 86-48 47-17 92-31 100-31s14-4 14-10c0-5 15-13 33-18 35-9 35-11 21-105-8-60 11-159 42-212s80-105 99-105c8 0 15-4 15-8 0-17 121-71 161-72 8 0 32-16 53-35s43-35 48-35c6 0 22-8 36-19 21-14 54-20 142-25 63-4 120-12 127-18s13-7 13-4c0 4 28-8 63-27 56-30 74-35 158-39 109-6 144-22 158-73 5-18 29-51 55-75 25-23 46-50 46-60s7-23 15-30c20-17 10-30-25-30-19 0-35-9-49-26-11-14-25-23-31-19s-17 1-26-5c-20-17-91-6-125 19-54 40-149 20-149-31 0-18-83-98-102-98-21 0-78-45-78-62 0-23 10-27 77-38 38-7 69-19 94-40 21-16 42-30 47-30 15 0 22-27 22-80 0-30 5-52 15-60 8-7 15-18 15-26 0-7 9-19 20-27 11-7 33-43 49-79 31-68 44-83 76-91 46-11-86-5-155 7-41 7-90 11-107 9-28-5-33-9-33-33 0-19 7-30 25-38 14-6 25-18 25-27 0-8 3-15 8-15 4 0 16-16 26-35 11-19 23-35 28-35 4 0 8-6 8-14 0-13 71-66 88-66 11 0 52-44 52-56 0-10 81-64 97-64 6 0 18-11 27-25s28-28 42-31c22-6 25-11 22-36-3-16 1-33 8-39s16-31 20-55c3-24 10-44 15-44s9-5 9-10c0-6 11-28 25-50 23-37 24-42 13-91-12-51-12-52 17-75 88-70 92-78 103-206 6-62 11-117 13-123 6-24-52-109-65-94-31 36-66 97-66 114 0 12-7 41-15 64s-10 39-5 36c6-3 10 0 10 7 0 16-47 61-75 72-41 17-152 31-200 25-31-3-59-1-75 7-14 7-54 27-90 44-82 41-97 53-104 95-7 36-31 51-76 46-54-5-67-20-90-107-15-55-28-84-37-84-8 0-11-5-8-11 4-5-10-3-32 6-21 9-44 19-50 22-13 5-100 121-122 162-11 19-18 22-44 17-46-9-121 32-197 106-35 35-76 72-91 83-14 11-57 46-95 78-37 31-76 57-86 57-16 0-22 13-21 48 1 8-17 12-57 12-64 0-134 21-165 49-24 22-64 34-125 37-101 5-149 13-178 28-28 14-87 30-157 41-29 4-58 16-76 32-22 19-138 63-165 63-13 0-26 5-30 11-3 6-19 9-35 5-16-3-42-3-59 1-28 5-30 8-30 54 0 41-5 53-27 72-14 12-39 34-55 50-16 15-32 27-37 27-4 0-16 9-26 20-13 14-29 20-49 18l-31-3-9-92c-5-51-12-93-16-93s-22-10-41-23c-34-23-99-40-196-52-29-4-55-11-58-15-14-22-175 31-175 58 0 8-10 35-23 61-13 25-32 70-43 100-10 29-26 56-34 58-17 5-53 20-87 36-12 5-34 27-48 49-14 21-29 38-34 38-4 0-23-13-42-29-18-16-37-28-40-25-4 2-10 0-14-6-7-12-65-14-65-2 0 15-168 37-193 25-12-6-42-16-66-23-25-6-54-18-65-25-23-14-139-27-227-25-47 1-62-3-87-25-16-14-39-25-51-25s-21-4-21-10c0-5-25-10-56-10-69 0-143-17-169-40-11-9-28-20-39-24-26-9-17-55 33-161 23-47 41-100 41-119 0-18 9-58 19-88l19-55-49-23c-75-36-84-49-69-110 7-27 10-56 7-64-7-17 30-29 37-12 3 6 5 5 5-3 1-8 11-25 23-38 17-18 22-38 26-105 3-65 10-93 30-130 15-26 24-49 22-52-3-2-27 0-54 5-26 5-52 6-57 3s-16 2-25 10c-9 9-19 14-24 11s-16 11-26 30c-9 20-31 47-49 61-37 28-47 30-38 8 5-14 3-14-13-5-34 19-61 47-67 67-3 10-9 30-12 43-5 16-4 21 4 17 16-10 14-2-6 21-10 11-23 18-29 16s-23 8-38 22-39 25-55 25c-24 0-32-8-56-55-22-44-27-65-23-99 5-39 3-43-13-39-11 3-19 9-19 14s-11 9-24 9c-14 0-27 4-30 9s-29 11-58 15c-124 14-153 21-150 36 2 8 0 12-3 8-4-4-24 4-44 17-19 14-41 25-47 25s-29 13-50 28c-50 36-63 41-158 58-43 7-87 20-96 29-9 8-22 15-28 15-7 0-12 10-13 23-1 47-89 89-182 86-34-2-56 7-112 41-83 51-157 106-168 126-10 17-43 19-45 2-17-138-19-201-9-283 2-22-45-43-98-44-44-1-98 29-106 59-3 14-11 24-17 23-6-2-23 12-38 30-15 17-30 32-33 32-11 1-71 39-71 46 0 3-10 4-23 2-15-3-34 4-54 21-17 14-37 26-45 26s-25 12-39 27c-13 14-18 23-11 19 6-4 12-5 12-2 0 12-44 28-88 33-26 2-51 9-56 14-13 12-59 12-51-1 3-5-27-7-80-3-71 5-85 4-85-9 0-12 30-17 148-28 146-13 147-13 180-47 19-18 40-33 48-33 7 0 24-11 38-25s35-25 48-25 47-16 75-35c29-19 57-35 63-35 5 0 10-11 10-25s6-25 13-25c6 0 24-13 39-29 34-36 134-60 174-42 14 6 40 11 59 11 30 0 35 3 35 23 0 13-6 29-12 36-14 13-18 182-5 214 6 15 13 13 69-21 35-22 83-53 108-69 58-39 114-57 136-45 36 20 144-39 144-79 0-10 5-19 12-19 6 0 19-7 28-15s54-22 101-31c64-12 101-26 157-60 40-24 76-44 79-44s20-10 37-23c30-23 131-47 194-47 17 0 34-4 37-10 3-5 15-10 26-10s27-7 35-15c9-9 34-15 60-15 41 0 44 2 44 26 0 14-4 33-9 43-11 20 7 83 31 107 13 13 17 13 29 2 8-7 26-21 40-30 19-12 30-32 39-67 7-28 16-51 21-51 4 0 19-11 33-25 15-15 37-25 53-25 36 0 47-8 63-46 20-45 39-53 131-55 61-1 92-7 117-20 49-28 59-13 19 30-68 72-77 92-78 177s-10 118-39 149c-11 11-26 40-34 63-14 38-14 43 0 49 8 3 13 12 10 20-4 8 4 17 22 24 68 24 72 29 72 85 0 35-5 58-16 69s-18 40-21 83c-3 41-13 79-24 98-11 17-19 45-19 61s-4 33-10 39-5 17 5 31c12 17 30 22 92 28 43 4 96 16 117 26 22 10 46 19 53 19s23 10 35 22c18 18 34 22 97 23 104 3 202 16 226 30 51 30 105 39 164 27 31-7 94-12 140-12 68 0 88 4 112 21l30 21 35-36c19-20 42-36 50-36s22-4 32-9c9-5 24-12 32-14 8-3 23-27 33-53 10-27 30-72 43-99 13-28 24-56 24-64 0-23 43-50 99-62 56-11 181-5 211 11 9 5 39 10 66 13 51 4 120 33 163 68 22 18 23 23 12 41-8 14-10 36-6 69 7 48 24 77 26 42 0-16 1-16 8 1 7 18 11 17 43-17 20-20 39-37 43-37 3 0 17-12 30-26 20-21 25-38 25-75 0-27 1-49 3-49 1 0 41-5 87-10 89-11 210-51 230-76 7-8 21-14 31-14 11 0 19-4 19-9s26-12 58-16c31-3 80-14 107-25 66-25 83-29 189-39 83-8 90-11 117-42 28-33 32-34 111-38 49-2 91-9 103-17 11-8 27-14 37-14s18-7 18-15 3-15 8-15c14 0 216-169 227-190 31-58 193-157 242-147 12 2 24-2 27-9s28-44 55-82c40-55 61-74 100-91 67-28 104-27 125 4 9 13 16 31 16 39 0 25 34 126 42 126 4 0 11 0 14-1 4 0 10 4 14 10 12 21 37 1 49-38 13-44 17-48 86-84 120-62 143-70 199-63 90 12 151-2 197-43 36-32 41-42 46-91 3-44 12-65 42-105 21-28 41-60 45-73 4-12 13-22 19-22 24 0 83 48 102 83 17 32 17 42 7 104-6 37-14 101-18 142-6 83-30 130-83 162-30 18-31 20-25 77 6 52 3 63-20 100-14 23-26 46-26 52 0 5-5 10-11 10s-9 8-7 18c2 9-4 36-14 60s-18 52-18 62c0 11-10 25-22 31-26 14-105 78-154 125-18 17-58 46-89 65-35 21-67 50-83 77-15 23-39 57-54 75-15 17-26 32-25 33s53-4 116-11c62-7 129-11 148-8 29 5 34 9 29 27-3 12-6 27-6 34 0 6-8 12-18 12-25 0-45 25-72 87-12 28-33 61-46 74-13 12-24 28-24 35 0 6-7 17-15 24-10 9-15 32-15 76 0 51-3 64-16 64-8 0-32 14-53 31-25 20-55 33-86 37-27 4-50 12-52 18-6 17 27 26 43 13 10-8 14-8 14 0 0 16 32 51 47 51 7 0 13 7 13 16 0 8 4 13 9 10 5-4 12 7 16 23 3 16 15 37 26 47 17 15 24 16 39 6 11-7 26-12 34-12s16-6 18-12c3-9 35-14 100-16 89-4 97-2 107 17 7 12 19 21 27 21s12 4 9 10c-3 5 2 9 12 8 43-3 51 2 55 37 3 25-1 40-14 52-10 9-18 25-18 35s-22 40-50 65c-27 25-50 54-50 63 0 20-34 51-73 68-15 7-64 12-107 12-47 0-80 4-80 10s-7 10-16 10-28 9-43 20c-37 26-108 49-151 49-19 0-60 0-90 1-62 0-96 14-171 70-30 23-65 40-79 40s-30 4-36 9c-5 5-26 14-46 21-21 6-38 15-38 18 0 4-14 13-32 21-32 14-78 61-111 112-39 60-57 216-27 234 4 2 5 19 1 37-9 43-46 66-179 109-72 23-73 24-40 31 18 4 44 5 56 2 15-3 21-1 17 6-4 6 5 10 22 10 16 0 53 6 82 14 50 13 54 13 58-5 6-23 31-25 40-3 10 27-17 187-40 232-30 62-129 152-167 152-9 0-45 17-81 39-35 21-101 56-146 77-55 26-82 45-83 56 0 9 4 19 9 22s7 28 6 55c-4 80-10 83-199 89l-162 4-93-141c-51-78-95-141-98-141s-13 10-22 22c-13 15-32 22-72 26-52 4-56 3-67-22-7-15-12-31-12-37 0-5-5-15-10-22-6-7-26-33-45-58-20-25-50-51-70-59-19-8-35-17-35-22 0-4-4-8-8-8s-32-23-62-51c-61-56-142-113-178-124-21-6-23-12-21-66 1-32 0-62-4-65-3-4-44-6-89-4-79 2-159 3-185 1-18-1-63-49-63-67 0-24-39-93-59-103-22-12-31-5-31 26 0 19-5 23-32 22-29 0-40-9-80-64-41-54-48-71-48-109 0-28 8-60 22-83 24-43 36-88 48-183 4-36 11-72 15-82 7-17-16-70-44-98-29-31-54-38-106-30-27 4-53 6-57 3-10-5-50 22-43 29 6 5-79 23-156 33-45 6-47 7-53 45-8 50 10 174 35 247 36 105 21 141-54 129-96-16-140-18-160-9-12 6-35 17-52 24-38 18-55 34-55 53 0 28-30 47-64 41-52-10-90-27-116-52-14-12-47-27-73-32-26-4-53-14-61-20-8-7-40-25-72-41-55-29-64-30-183-30-92 0-133-4-151-15-14-8-38-21-55-29-16-8-34-18-38-23-5-4-12-8-15-8-4 0-32-19-63-43-30-23-71-45-89-49-28-5-30-8-15-13 11-4-44-10-120-13-86-4-143-3-149 3-14 14-50 12-64-2-9-9-13-8-17 5-4 9-24 19-48 23-23 3-52 13-64 21s-31 12-41 9c-12-4-24 0-32 10-8 8-31 24-52 35s-38 26-38 34-6 15-12 15c-7 0-22 13-32 29-17 25-28 29-80 34-49 5-66 3-86-12-14-10-37-22-50-26-14-4-31-13-39-19-12-9-12-8-3 11 7 12 18 26 25 30 22 14 36 60 30 98-4 26-2 40 8 46 8 4 14 14 14 20 0 7 8 13 18 15 10 1 29 9 42 18s31 16 38 16c8 0 20 13 27 29 6 16 20 37 31 47 25 22 24 38-3 74-24 34-76 41-98 15-10-13-15-12-31 8-10 13-18 16-19 9 0-18-50 34-50 53 0 8 4 15 10 15 5 0 9 8 8 18-1 9 2 34 6 54 6 27 4 41-5 50-18 17-78 14-115-5-16-8-56-18-89-22-32-4-81-16-108-26-52-21-82-19-227 11-30 7-72 9-95 6-99-13-122-18-156-36-30-16-56-20-145-19-87 0-125-5-192-24-52-16-84-21-88-15s-10 4-16-6c-5-9-15-16-23-16-10 0 3 33 40 103 30 56 60 102 67 102s14 14 16 31l3 31-43-7c-24-3-59-15-78-25-30-15-51-17-160-12-121 6-127 5-177-20-29-15-76-51-104-80-29-30-55-50-58-45-10 15-48-5-73-38-13-18-49-43-83-59-57-26-65-27-165-22-113 6-110 7-170-51-15-14-35-28-46-30-10-2-25-11-32-20-7-10-21-18-30-18-12 0-13 3-4 12 7 7 12 27 12 46 0 33 38 109 65 132 16 13 21 60 6 60-36 0-125-25-176-50-52-25-69-29-122-26-34 3-66 7-71 10-4 2-47 8-95 12-62 5-93 12-108 25-29 25-59 111-59 169 0 44 5 56 47 107 26 32 50 60 53 63 4 3 12 27 19 54 13 53 45 121 61 131 5 3 10 15 10 26 0 10 4 19 9 19 15 0 23 51 10 66-7 8-9 29-5 56 15 98 13 119-16 141-18 14-48 22-87 25-72 5-87-5-174-111-32-40-60-73-62-75s-11-5-20-6c-10-1-26-13-36-27l-19-24v36c0 23 8 46 21 60l20 24-5-27c-4-16-2-28 4-28 5 0 10 6 10 14s4 16 9 18 7 16 4 33c-5 26-7 27-14 10-7-18-8-17-8 6-1 24-6 27-47 33-51 7-74-4-74-35 0-11-9-21-24-25-13-3-34-17-47-30-12-13-28-24-35-24s-29-18-50-39c-73-78-99-78-393-2-74 20-105 22-276 20l-192-3-46 27c-25 15-52 33-59 40-7 6-34 23-60 36-44 22-55 23-165 19-134-6-146-3-208 62-78 81-146 125-228 147-76 21-97 34-225 136-50 40-123 71-206 88-28 6-60 17-71 23-11 7-42 19-70 26-27 8-54 18-60 22-5 5-28 24-50 43s-45 35-52 35c-23 0-63 61-63 96 0 27-8 42-32 65-45 41-113 74-181 90-50 12-68 23-134 86-67 64-81 73-112 72-20-1-46-7-59-14z"/>
<path d="m12100 25635c-7-8-9-16-4-16 8-1-12-7-91-25-16-4-48-22-71-40-40-32-41-32-36-8 7 37-19 29-50-16-15-22-35-40-45-40-9 0-58-22-108-49-92-49-94-49-231-62-100-9-148-17-170-30-17-11-45-19-62-19-19 0-56-16-95-40-50-32-66-47-71-70-3-18-12-30-21-30-8 0-15-5-15-11 0-5 6-7 13-3 6 5-3-9-20-29-38-43-40-52-16-75 16-16 15-17-2-21-11-2-21 2-23 8-8 25-23 9-20-21 2-26 8-34 27-36 16-3 21 0 16 9-5 7 0 18 11 26 15 11 17 17 6 33-6 11-12 25-12 31 0 16 36 59 44 52 3-4 17 0 31 7 21 11 25 19 20 41-6 25-2 29 49 54 31 15 56 31 56 36s17 9 38 9 47 6 58 14c18 13 144 36 195 36 10 0 19-7 19-15s4-15 10-15c12 0 103 45 180 89 30 17 61 31 67 31 17 0 114 63 137 89 11 11 26 21 34 21 25 0 126 34 134 45 4 5 8 6 8 1 0-4 11-1 24 7 20 13 29 14 50 4 33-15 35-56 4-105-18-29-22-52-23-118 0-59-5-88-16-101-9-10-26-40-38-68-13-27-41-66-62-87-25-24-39-47-39-63 0-23 4-25 43-25 23 0 55 7 71 15 43 23 59 20 52-10-13-51-26-74-45-80-18-5-21-15-21-64 0-56 1-59 28-63 15-3 60-4 100-3 48 2 72-1 69-8-4-14-126-77-148-77-20 0-44-43-36-64 5-11 19-16 49-15 42 0 166 13 221 22 26 4 28 2 22-22-3-14-15-37-26-51s-22-33-25-42c-4-10-15-20-25-23-10-4-22-17-25-31-7-26-34-34-34-9 0 8 5 15 11 15 5 0 7 5 4 11-5 7-12 6-23-3-10-8-29-20-44-28-30-14-45-61-33-100 6-19 12-21 73-17 46 3 73 10 88 24 11 10 26 17 31 16 6-2 16 3 23 12 11 13 9 15-12 15-13 0-35-8-48-17-14-10-38-19-55-19-16-1-40-5-52-9-19-6-21-4-16 17 9 38 33 58 70 58 28 0 37 6 54 35 12 19 26 35 32 35s7 3 4 7c-8 7 14 46 48 83 25 28 46 140 26 140-6 0-11-7-11-15 0-9-12-18-29-21-17-4-32-12-35-20-7-19 13-18 36 3 10 9 18 11 18 6 0-6-6-15-12-20-17-14-155-15-163-3-4 7-13 7-25 0-26-14-63-13-58 2 3 7 21 16 41 20 53 11 84 34 113 84 27 45 25 75-3 52-9-7-52-14-107-15l-91-3 3 46c3 27 10 48 18 51 21 8 68 109 60 129-5 13-14 15-47 10-23-4-51-13-62-21-12-8-29-15-39-15-29 0-21 36 12 60 17 12 30 26 30 32 0 5 9 22 20 38 11 15 17 29 14 32-2 3 0 16 6 29 10 23 10 23 5-4-9-43 15-29 32 19 9 24 13 61 10 95-4 42 0 68 14 100 11 23 22 69 24 101 5 50 3 59-12 64-10 3-26 10-35 15-26 13-54 11-68-6z"/>
<path d="m9800 25205c0-10-7-15-17-13-14 2-19-5-21-29-3-25-8-33-24-33-11 0-22 8-25 20-3 11-14 20-24 20-21 0-26-26-6-33 6-3-1-6-18-6-31 0-136 22-153 33-6 3-12-1-16-9-3-8-15-15-26-15-23 0-25-12-8-40 10-16 5-41-32-154s-42-137-31-150c8-9 19-16 25-16 21 0 5-63-20-83-20-15-24-28-24-71 0-45-4-56-24-72-14-10-23-21-20-25 2-4 0-10-6-14-5-3-10-1-10 5s-5 8-11 4c-8-4-7-9 2-15 10-6 0-23-37-66-55-64-84-107-84-123 0-20 30-10 46 16 10 14 23 23 31 20s11-1 8 4c-17 28 88 150 130 150 18 0 25 6 27 20 0 11 1 26 2 33 1 6 7 18 14 25 6 7 12 17 12 22 0 13-30 0-31-14 0-6-5 2-9 17-11 35-4 54 20 62 11 3 21 18 23 33l4 27 2-28c0-15-6-39-15-52-24-36 0-31 29 7 21 26 23 35 14 55-5 12-16 23-24 23-16 0-17 14-3 41 9 16 7 21-15 29-14 5-25 17-24 27 0 10 3 13 5 6 4-8 11-7 23 5 15 14 16 19 4 33-19 23 11 107 42 119 13 5 26 14 30 19 8 14-1 14-26 1-23-13-23-15-3 44l17 48 59-6c70-8 88-14 88-30 0-6 18-12 40-13 40-3 49 4 30 23-7 7-1 9 20 6 25-4 30-1 30 17 0 13 5 19 14 15 7-3 16 2 19 10 4 9 1 16-6 16-8 0-9 3-1 8 6 4 13 14 16 22 5 12 7 11 14-5 4-11 21-30 36-43s28-30 28-38 10-14 25-14c17 0 25 6 25 17 0 13 3 14 12 5 7-7 20-12 29-12s22-6 29-14c6-8 18-12 26-9 9 3 22-3 30-16 8-11 21-21 28-21s27-7 44-16c18-8 36-12 42-9 6 4 9 1 8-7-2-7 8-14 22-16 57-6 70-13 70-32 0-29 17-25 24 6 9 33-15 53-62 54-19 0-46 8-60 19-15 10-40 21-56 25s-36 17-46 28c-11 14-29 22-52 22-20 1-42 7-50 14-8 6-19 8-24 4-4-4-3 0 4 10 14 17 1 35-17 23-5-3-13 4-16 16-6 16-13 20-36 17-21-3-30 0-35 14-7 24-74 26-74 3z"/>
<path d="m10815 25063c-16-3-38-11-49-19s-28-14-38-14c-11 0-15-5-12-15 4-8 12-15 19-15s15-10 19-22c8-31 7-38-1-36-5 1-17-3-29-9-31-17-68 18-60 57 7 37 1 41-41 24-19-9-42-13-50-9-12 4-14-1-11-20 4-19 1-25-13-25-11 0-19 5-19 10 0 43-14 50-67 34-25-8-63-14-85-14-24 0-38-5-38-12 0-17 92-23 120-8 17 9 24 6 44-15 34-36 75-33 112 8l29 32 3-37c4-44 44-78 73-60 9 6 26 8 38 5 19-5 21-1 21 33 0 20-7 45-15 54-14 15-13 18 2 32 10 8 30 18 45 22 25 6 31 1 64-49 36-54 59-66 82-43 8 8 8 17 1 30-9 16-13 17-26 6-20-17-20-17-47 33-24 46-27 48-71 42z"/>
<path d="m20708 24793c-27-3-37-9-42-26-3-12-14-32-25-44-19-20-27-21-113-16-105 6-144-4-158-41-5-14-17-33-27-43s-31-35-46-55c-18-24-43-41-70-50-34-11-43-18-45-40-2-16-8-28-13-28s-9-6-9-13c0-16-40-55-41-41 0 5-4 0-9-11-5-13-3-28 6-43 20-30 36-108 34-157-4-100-12-175-20-175-11 0-8-66 4-77 4-4 13-8 19-8 5 0 32-42 58-92 26-51 63-115 83-142s36-52 36-56c0-22 46-45 91-45 46 0 48-2 71-42 19-35 30-44 61-49 20-3 45-13 55-22 10-10 25-17 33-17s30-11 49-25 38-25 43-25c6 0 26-12 46-27 33-26 43-28 131-29 103 0 126-6 135-34 7-23 40-60 53-60 5 0 12-6 15-13 5-14 111-57 139-57 9 0 18-7 22-15 3-8 17-15 31-15s25-5 25-10c0-6 24-21 53-35 30-13 60-31 67-40 7-8 21-15 31-15 11 0 19-4 19-10 0-5 9-10 20-10s20-4 20-10 43-10 110-10c86 0 110 3 110 14 0 15-38 67-58 80-11 6-13 23-8 76 6 59 4 75-14 110-11 22-28 44-38 47-31 12-63 48-94 103-32 57-66 100-79 100-26 0-116 72-154 124-40 53-45 66-45 113 0 29-4 53-8 53-8 0-72 86-72 97 0 3-11 29-24 57-20 44-22 59-16 106 17 110 12 167-19 233-21 46-33 97-46 199-17 125-20 137-40 142-12 3-40 22-61 41-21 20-45 34-54 33-8-1-19 0-25 4-21 13-130 48-145 46-8-1-31-3-52-5zm113-49c27-9 52-20 55-25s12-9 20-9c17 0 28-8 90-65 26-23 44-49 44-62 0-12 4-23 10-25 8-3 12-30 11-88-1-30 6-66 17-93 7-16 12-35 12-43s4-14 9-14c19 0 44-91 37-139-3-25-10-47-14-49-16-5 0-117 24-168 13-28 24-57 24-64 0-6 11-21 25-32s25-26 25-34 7-17 16-21c13-5 15-16 9-59-4-36-3-54 4-54 6 0 11-7 11-15s26-40 59-72c70-70 81-79 109-87 12-4 30-18 41-32 13-17 21-20 24-12 3 7 6 1 6-14 1-37 100-157 131-158 18 0 51-73 40-90-13-21-2-124 15-136 23-17 18-25-12-18-22 4-25 3-13-5s6-11-26-11c-40 0-94 18-94 33 0 4-10 7-22 8-22 0-22 1-3 9 16 7 17 9 3 9-9 1-32 10-51 21-19 12-45 23-57 25-13 2-30 11-40 20-9 8-25 15-34 15-10 0-20 9-23 20-4 13-14 20-29 20-28 0-77 20-114 47-17 13-21 14-15 4 5-8-6-5-23 8-31 21-36 31-33 58 1 7-11 20-26 30s-31 22-35 28c-5 7-11 7-15 0-8-10-22-13-115-17-41-2-62 2-75 14-19 17-89 58-133 79-14 6-32 15-40 20s-26 15-40 21c-14 7-28 16-31 21s-12 9-20 10c-22 4-40 18-34 27 3 5 0 18-6 29-10 15-23 19-66 17-56-2-93 13-93 40 0 8-4 14-9 14s-12 8-16 19c-3 10-17 31-31 46-16 18-22 30-15 35 7 4 0 17-19 35-16 15-27 32-24 36 5 9-39 59-52 59-5 0-15 9-21 20-14 21-5 123 17 196 10 34 9 55-8 138l-21 98 24 37c12 21 24 46 27 57 2 11 17 23 37 30 19 6 42 20 53 30 58 60 86 94 97 121 15 36 41 43 178 43h91l12 34c15 47 59 57 141 30z"/>
<path d="m21795 24580c-3-5-15-10-27-10-11 0-35-7-54-16-23-11-45-14-66-9-18 3-52 9-75 12-53 6-55-7-18-81 22-43 25-76 10-94-1-2-19 6-39 18-43 24-69 25-86 5-7-8-28-15-47-15h-35l4-57c3-31 10-59 16-61 7-2 12-9 12-16s9-21 20-31 20-31 20-47c0-15 9-37 20-48 28-28 40-63 40-113 0-34 7-50 39-87 21-25 57-55 80-65 22-11 41-23 41-27 0-9 92-53 103-50 5 1 6-2 3-6-3-5 15-22 40-38 39-25 47-36 60-84 8-30 26-80 40-111 20-48 24-73 24-157 0-70 4-103 13-109 6-4 37-10 67-13 63-6 90 12 90 61 0 46 31 87 76 103 46 16 84 11 132-16 18-10 52-18 75-18 23-1 57-9 75-19 37-19 220-181 221-195 1-4 31-38 67-75 83-82 110-124 118-180 4-24 13-53 21-64 8-12 15-32 15-45 0-12 7-25 15-28 8-4 15-11 15-17 0-5 11-25 25-43s25-39 25-48c0-8 4-17 9-20 9-6 24-54 50-151 5-22 10-83 9-136-1-121 11-143 92-159 116-23 145-31 156-45 6-8 17-15 25-15 7 0 41-17 73-37l60-37 283 1c206 1 292 5 319 15 36 13 36 13 29 58-3 25-10 68-13 95-4 28-15 61-25 75-13 19-16 37-11 90 4 39 1 83-6 109-22 81 13 78 151-15 70-47 119-58 119-26 0 24 19 42 46 42 33 0 160-54 220-94 30-20 58-36 64-36 5 0 10-4 10-8s16-14 36-21 44-21 55-32c10-10 31-21 46-25 16-3 44-17 63-30 20-13 58-26 85-30 28-3 61-9 75-14s88-12 164-15l139-7-7 72c-8 94-33 135-158 262-119 122-150 178-158 288-5 64-10 79-33 102-15 15-27 34-27 43 0 8-13 34-30 57-16 22-30 37-30 33 0-10-25 12-25 23-2 19-17 52-25 52-5 0-17 15-26 33-18 35-51 78-103 135-18 20-37 47-42 59-4 12-28 36-51 53-24 16-52 37-63 45-11 9-38 20-60 26s-50 17-63 25c-12 8-27 12-32 9-12-7-70 22-70 36 0 6-4 8-9 5s-11 1-14 8c-3 8-27 24-54 36-44 20-53 21-115 10-38-7-70-16-74-21-3-5-15-9-27-9-13 0-30-9-40-20-16-19-17-19-69 9-29 16-69 32-88 36-45 9-121 51-138 76-46 66-110 104-213 130-78 19-147 44-159 58-3 3-18 13-35 21-40 19-75 50-75 67 0 7-3 13-7 13-5 0-16 14-25 30-19 34-3 33-201 13-26-3-55-2-65 3-9 4-28 9-42 11-36 6-47 20-32 43 6 11 12 31 12 44 0 21-6 25-67 36-38 7-78 17-91 21-24 9-148 12-226 5-32-3-55-12-68-26-18-20-53-20-68-1-10 13-99 81-105 81-3 0-20 13-38 30-18 16-35 30-39 30-21 0-83 71-104 118-13 29-33 61-44 70s-28 33-38 52c-16 33-20 35-74 38-32 2-59-2-63-8zm74-36c25-5 33-14 43-45 6-22 17-39 25-39 7 0 13-4 13-9 0-30 91-141 151-183 13-10 40-31 59-48 84-73 121-98 155-104 38-7 105 9 105 25 0 5 21 9 48 10 26 0 71 4 99 8 35 5 62 3 81-5 16-6 52-15 80-19 50-7 50-7 40-35-28-81 30-105 225-96l117 6 12-25c6-14 15-25 20-25 4 0 8-6 8-14 0-19 69-76 92-76 10 0 18-4 18-9 0-12 117-61 147-61 51 0 105-23 130-57 15-19 32-32 39-29 12 5 64-40 64-55 0-3 16-11 35-19s35-17 35-21c0-3 17-11 38-17 44-12 105-35 112-42 34-34 99-39 125-10 10 11 28 20 40 20 11 0 25 4 31 10 26 26 118 5 199-44 33-20 71-39 85-43 64-15 146-46 153-59 4-8 13-14 18-14 13 0 39-25 39-37 0-5 16-26 35-47s35-42 35-47 4-9 10-9c14 0 50-33 50-46 0-6 11-23 25-38s28-38 31-51 28-47 56-77c27-29 67-83 89-120s44-70 49-73c6-3 10-34 10-68 0-59 24-147 41-147 4 0 10-13 14-29 3-16 13-35 21-42 8-6 14-16 14-22 0-13 36-43 82-69 21-12 44-34 50-50 7-15 19-28 25-28 7 0 13-6 13-13 0-8 11-24 25-37 18-17 25-34 25-63 0-32-3-38-16-33-11 4-15 2-11-8 5-11-10-13-81-9-48 2-103 8-122 13s-53 11-74 14c-22 3-43 11-47 19-5 7-27 20-51 27-24 8-64 29-90 47s-51 33-55 33c-12 0-92 44-151 83-31 20-73 38-99 42s-57 13-69 22c-25 16-114 9-114-9 0-6-7-8-15-4-8 3-15 1-15-3 0-5 6-11 13-14 6-2 9-7 6-11-7-7-132 71-161 99-14 14-25 16-65 9l-48-9v-73c0-39 3-72 8-72 11 0 8-35-4-47-9-9-9-28 1-75 6-35 15-65 19-68 13-10 31-124 21-134-12-12-58-15-311-20-114-2-212-6-218-10-7-4-17-3-24 2-23 19-125 72-139 72-7 0-28 14-47 30-24 21-44 30-70 30-47 0-148 50-141 70 2 8 5 56 5 105 0 66-5 99-17 125-10 19-18 40-18 47 0 13-3 21-33 81-9 19-17 38-17 43 0 6-11 25-25 43s-25 38-25 43c0 6-7 14-16 17-10 4-14 12-10 23 6 15 0 33-35 105-13 25-11 47 1 28 7-10 10-11 10-2 0 33-327 375-405 424-44 27-166 68-205 68-14 1-36 7-50 15-36 21-57 18-105-12-44-28-68-67-80-130-4-18-8-33-9-33s-20 9-42 19c-21 11-41 16-44 11-3-4-6 35-8 87-2 73-9 109-26 152-13 31-31 81-40 111-14 45-27 63-73 103-31 26-64 47-74 47s-24 9-32 20c-8 12-18 20-23 18-12-4-100 40-114 57-6 8-13 21-14 30s-8 20-15 25c-8 4-15 25-17 46-6 66-14 91-40 119-13 14-24 34-24 44s-9 30-21 45-15 26-9 26c7 0 3 8-8 18-12 9-24 29-27 43-6 24-4 25 23 21 16-2 33 1 36 7 9 13 66 15 66 2 0-14 60-25 72-13 6 6 13 37 17 69 5 48 3 61-12 76-10 10-17 20-15 22s25-1 52-6c49-9 96-4 96 11 0 5 19 13 43 18 55 13 59 13 96 6z"/>
<path d="m9190 24275c-5-14-13-38-16-52-4-14-15-28-24-30-10-3-23-15-30-28-10-20-9-29 14-68 15-24 33-74 40-110 8-36 17-71 21-77 15-25-17-40-84-40-90 0-99-7-67-56 14-21 29-43 33-49 5-5 13-25 20-42 9-27 9-33-3-33-8 0-11-6-8-15 4-9-3-16-19-20-14-4-33-15-43-26-9-10-21-16-25-13-5 3-9 1-9-4 0-6-14-15-30-21-25-8-29-13-22-28 34-66 36-74 24-107-17-47-15-68 5-64 18 3 53-24 53-42 0-5 11-12 23-15 15-4 34-25 50-56 31-56 33-73 12-113-8-15-15-50-15-76 0-44 3-49 31-62 21-9 37-27 51-58 11-25 27-62 36-82 19-42 40-46 58-10 9 19 13 20 17 8 4-9 13-13 21-10s23 1 33-5c16-9 15-11-7-12l-25-1 25-7c14-5 37-14 50-21 14-7 31-16 38-19 8-3 14-10 14-16 1-12-184-117-191-108-4 3 0 8 7 10 22 8 13 33-13 33-22 0-25-4-25-34 0-19-4-38-10-41-17-10-11-35 8-35 48 0 54-45 12-86-43-42-41-106 9-278 66-224 73-259 68-338-2-40-7-85-9-101-3-15-2-30 3-32 4-3 1-19-7-35-9-16-13-34-9-40 3-5 1-10-4-10-6 0-11-7-11-16 0-8-21-38-47-66-27-27-52-57-57-66s-38-52-73-95-64-86-64-97c-5-58-3-75 8-73 18 4 25-27 7-34-12-5-15-15-10-44 6-35 3-39-29-59-19-12-35-28-35-36 0-23 14-16 56 29 34 35 41 49 42 85 1 24 5 49 10 55 5 7 6 21 1 32-4 11-8 32-8 46-1 30 27 71 35 52 7-15 34-18 34-4 0 6-4 13-10 16-20 12-9 31 60 108 39 43 68 82 65 87-3 4 1 10 9 13 29 11 57 98 62 190 3 50 10 99 15 109s6 18 2 18-6 29-5 65c3 42 0 65-7 65-6 0-11 8-11 18 0 9-12 35-25 57-16 25-25 55-25 80 0 22-9 72-20 110s-20 83-20 98c0 32 45 97 66 97 20 0 17 30-6 68-11 18-18 37-15 41 5 9 31 19 118 47 56 18 105 49 57 37-11-3-23-9-26-14s-13-9-22-9c-17 0-6 9 56 41 12 7 22 18 22 26 0 17 17 17 23 1 3-8 6-6 6 5 1 18-44 67-61 67-6 0-24 10-40 22l-30 21 23 18 24 18-23-6c-13-3-34 0-47 7-14 8-39 10-61 7-28-5-34-3-26 5 23 23 14 40-16 33-25-5-30-2-44 29-9 19-31 42-47 52-17 10-31 25-31 32 0 16 28 105 44 141 8 18 8 25-1 28-6 2-26 26-43 53s-39 52-49 55c-9 3-28 23-42 45-13 22-26 40-29 40-4 0-4 16-2 35 3 21-1 42-9 51-12 15-8 22 30 55 24 22 51 39 60 39 24 1 45 21 58 59 11 31 10 35-12 53-14 11-25 25-25 32s-9 22-21 35c-33 35-6 49 79 40 37-4 69-5 71-3s-3 4-13 4c-15 0-15 2 0 25 11 16 14 34 9 55-5 22-3 32 9 36 19 7 21 24 3 24-19 0-41 27-57 70-8 19-16 37-20 40-3 3-11 17-17 32-11 24-10 28 8 33 27 9 45 41 53 93 7 47 0 55-14 17z"/>
<path d="m12237 24182c-10-10-17-30-17-44s-7-31-15-38-15-21-15-31c0-15 7-17 43-16 40 2 42 1 43-28 1-16 3-37 5-45s-1-14-7-13-23-9-38-22c-22-19-32-22-53-14-13 5-35 9-47 9-24 0-111-62-120-86-3-8-2-13 3-10 13 8 28-14 35-54 5-22 4-30-2-22-7 10-11 10-21-2-10-11-7-19 14-42 24-26 24-28 9-46-15-16-15-18-1-18 9 0 19 5 22 10 4 6 10 8 15 5 4-3 13 1 19 9 9 10 6 17-14 30-21 14-23 20-15 36 14 26 13 56-4 89-14 27-14 29 17 52 24 18 43 23 84 22 29-1 55 3 58 8 4 5 15 9 26 9 10 0 19 7 19 15s5 15 10 15c6 0 10 5 10 11 0 7 8 17 17 24 14 11 15 16 4 28-9 11-10 21-2 35 13 25 5 32-28 26-24-5-27-3-29 26-1 18 2 38 8 45 11 13 4 45-10 45-4 0-14-8-23-18z"/>
<path d="m12094 23382c10-17-12-52-32-52-23 0-42-19-42-42 0-28 26-32 77-13 37 15 47 15 54 4 12-20 22-87 14-99s-87-55-97-52c-5 1-8-11-8-28 0-20 5-30 15-30 23 0 18-34-10-60-35-33-32-57 8-65 17-4 37-11 42-15 6-4 32-11 59-15 34-4 45-10 38-17-6-6-20-11-32-12-20-1-110-81-110-98 0-13 17-9 31 8 7 8 26 22 42 30 18 10 27 21 23 30-3 9-2 12 5 9 5-4 17-1 26 6 8 7 25 18 37 24 11 6 22 21 24 34 3 20 1 22-20 15-30-10-64-7-113 10-33 12-39 18-37 38 2 12 9 29 14 36 6 7 8 28 5 47-5 31-2 37 26 56 18 12 38 29 45 37 28 35 4 142-33 142-12 0-25-4-30-9-6-5-27-12-47-15-31-6-37-4-32 8 3 8 16 18 27 22 26 8 59 43 54 58-2 5-9 12-17 14-7 3-10 0-6-6z"/>
<path d="m22358 22874c-26-19-38-36-43-62-3-21-13-47-21-60-9-13-14-33-13-45 5-46-13-95-42-116-16-12-29-29-29-39 0-21 29-64 39-58 12 8 12-96-1-130-10-30-9-35 11-51s22-28 23-108c2-80 5-96 32-145 17-31 44-81 60-113 17-33 38-59 50-63s37-20 56-35c19-16 38-29 43-29 4 0 17-9 29-20s28-20 35-20 13-4 13-9 8-12 19-16c10-3 30-22 45-43 14-20 26-32 26-27 0 12 20-16 20-28 0-5-4-6-9-3s-12-1-15-10c-9-24-7-74 3-74 5 0 11-13 15-30 3-16 12-30 19-30 8 0 19-22 27-50s20-56 27-62 13-22 13-37 7-37 16-49c17-24 16-43-5-162-21-112 3-170 71-170 29 0 38 8 98 79 19 22 40 41 47 41 6 0 15 9 18 20s12 20 18 20c15 0 37 47 37 79 0 42-48 217-70 256-31 55-26 88 16 124 31 25 38 37 42 79 3 35 0 56-12 73-8 14-20 55-25 91-7 52-17 76-42 108-18 22-36 40-41 40s-6 4-3 10c3 5 0 7-9 4-16-6-69 41-74 66-2 8-7 17-11 20-3 3-18 27-31 53-14 27-34 53-45 59-29 15-65 58-65 77 0 9 9 43 20 75 27 75 21 117-38 272-42 110-50 124-84 145-21 13-38 27-38 31 0 5-5 8-10 8-6 0-41 20-78 45s-74 45-82 45-32-12-52-26zm157-76c60-40 97-71 101-85 3-13 10-21 14-18 4 2 15-17 25-43s26-62 37-81c28-49 35-149 14-200-24-61-21-132 7-163 12-14 30-28 40-31 9-4 17-13 17-22 0-8 3-15 8-15 4 0 16-20 27-45s23-45 27-45c5 0 8-6 8-14 0-7 15-25 33-39 118-93 126-101 126-138 1-39 28-137 42-155 15-18-7-61-39-78-16-8-32-27-36-40-9-35 4-105 26-144 10-19 29-76 43-129 27-106 25-116-30-162-29-25-44-41-102-109-27-31-29-31-50-17-31 22-38 71-18 138 16 56 18 190 3 181-4-3-10 8-13 23s-13 42-21 58c-8 17-16 41-17 54-1 12-11 33-23 46s-29 37-37 54c-13 25-13 31-1 35 9 3 14 21 14 46 0 35-6 46-44 83-58 54-139 115-173 128-48 18-102 69-128 122-15 29-38 71-52 95-20 35-26 59-29 135-10 218-21 286-47 311-19 19-19 19 5 32 20 10 28 26 38 76 24 121 67 218 96 218 8 0 57-28 109-62z"/>
<path d="m17480 22805c-25-19-52-35-60-35-24 0-170-128-170-149 0-18-40-32-83-31-59 3-59 3-91-25-16-14-37-25-47-25s-24-6-31-12c-19-18-48-36-76-48-94-40-142-69-191-116-45-43-64-54-101-59-25-3-60-13-78-21-18-7-41-14-51-14s-38-13-62-30c-24-16-49-30-56-30s-17-8-22-17c-10-17-10-17-11 1 0 16-2 16-20-6-11-15-39-30-67-38-94-24-91-23-63-30l25-7-30-12c-16-6-48-20-70-30-22-11-56-22-76-26-21-3-51-13-69-21-38-20-151-44-143-31 5 8-34-8-79-33-9-5-39-12-67-16-29-4-57-14-67-25-9-11-22-19-28-19s-17-9-24-20-19-20-27-20-18-6-22-14c-4-7-26-23-48-35-22-11-79-55-127-96s-91-75-95-75c-7 0-54-60-77-98-13-22 16-11 55 20 59 48 170 128 176 128 3 0 27 19 54 43 99 88 226 177 254 177 11 0 38 9 60 18 22 10 69 24 105 31s93 24 128 37c34 13 72 24 83 24 12 0 38 9 58 19 38 21 83 40 141 61 19 7 44 22 56 32 11 10 26 18 32 18 7 0 12 7 12 15s8 15 18 15 36 13 58 30c21 16 50 30 64 30s34 7 44 15c11 8 34 15 50 15 36 0 156 40 156 52 0 4 8 8 18 8s29 10 42 23c25 23 51 40 86 56 11 5 42 29 68 53 50 45 76 55 166 63 53 5 58 8 125 78 66 69 145 137 159 137 4 0 30 16 58 34 40 28 55 33 70 25 10-6 16-15 12-22s-4-9 0-5c5 4 18-2 29-13 27-25 38-115 20-167-18-53-17-126 3-143 10-8 43-15 74-16 62-2 136-18 144-32 3-5-3-20-13-33-11-13-27-48-37-78s-21-57-25-60c-5-3-21-30-36-61-58-114-105-158-169-159-35-1-65-35-62-73 1-20-4-42-11-51s-9-21-5-28c13-20 4-51-17-66-11-7-18-21-17-30 2-10-4-17-14-17-9 0-20-4-25-9-4-5-3-6 5-2 6 4 12 4 12-1 0-12-44-98-52-101-5-2-8-10-8-18 0-9 4-13 9-10s11-1 14-9c4-8-13-33-44-62-84-81-147-224-109-248 6-3 10-19 10-35 0-21-8-35-27-47-44-28-50-37-57-79-4-21-13-46-19-54-13-18-91-65-82-51 3 5 1 12-5 16-5 3-10 2-10-4 0-5-15-19-34-30-19-12-41-34-51-49l-16-27 22 25c18 20 21 21 14 5-15-39-16-60-6-120 9-58 9-61-16-83-23-21-26-33-30-98-3-78-42-198-75-233-25-28-34-122-14-162 16-32 16-35-4-61l-21-28h32c20 0 37 8 50 23 20 24 25 47 10 47-5 0-12-6-14-12-3-7-6-2-6 13-1 14-6 30-13 37-16 16-11 93 7 111 13 14 15 13 16-4 0-11 6 0 13 25 6 25 24 64 39 87 14 23 29 54 32 70l5 28-11-27c-15-39-30-35-18 4 5 18 9 55 9 81 0 42 4 52 31 74 24 21 30 32 25 52-30 146-27 156 62 203 71 36 100 70 109 124 5 27 15 41 44 60 33 20 39 30 39 59 0 18 5 37 10 40 6 4 10 28 9 55-2 39-5 47-17 42-12-4-11 1 4 20 11 15 22 22 25 16 4-6 17 7 30 29 12 21 39 52 61 68 21 16 38 35 38 43s-25-7-57-34l-58-47 59 55c55 50 58 56 51 84-11 39-9 47 24 97 15 23 36 58 47 77 10 19 28 45 39 58 16 19 17 26 7 42-27 44-5 110 37 110 63 0 142 72 163 147 5 21 20 49 33 63 35 39 57 78 52 92-7 20 35 88 54 88 10 0 20 3 22 8 5 9-18 54-27 53-3-1-6 2-5 5 1 13-26 24-59 24-19 0-35 6-38 14s-11 13-17 11c-7-3-32 13-56 33l-44 38 2 82c2 80-17 152-40 152-5 0-9 7-9 15 0 18-40 35-78 34-15 0-47-16-72-34z"/>
<path d="m15365 22803c-44-2-84-8-89-13-6-6-26-10-46-10-28 0-44-8-70-35-19-19-39-35-45-35s-18-13-27-28-29-34-45-42c-15-8-39-22-53-31s-36-20-50-24c-46-14-154-68-194-97-21-15-46-28-55-28s-32-11-52-24c-46-31-130-56-193-56-28-1-69-8-91-16-22-9-68-23-101-33-76-20-106-42-147-106-17-27-35-51-39-53-5-2-8-9-8-16 0-38-79-146-107-146-8 0-26-8-40-17-18-12-55-20-112-23-74-4-86-8-89-24-2-10-22-37-43-60-47-48-59-86-59-184 0-69-2-74-32-102-18-16-43-30-54-30-12 0-27-6-33-14-7-8-32-20-56-27-26-8-46-20-48-31-3-10-12-18-21-18-17 0-32-41-23-64 3-8-7-31-24-52-16-20-29-47-29-60 0-15-6-24-15-24-8 0-20-9-27-20s-21-20-30-20c-10 0-18-7-18-16 0-17-23-44-38-44-5 0-15-6-21-14-6-7-27-16-47-19s-56-16-81-28c-37-18-44-26-40-45 3-19-15-38-110-114-62-51-113-98-113-106 0-7-7-17-16-22-12-6-15-18-12-36 3-14 0-30-6-35-6-4-56-25-111-46-142-53-165-64-165-80 0-8 4-15 10-15 11 0 83 26 117 42 11 6 27 7 34 3 8-5 10-4 5 3-4 7-1 12 8 12s45 12 81 26c66 27 135 82 168 136 23 37 21 52-3 28-11-11-20-23-20-27 0-5-15-25-34-46-32-36-34-37-39-15-7 24 19 62 34 52 5-3 9 0 9 7s3 9 7 6c8-8 32 23 33 43 0 8 37 44 80 79 44 35 81 67 81 72 1 5 3 14 4 19 1 6 3 14 4 19 1 11 86 41 114 41 10 0 30 9 44 20s31 20 38 20 19 7 26 16 37 30 66 46c52 29 72 55 33 43-31-10-26 34 10 75 20 25 29 46 30 72 0 28 5 38 20 43 11 3 20 12 20 19s19 19 43 26c23 8 49 20 58 27 8 7 24 13 35 13 19-1 19-1 0-15-16-12-17-15-4-15 40 0 139 102 137 142 0 8-3 7-7-3-9-20-51-68-82-94l-25-20 20 25c11 14 26 29 33 33 8 5 12 34 12 85 0 105 12 141 65 193 25 24 45 50 45 57 0 10 20 13 84 11 73-2 86 1 105 20 11 11 30 21 40 21 22 0 79 63 87 98 4 12 10 22 15 22s9 7 9 15c0 22 65 122 98 150 15 13 45 27 67 31 22 3 58 13 80 21 49 18 68 21 177 29 81 6 91 10 125 40 21 19 43 32 48 30 6-2 34 9 62 25 29 16 61 29 72 29 18 0 111 37 111 44 0 2-17 0-37-5-21-4-38-7-40-6-1 2 21 13 50 26s65 30 81 38c38 17 41 16 25-3-9-11-1-9 21 6 19 12 47 29 62 38 16 10 28 25 28 35 0 9 9 25 21 35 11 9 35 29 52 44 20 18 44 28 64 28 17 0 35 5 38 10 10 16 93 12 146-7l49-18-33-33-32-33-2-126c-2-126-3-126-33-156-16-16-30-33-30-38 0-4-13-16-30-26-16-9-30-23-30-30s-4-13-8-13c-5 0-16-26-26-59-17-57-46-122-78-171-9-14-19-36-23-49-4-14-23-42-42-62-20-21-42-51-50-66-16-31-33-222-20-230 4-2 21-8 37-13 24-7 30-5 30 6 0 9-5 12-12 8-6-4-4 3 5 17 21 30 23 73 3 66-25-10-38 18-31 67 10 64 35 63 35-1 0-30 3-43 9-35 4 7 5 32 1 55-10 50-7 58 45 127 50 66 62 85 48 77-5-4 5 24 23 60 19 37 34 73 34 80 0 8 6 16 14 19s12 13 9 23c-8 33 59 136 70 108 4-9 6-9 6 1 1 8 19 31 41 52l40 38-6 90c-7 98 3 188 16 142l7-25 12 28c6 16 11 36 11 46s9 21 20 24c21 5 28 41 10 52-5 3-10 15-10 26 0 10-7 19-15 19-9 0-12-6-9-15 5-12 1-13-25-4-17 6-28 15-25 20s4 8 2 7-39-4-83-5z"/>
<path d="m12049 22778c-1-1-2-22-3-45-2-48-37-95-65-86-13 4-14 3-1-5 12-9 11-14-5-33-20-22-20-22 1-15 17 5 22 0 32-31 9-30 9-43-3-67-8-16-15-37-15-47s-10-24-22-30c-21-11-21-12 9-24 35-15 48-31 33-40-13-8-13-25-1-25 5 0 12 8 15 18 3 9 27 27 52 38l46 22-7-72c-4-39-12-80-18-91-7-11-15-58-19-105-12-135-18-162-39-167-11-3-19-14-19-25 0-16 3-17 21-7 20 10 21 9 17-22-5-34 8-79 24-79 11 0 10 17-2 25-5 3-10 27-9 53 0 32 3 41 8 28 7-18 8-19 14-2 4 10 2 25-4 32-8 10-8 26 0 61 7 27 13 77 15 113s11 85 20 110c14 39 23 180 12 180-2 0-17-7-32-15-66-34-103-10-78 51 12 28 14 54 9 97-6 53-4 62 20 93 20 25 25 44 23 71-2 20-9 38-15 41-7 2-13 2-14 0z"/>
<path d="m12090 21898c0-7 7-22 15-32 20-26 19-36-4-36-24 0-32-19-19-44 7-13 5-31-7-62-23-61-10-230 25-309 13-31 19-66 10-60-30 19-40-154-11-189 9-11 9-15-1-19-8-3-6-6 5-6 10-1 29-13 42-27 26-28 25-60-2-138-31-91-15-133 97-252 11-12 20-26 20-33 0-6 7-11 15-11 22 0 18 33-5 48-11 7-20 19-20 26 0 8-4 16-8 18-19 7-81 108-80 130 0 12 7 45 15 71s13 68 11 92 1 41 6 37c5-3 6 2 3 12-4 10-7 20-7 22s-5 4-11 4c-21 0-68 65-75 103-5 31-1 45 20 75 23 34 25 41 15 72-7 19-16 43-21 53s-6 22-3 27 1 19-5 30-13 49-16 84c-4 51-1 70 15 97 23 40 19 132-5 122-8-3-14 0-14 6s6 11 14 11c24 0 28 18 15 55-13 34-29 47-29 23z"/>
<path d="m8760 20889c-6-11-16-19-23-16-6 2-19-5-29-15-21-21-25-78-5-78 6 0 34-41 61-90s57-97 67-106c18-16 19-16 19 7 1 23 2 22 29-11 16-19 27-38 25-42-3-4 26-38 63-76 37-37 79-90 92-117 12-28 27-58 32-67 5-10 9-28 9-41s6-31 13-40c9-14 10-49 3-155-5-75-10-156-10-179-1-24-4-43-8-43-5 0-8 7-8 16 0 8-4 12-10 9-6-4-5-13 3-26 10-17 9-22-4-32-23-17-59-95-53-115 3-9-2-6-10 8s-15 37-16 53c0 37-26 35-33-3-5-20-19-37-47-55-44-28-44-29-30-104 12-62 2-89-39-116-26-17-31-27-31-58 0-70-35-115-125-163-13-7-29-38-44-85-19-60-29-78-50-87-14-6-38-23-53-37s-32-25-38-25c-26 0-70-32-70-50 0-11-4-20-8-20-5 0-14-11-20-25-8-18-22-26-51-31-32-5-49-17-83-56-44-50-117-98-149-98-10 0-26-11-35-25s-24-25-34-25-40-23-67-51c-65-68-99-83-171-75-50 6-64 3-106-19-61-32-246-184-246-201s-24-18-50-2c-10 7-23 8-27 4-4-5-2-11 5-13 6-3 10-9 7-13-8-13-55 10-55 27 0 22-26 15-40-12s-25-31-105-39c-27-3-116-23-196-45-124-34-151-39-182-30-21 5-37 13-37 18 0 4-18 18-40 30s-48 33-56 46c-10 15-29 26-56 30-22 4-54 19-70 34-17 14-44 38-61 54-17 15-36 27-42 27-25 0-67 44-87 91-13 29-28 49-37 49s-22 9-29 20-17 20-23 20c-8 0-7-5 1-15 10-12 9-15-7-15-11 0-33 5-50 10-26 9-29 15-25 42l5 31 16-27c8-14 22-26 30-26 11 0 11 3-2 18-9 10-28 43-41 75-19 41-31 57-45 57-11 0-23 5-26 10-3 6-21 10-39 10-50 0-92 18-104 44-6 13-29 34-52 47-34 20-100 102-100 126 0 3-8 12-17 19-13 9-39 11-92 7-63-5-75-4-83 11s-18 17-54 11c-62-9-122 10-135 42-8 22-14 24-42 19-35-6-63 6-53 23 5 7-5 11-27 11-19 0-51 7-70 15-45 19-96 19-120 1-10-8-25-38-32-68-8-29-21-58-30-64-8-6-15-16-15-21s-9-18-20-28-20-26-20-35c0-21-20-30-65-30-19 0-37-4-40-10-3-5-18-10-33-10s-39-11-54-25c-35-33-60-32-111 4-23 17-58 33-78 36-31 6-39 3-58-20-11-15-21-36-21-46s-7-22-16-27c-15-8-15-11 5-31 11-11 21-25 21-30s14-14 30-20c26-8 30-15 30-45 0-54 18-84 59-97 20-7 40-18 44-25 4-8 17-14 27-14 11 0 20-4 20-9s13-12 29-16c59-13 84-97 35-115-26-10-26-11-19-83 3-39 15-90 24-112 10-22 38-102 62-177 34-107 48-138 62-138 20 0 22-13 5-41-11-17-10-22 6-34 19-14 18-15-6-40-16-16-32-23-42-19-31 12-16-24 20-46 19-13 46-39 59-59 24-40 105-83 105-56 0 7-15 16-34 19-23 4-37 14-41 27-4 11-23 36-43 56l-36 36 27 23c26 22 36 54 18 54-5 0-9 24-9 53 1 38-7 69-29 118-40 84-53 134-46 170 3 18 1 29-6 29-6 0-11-6-11-12-1-7-12 13-25 44-29 70-36 151-14 156 26 5 40 41 34 85-8 53-20 68-75 96-25 13-52 28-60 33s-31 16-51 24c-41 18-59 48-59 100 0 30-4 37-29 45-37 13-46 35-21 49 23 12 60 13 60 1 0-16 73-22 125-10 28 6 65 12 83 12 41 1 42 17 1 17-26 0-30 2-19 15 8 9 22 12 41 8 21-4 30-1 35 11 7 18 74 23 74 5s31 11 41 39c5 13 13 20 19 17s10 4 10 17 11 39 24 58 26 49 30 67c10 46 40 76 66 68 29-9 90-48 116-74 15-15 32-21 62-19 23 1 47-4 54-9 14-12 158-37 165-29 2 2 20-12 38-32l34-37 29 18c42 24 59 21 76-11 18-35 52-66 65-58 5 4 13-4 17-16 9-30 45-78 59-78 5 0 27-9 48-20 20-11 55-20 76-20 22 0 43-4 46-10 3-5 13-10 22-10 26 0 55-42 49-70-20-94-23-86 31-99 113-28 125-35 142-78 9-22 23-48 31-58 19-23 89-68 115-75 11-3 24-16 30-28 6-14 22-24 45-28 45-8 60-21 60-51 0-26 18-37 47-30 16 4 15 6-4 12-13 4-23 14-23 21 0 15 26-3 63-43 10-12 33-27 51-33 17-7 41-17 53-22 23-11 28-10 183 33 41 11 100 27 130 35s84 18 120 21 73 12 82 21c14 11 21 12 32 3 17-14 101 3 127 25 8 8 23 14 32 14s17 5 17 10c0 6-5 10-11 10-7 0 6 14 27 30 22 17 49 39 60 50 12 11 26 20 30 20 5 0 2-5-6-11-10-7-11-9-2-7 8 2 14 8 14 13 0 17 20 35 31 28 5-3 7-1 4 4-14 22 65 47 143 46 41-1 88 3 103 9 31 12 74 51 107 98 12 17 27 30 34 30 6 0 36 13 66 29 30 17 73 40 95 51 22 12 56 43 75 70 26 36 41 48 60 48 38 0 80 19 74 35-3 8 2 20 11 27 8 7 15 18 15 25 0 14 42 45 61 45 6 0 29 14 50 31 22 17 44 27 50 23 8-4 9-3 5 4s-2 12 4 12c13 0 24 25 46 103 13 49 19 58 34 54 11-3 26 3 36 14 9 10 23 19 30 19s24 14 38 31c21 24 26 41 26 82 0 48 3 55 37 84 38 31 38 31 39 110 0 92 6 108 39 109l26 2-26-24c-28-26-31-41-11-67 13-16 14-16 20 7 3 13 22 38 43 56 20 18 44 47 52 64 9 17 22 32 29 32 26 3 26 6 2 13l-25 7 32 14c56 25 67 61 55 171-6 52-8 150-5 219 8 167 13 157-235 447-28 32-55 53-69 55-20 2-35 22-75 96l-50 93 36 34c40 37 43 45 21 45-8 0-19-9-25-21z"/>
<path d="m16820 20110c0-5 6-10 14-10 7 0 24-9 37-19 14-10 36-21 49-23 22-3 26-10 33-53 11-74 9-92-13-142-11-25-20-51-20-57s-11-38-25-71c-18-43-25-79-25-127 0-38 4-68 9-68 4 0 11-18 14-39 3-24 18-56 38-80 34-43 51-105 51-188 0-26 6-44 14-47 19-7 18-67-1-112-9-22-14-66-14-113 1-83-8-148-22-157-5-3-9-16-9-30 0-13-4-24-8-24-11 0 10-93 42-193 14-43 26-93 26-113 0-19 10-69 21-112 12-42 21-85 21-94 0-10 3-18 7-18 16 0 20-45 6-66-7-12-17-39-21-60l-8-39-7 35c-4 20-3 40 2 47 6 7 6 13 1 17-17 10-19-15-17-175 2-121 6-164 19-189 9-18 16-47 17-64 0-26 2-28 9-11 17 40 11-30-11-116-17-67-20-102-16-173 4-66 2-96-8-115-8-14-23-51-34-81s-20-49-20-42c-1 6-6 12-12 12-7 0-8-7-4-17 3-10 8-42 9-72 2-29 9-57 15-61 7-4 19-19 26-34 17-32 9-115-11-123-10-3-14-26-16-72l-1-66-7 50c-4 37-8 45-14 32-5-10-6-38-4-62 4-35 3-42-9-38-13 5-13 1 1-25 9-17 16-53 16-79s7-57 15-67 12-23 9-28c-3-4 9-31 26-59s33-64 37-80c3-16 15-36 25-44 19-12 20-25 19-175 0-101-5-175-13-196-12-35-13-34 37-126 5-10 13-18 17-18 5 0 8-7 8-15 0-9 7-29 15-45 9-17 17-69 20-122 4-66 10-96 20-104 8-6 12-14 9-17-4-3 17-40 45-82 33-50 53-72 57-62 3 8-13 42-36 76-54 82-72 133-71 208 1 72-22 150-51 176-17 14-17 17-4 17 21 0 21 29 0 45-14 10-16 41-17 229-1 212-1 218-24 244-13 15-23 32-23 37 0 6-14 39-32 75-31 63-32 69-34 210-1 111 2 147 12 155 8 6 16 40 20 82 6 68 5 75-20 107-14 19-27 45-27 58-2 38 28 135 52 167 20 28 21 37 15 124-6 80-4 108 14 178 25 97 24 187-3 217-39 43-26 263 19 327 18 25 18 72 0 123-8 22-12 43-9 45 3 3-2 16-11 29-9 12-16 32-16 43 1 16 4 15 17-10 10-19 18-25 21-17 2 8-10 33-27 57-24 33-31 54-31 88 0 26-13 81-30 127-34 92-37 142-13 190 12 24 16 61 16 134 0 61 5 104 11 108 21 14 9 269-12 290-7 7-12 20-12 29 0 10-4 20-9 24-5 3-12 18-16 34-8 37-41 102-48 95-3-3-5 5-5 18 1 13-5 38-13 56-11 26-11 36-1 52 6 11 12 29 12 41 0 11 7 33 15 47 16 30 85 267 85 294 0 33-28 19-39-19l-10-38 2 48c2 48 1 49-34 61-19 7-46 20-60 29-26 19-59 23-59 7z"/>
<path d="m813 18143c-13-8-23-20-23-25 0-18-52-73-79-83-43-16-98-58-115-86-10-17-17-65-21-150-6-125 0-140 25-61 7 23 16 42 20 42s3 26-2 57c-10 63 2 107 30 116 9 3 44 21 77 40 55 32 61 39 69 78 10 51 21 61 59 54 30-5 76-35 77-48 0-10 26-37 36-37 4 0 12 7 19 17 14 19 35 9 35-17 0-10 7-25 15-34 8-8 15-22 15-30 0-23 37-56 63-56 12 0 35-14 53-33 27-30 37-34 100-40 39-3 77-2 84 3 10 6 21-2 38-31 23-39 25-40 66-34 57 9 131-28 182-90 21-26 54-55 75-65 20-11 46-31 57-45s23-25 26-25 30-12 59-26c47-24 65-27 192-29 77-2 149-5 160-7 14-2 21 3 23 19 2 15 16 27 48 39 24 9 44 20 44 24 0 10 112 2 119-9 4-6 40-11 81-12 54-1 86-8 115-23 49-26 153-27 235-4 30 9 47 17 37 17-26 1-10 21 17 21 12 0 26 4 32 9 5 5 20 12 34 16 25 7 25 7 5-10-18-15-18-16-2-11 10 3 24 6 30 6 7 0 36 20 66 44 31 26 73 49 100 56 25 7 41 14 36 16-6 3-33-2-60-10-40-12-46-13-34-1 8 8 65 20 134 29 66 9 134 18 150 20 17 3 21 3 10 0s-24-10-30-16c-12-12 66-3 93 10 30 16 134 31 255 38 64 4 117 11 117 15 0 5-4 9-10 9-5 0-10 5-10 10 0 13 73 13 87-1 5-5 36-13 67-16s56-9 56-14c0-4 18-10 39-14 22-3 47-15 57-26 9-10 21-19 26-19 4 0 22-12 38-27 30-27 38-49 20-55-11-3 16-65 42-95 8-10 13-42 13-84 0-55-3-69-17-72-9-3-25-24-35-48-20-45-85-111-129-131-15-7-24-19-24-35 0-12-4-23-10-23-5 0-10-7-10-15 0-9 10-15 26-15 14 0 50-11 81-26 47-21 64-24 110-18 29 3 56 10 59 15 9 15 32 10 88-16 45-21 63-24 112-20 32 3 64 11 72 17 10 9 22 9 45 0 40-14 221-26 192-13-17 8-17 10-3 10 9 1 20-3 23-9 9-15 55-12 55 4 0 7 7 19 15 26s15 23 15 36c0 22-2 23-20 12-11-7-20-18-20-25 0-23-31-31-62-16-16 8-32 13-35 10s-16 6-29 21c-22 25-23 25-24 6 0-11 5-25 12-32 18-18-52-16-87 2l-28 15 43 3c26 2 45 9 48 17 6 18-63 6-98-17-33-22-187-27-207-7-18 18-110 30-211 28-81-2-82-2-71 19 7 12 20 31 30 42 11 11 19 23 19 28 0 4 10 8 23 9 13 0 36 17 56 41 32 37 35 45 38 121 5 89-19 218-43 238-8 6-14 21-14 33 0 21-59 86-78 86-5 0-15 6-21 14-7 8-30 17-52 21-21 4-39 10-39 14 0 5-25 11-56 14s-62 11-67 16c-19 19-149 13-177-6-16-11-46-19-80-20-30 0-118-10-195-22-77-11-196-27-264-36-69-8-132-21-140-29-88-75-239-144-346-156-33-4-53-8-44-8 9-1 30-9 45-18l29-16-27 6c-72 15-85 19-120 34-20 8-35 19-33 23 3 4-14 3-36-2-33-8-53-5-98 11-32 11-75 20-97 20-54 0-135-28-155-53-14-17-24-19-76-15-40 4-70 1-93-8-42-18-129-3-174 29-16 11-40 21-53 22-14 0-34 14-49 33-14 18-31 32-37 32-17 1-69 51-86 82-7 14-33 35-57 47s-46 26-49 32c-4 5-32 9-64 9-57 0-58 1-68 33-8 28-13 32-39 30-87-7-145-8-152-3-4 3-23 23-41 45-19 22-36 39-38 38-14-12-45 1-53 22-5 14-14 25-20 25-5 0-10 12-10 28 0 33-30 62-65 62-14 0-25 5-25 10 0 6-6 10-13 10-8 0-22 9-32 20-22 24-80 26-112 3z"/>
<path d="m557 17657c-3-9-13-17-22-17-21 0-19-10 9-39 29-30 45-81 26-81-10 0-10-3 0-14 6-8 10-31 9-51-3-30 1-39 26-55 37-24 140-203 150-260 5-30 11-40 25-40 23 0 62-50 85-107 10-24 20-41 24-38 4 2 26-14 49-36 23-21 46-39 51-39 15 0 19-59 4-64-7-3-13-11-13-19 0-9-9-12-30-9-16 2-60-4-97-14-78-20-103-31-103-44 0-5-13-31-29-58s-32-68-36-91-18-61-31-84c-27-48-31-103-8-135 10-14 11-22 4-22-8 0-11-19-9-57 1-32-1-65-4-73s-13-39-22-67c-8-29-21-74-29-100-8-27-17-77-20-113-4-35-10-67-15-70-18-11-67-190-52-190 8 0 8-63 0-70-8-6-31-124-33-165-1-24 3-31 22-33 13-2 28 1 35 6 7 6 71 25 142 43 120 29 165 51 165 77 0 5 8 16 18 23 15 13 16 12 3-3-7-10-9-18-3-18 12 0 38 30 26 30-5 1 13 10 40 20 31 12 54 16 61 10 6-5 38-13 70-19 33-6 70-13 82-17 16-4 25-1 29 9 3 9 12 13 20 10 9-3 21 3 30 15 34 48 68 56 248 59 93 1 175 4 183 7 8 4 56 9 106 11 50 3 105 12 121 20 46 20 88 26 121 16 25-7 27-10 13-16-16-6-16-9 6-26 13-10 31-19 40-19s74-11 144-25l128-25 55 27c42 21 70 27 129 29 52 1 89 8 120 23 56 26 85 26 109 2 42-42 57-44 185-31 132 14 130 14 271-44 66-27 115-67 115-96 0-27 38-32 119-15 70 15 108 12 80-6-10-6-11-9-1-9 6 0 12-11 12-24s6-26 13-28c6-2 90 1 186 6 123 8 176 15 179 24 10 32 86-8 110-60 9-21 23-38 30-38 6 0 12-4 12-10 0-5 24-10 53-10 30 0 76-7 103-15s66-15 87-15c20 0 37-4 37-10 0-13 63-13 75-1 6 5 44 11 86 12 70 3 77 1 104-24 36-33 62-35 67-6 3 23 10 28 73 55 22 10 54 27 70 39 17 12 50 31 74 42s38 22 32 24c-20 7 24 55 66 72 41 16 96 65 57 51-13-6-9 2 13 24 40 41 97 66 121 54 9-5 22-8 27-6 7 3 11-39 10-121v-125l-35-6c-39-8-115-55-123-79-4-8-14-15-23-15-39 0-92-114-93-200-1-47 20-99 45-113 8-4 14-14 14-22 0-15 55-48 125-76 128-50 138-58 175-133 34-69 37-72 110-108 41-20 82-46 92-57 17-22 56-26 93-12 21 9 122-40 138-66 4-7 14-13 21-13 27 0 50-98 75-310 5-41 12-82 15-91 4-8 29-28 56-42 73-39 137-37 215 8 33 19 71 39 85 45 13 6 27 14 30 18s20 12 38 19c26 9 34 9 37 0 11-40 17-47 40-53 14-3 47 1 74 10 28 9 59 16 70 16 12 0 34 14 49 30 16 17 33 30 38 30 5 1 26 23 48 50 30 39 46 50 77 55 52 9 119-3 119-21 0-8 5-14 10-14 6 0 10-8 10-18 0-24 35-52 64-52 15 0 34-12 49-30 14-16 32-30 40-30s24-9 37-20 27-20 33-20c5 0 20-11 33-25 19-21 32-25 77-25 36 0 59 5 67 15 7 8 18 15 24 15 35 0 88 25 122 56 38 36 39 36 102 30 56-6 67-11 94-42 62-70 133-82 227-39 51 24 117 40 207 52 55 6 69 32 61 113-3 33-1 58 3 55 5-3 12 0 16 7s4 10 0 6c-4-3-19 3-32 14-13 12-47 38-76 58s-55 46-58 58-13 31-23 43-21 36-24 54c-3 19-21 50-44 74-21 22-39 45-39 50 0 6-16 15-36 23-20 7-43 26-55 44-20 33-70 75-102 87-13 5-16 13-11 31 3 14 0 37-9 53-35 67-38 95-17 138 17 34 19 55 15 145-12 257-10 249-52 287-21 18-37 38-36 42 1 5-6 7-16 4-15-4-22 4-31 32-9 27-9 40-1 48s11 6 11-6c0-9 5-17 10-17 6 0 10-7 10-16 0-14 7-15 46-9 26 3 52 8 58 9 6 2 8 1 4-1-12-7-10-33 2-33 6 0 10 4 10 9s9 13 20 16c11 4 18 10 15 14-2 5 29 14 71 21 57 10 81 10 100 1 14-6 51-11 84-11h59l3 36c3 35 4 36 52 39 31 2 54 9 62 19 13 18 41 21 46 5 2-5 22-13 45-16 47-6 88 12 143 66 64 62 105 73 254 65l131-6 67 36c57 31 77 37 130 37 49 0 77 7 125 30 34 17 64 38 67 47 2 9 7 31 10 47 6 25 11 30 37 30 29 0 30-2 27-39-2-25 2-41 10-43 8-3 12 9 12 41 0 34 4 46 15 46 8 0 15-8 15-18 0-11 12-22 31-29 26-10 29-10 19 2-7 8-9 19-5 25s-1 20-11 31c-14 15-31 19-85 19-70 0-86-9-81-43 4-22-15-47-35-47-8 0-31-13-51-29-30-24-51-30-112-36-58-5-90-15-143-43l-68-36-113 11c-107 11-126 10-187-13-9-3-22-17-30-30-14-28-68-64-93-64-10 0-24-7-33-15-15-15-52-12-63 6-13 19-61 21-88 3-15-11-49-21-77-24-45-5-50-8-53-32-5-42-26-53-71-39-41 12-182 2-278-19-60-14-93 1-93 41 0 22-4 26-20 22-11-3-20-9-20-14s-9-9-19-9c-11 0-22-4-25-9-4-5 4-7 16-4 22 5 22 5 4-9-17-14-18-19-7-46 7-17 21-38 32-48 10-9 19-23 19-30s17-21 37-31c53-26 65-69 61-218-1-66 1-125 5-132 4-6-2-35-13-63s-20-59-20-70c0-10-3-20-7-23-5-2-2-2 5-1 7 2 12-6 12-21 0-13 5-27 10-30 6-3 10-20 10-36 0-20 9-38 28-55 15-13 36-33 48-44s30-20 40-20c15 0 16-2 5-9-20-13 26-73 50-66 10 3 20 1 24-5 3-6 10-8 15-5 4 3 6-3 4-13-5-18 14-43 63-80 18-14 33-36 37-54 3-18 14-41 24-52 17-21 16-21-8 0-44 37-51 38-36 4 7-18 46-59 87-92 86-70 94-80 103-130 9-51-5-75-51-81-93-13-158-29-191-46-86-43-135-35-192 31l-35 40-91 5-91 6-35-36c-21-20-55-41-79-48s-51-18-60-26c-25-21-64-15-103 16-21 17-58 40-83 52-27 13-53 36-65 55-20 34-41 43-53 24-10-15-32 5-52 47s-46 53-125 53c-58 0-128-22-128-41 0-5-19-26-41-46-23-21-52-48-64-60-13-14-34-23-52-23-16 0-34-5-40-11s-23-9-39-7c-22 2-30 10-36 36-10 36-39 43-74 17-10-8-25-15-32-15s-31-12-55-27c-82-53-142-82-171-83-34 0-122 46-131 69-4 9-11 50-16 91-11 93-25 182-37 238-11 52-45 86-131 133-57 31-63 33-103 22-39-11-45-10-68 11-14 13-55 40-93 60-67 37-70 40-126 145-8 14-22 33-31 41s-19 23-23 33c-3 9-13 17-21 17-10 0-13-6-9-17 5-15 3-16-8-5-7 6-19 12-27 12-7 0-42 14-77 32-86 42-131 102-128 172 0 26 6 53 12 59s11 18 11 28c0 19 57 65 76 61 7-1 15 6 18 16 3 9 21 24 38 31 26 11 29 15 15 18-18 5-18 5 0 19 10 7 29 14 43 14 14 1 19 4 12 7-8 3 0 12 20 23 36 19 34 6 25 188-1 23 1 42 5 42 3 0 0 14-8 30-19 37-42 38-137 8-43-13-63-24-55-29 9-6 8-9-4-14-10-4-20-15-23-25s-20-24-38-31-52-34-75-59c-43-44-68-60-182-115-30-15-64-35-76-46-20-19-21-19-50 16-34 41-74 48-74 14 0-20-4-21-47-15-34 4-57 1-77-9-20-11-33-12-40-5-5 5-24 10-41 10-16 0-52 7-79 15s-72 15-100 15c-55 1-79 13-90 46-6 21-90 94-107 94-4 0-20 11-35 25-38 35-46 31-39-19l7-43-146-7c-80-4-150-5-155-2-5 4-12 19-16 35-10 47-28 56-83 43-26-6-54-10-62-10-9 1-27-1-40-5-21-5-28-1-41 26-12 25-35 42-110 78-178 86-201 93-212 66-3-7-39-18-89-25-110-16-104-17-140 20-29 29-38 33-81 31-26-1-67-11-90-22-29-14-69-21-132-24-61-2-101-9-124-21-32-17-38-17-155 4-153 27-156 28-156 50 0 10-7 21-16 24-26 10-101 7-131-5-15-6-46-13-68-14-63-4-186-24-202-33-8-5-41-5-75 0-33 4-63 6-67 4-4-3-45-6-92-7-101-2-209-26-227-51-11-15-23-17-75-12-37 3-69 11-80 21-15 14-23 15-48 5-35-15-89-34-106-38-7-2-25-20-40-41-26-37-31-39-171-75l-144-36 6 44c3 24 12 57 20 73 8 15 16 63 18 105s6 76 10 76 5 6 2 14c-3 7 6 37 20 67 13 30 29 88 34 129 9 68 28 157 51 235 5 17 12 83 16 148 4 64 11 120 16 123s9 15 9 28c0 12 4 26 9 31 5 6 11 24 14 40 10 66 32 116 64 149 29 28 47 37 104 47 52 9 75 9 94 1 22-10 25-9 25 8 0 10 9 27 20 38 15 14 18 26 13 56-3 22-13 40-23 44-34 14-119 100-126 128-10 42-41 101-56 107-8 2-50 68-93 145-56 100-86 142-100 144-18 3-20 11-21 85-2 64-6 88-22 110-10 15-21 35-24 42-3 12-6 12-11-2z"/>
<path d="m4937 17576c-17-13-14-46 4-46s9-18-12-23c-12-3-18-10-14-16 3-6-1-11-9-11-10 0-16-9-16-25 0-22-4-25-40-25-21 0-45-6-52-13-6-8-21-12-33-9-17 3-23-3-31-30-16-56-3-111 38-159 21-24 42-49 48-56 5-7 10-17 10-22 0-6 10-10 23-10 12 1 30-2 40-6s17-3 17 5c0 6 5 8 12 4 6-4 8-3 4 4-3 6-20 14-37 17-19 4-33 15-37 27-3 13-11 18-23 15-11-3-16-1-13 4s-1 12-9 15c-9 3-20 18-27 34s-18 31-26 34c-20 8 7 80 32 85 10 2 25 12 32 22s18 16 26 13c23-9 66 14 66 36 0 11 4 20 10 20 5 0 20 11 34 25 24 24 24 24 5 49-17 21-17 25-3 30 25 9 72 7 79-4 3-5 12-10 18-10 7 0 1 9-13 20-29 23-77 25-103 6z"/>
<path d="m9161 15918c0-7 31-28 70-47 38-19 69-38 69-42 0-5 10-9 23-9 33-1 101-41 132-77 14-18 40-60 56-93s35-60 43-60 26-13 39-30c16-18 27-25 30-17 2 8 9 7 21-6 10-9 24-17 32-17s30-15 49-33c32-31 33-34 15-45-16-10-18-9-13 5 4 11 3 14-6 9-12-8-7-60 9-81 8-11 55-167 93-310 15-53 25-118 25-157-1-38 5-74 11-82 12-15 10-128-4-288-6-56-4-72 12-95 47-71 73-150 73-228 0-66-7-93-48-193-23-56-24-65-11-89 8-14 28-32 44-39 54-22 70-49 68-116-1-41 4-66 14-78 23-27 24-79 2-129-10-24-19-51-19-61 0-20 32-44 73-54 36-9 36-59 0-62-7-1-22-2-33-2-16-2-20-9-21-39 0-21-3-32-6-25-14 35-32 1-69-130-33-117-40-154-36-205 4-63 14-77 40-51 9 9 16 7 32-7 11-10 20-24 20-32 0-16 58-43 91-43 12 0 37 14 56 30 20 18 45 30 61 30s33 5 39 11c8 8 16 1 28-25 21-45 68-69 116-61 51 9 109 23 160 39l46 14-5-48c-4-42-2-49 19-60 13-7 30-22 39-32 14-17 21-19 55-10 40 11 86 15 136 13 22-1 31-11 53-54 14-30 26-56 26-59 0-13-34-17-47-7-11 10-25 0-72-49l-59-62-48 21c-27 12-55 26-63 32-10 9-20 4-42-21-16-18-33-32-38-32s-23 12-40 26c-26 22-32 23-37 10-3-9-12-16-20-16-25 0-95-72-92-94 2-12 8-20 13-18 6 1 12-12 15-30 5-31 7-33 42-31l37 2-47-67c-26-37-55-78-64-92-10-14-28-38-41-53-22-26-26-28-46-16-19 13-25 10-67-32l-46-46-8-94c-5-52-13-109-19-128-13-42-7-52 27-45 15 3 44 1 64-3 43-9 40-15-38-80-53-44-90-101-74-117 5-5 27-2 52 7l44 14-4-27c-6-43 12-44 72-4 44 29 62 35 85 31 19-4 33-1 41 8 7 8 34 17 60 21 26 3 65 17 86 30 50 29 182 94 193 94s72 68 117 130c33 46 41 51 127 79 81 26 102 29 173 24 85-6 105 0 161 50 22 20 79 53 142 83 36 17 114 12 138-8 7-6 22-39 33-74 23-76 33-97 71-145 16-20 29-44 29-52s-30-53-66-99c-36-45-69-90-74-98-14-25-22-5-32 86-5 49-15 97-21 109-7 11-16 36-22 55-10 33-14 35-56 38-43 3-47 1-87-47-23-27-42-53-42-57 0-6-41-53-150-175-82-91-96-99-184-99-59 0-144-27-156-49-8-16-5-20 24-25 28-5 37-15 64-68 25-48 32-73 32-119 0-108-41-245-95-319-19-26-35-51-35-54 0-16-104-147-137-172-98-75-106-79-168-79-33 0-78 4-100 8-38 8-43 6-86-35l-46-43 7-135c4-74 12-148 19-163 6-16 11-40 11-55s9-51 20-80c22-57 20-72-10-72-29 0-34-18-31-100 2-74 17-110 46-110 19 0 186-174 208-216 14-27 22-71 27-144 14-189 33-365 42-374 5-6 13-5 20 2 15 15 54 16 63 2 10-17 36-11 71 15 33 25 34 25 53 6 22-22 148-46 188-36 14 3 49 26 77 51 51 45 70 52 81 34 4-6 11-8 16-4 6 3 29-3 53-14 34-16 46-30 61-66 11-25 23-46 27-46s8-6 8-14c0-24 55-56 94-56 36 0 96-33 96-53 0-5 9-16 21-26 16-12 22-31 25-81 6-80 23-150 37-150 5 0 17-8 26-18s35-26 57-36c61-26 119-79 111-101-4-9-16-19-28-22-14-4-17-8-9-13s2-10-15-14c-15-4-30-5-33-1-3 3 2 5 12 5 9 0 15 4 11 10-5 9-59-16-117-54l-27-18 23-35c20-29 22-38 12-58-6-14-14-25-18-25-5 0-8-7-8-15s-5-15-11-15c-5 0-8-4-5-9 3-4-1-17-9-27s-15-25-15-32-14-34-31-58c-17-25-32-52-33-60-3-17-27-47-48-60-7-5-29-29-48-54s-38-46-42-48c-5-2-8-10-8-18 0-7-11-21-24-29-22-15-27-15-56 0-18 9-43 14-58 11s-65-10-112-15c-112-13-140-26-140-68 0-23 6-36 22-44l21-11-20-17c-13-9-24-34-28-59-6-39-4-47 19-71 26-27 49-33 74-17 7 4 16 5 20 1 10-10-46-55-69-55-14 0-19-7-19-29 0-42 17-81 35-81 23 0 65-45 65-70 0-11-4-20-8-20-12 0-32-70-32-109 0-17 8-44 17-59 20-32 82-92 94-92 5 0 9-4 9-10 0-5 9-10 20-10s20-4 20-10c0-5 7-10 15-10s15-7 15-15c0-20 52-45 95-45 34 0 35-1 29-27-13-51-32-88-58-112-14-14-26-32-26-40 0-9-9-27-20-41s-20-41-20-62c0-31 4-38 20-38 15 0 20-7 20-25 0-14 5-25 10-25 17 0 11-30-7-37-10-4-39-29-65-57-46-49-48-52-50-116-1-36-2-77-3-92s-13-39-28-54-27-32-27-39-11-34-26-60c-15-29-24-60-22-79 3-31 3-31 77-38 40-3 78-11 84-17 13-13 143-15 152-2 3 5 19 12 35 16 17 4 30 12 30 19 0 17 34 56 49 56 7 0 3-13-11-32l-23-33 35 25c19 13 38 28 41 33 9 12 29 0 29-18 0-19 116-24 253-12 118 11 138 6 117-32-6-12-8-26-5-31s1-11-5-15c-5-3-10-15-10-27 0-19 4-20 68-14 37 3 99 8 137 11 96 8 115 13 115 30 0 10 10 15 30 15 17 0 30-4 30-10 0-5 11-10 25-10s33-4 43-9c9-5 38-19 64-31 27-12 51-26 54-31 3-6 23-17 45-26 21-8 39-19 39-24 0-4-16-15-35-24-19-10-53-37-75-61-45-49-44-68 4-94 14-7 26-21 26-30 0-10-34-45-75-80s-76-71-76-81c-1-11-2-22-4-26-14-53-19-63-31-63-9 0-14-12-14-33 0-19-3-37-7-41s-6-24-4-45c1-22-2-42-7-45-11-7 3-85 19-100 17-18 9-52-20-80-16-15-32-26-36-24-12 6-53-42-50-60 2-9 4-17 5-17s3-9 5-19c2-11 18-30 34-43 21-17 31-33 31-52 0-23-26-85-58-136-4-5-5-20-3-33 1-13-5-34-13-47-9-13-16-35-16-47 0-13-12-36-26-53-20-23-24-37-19-61 6-36-17-145-38-177-8-12-20-40-27-61-24-73-132-206-167-206-21 0-23-4-23-60 0-53 3-62 23-70 22-9 116-25 130-22 11 3 9-16-3-23-5-3-10-35-10-71 0-46-3-63-11-58-13 8-13 6 19-139 15-73 24-93 48-113 16-13 35-28 42-34 9-8 11-26 6-61-4-29-3-49 3-49 14 0 50-70 57-112 5-26 2-40-9-51-8-9-15-20-15-25s-7-15-15-22c-9-7-15-29-15-51 0-33 4-41 31-54 23-13 30-22 29-43-1-15-1-29 0-32 9-24 9-64 0-75-7-8-10-57-9-130 1-64-1-119-5-122-3-4-6-16-6-28 0-28 59-49 97-34 13 5 29 9 34 9 12 0 12-37-1-45-5-3-7-12-3-20 3-8 0-15-6-15s-10-3-9-7c4-15-23-53-37-53-18 0-47-29-40-41 4-5-1-9-9-9-23 0-22-102 0-136 9-13 14-27 10-31-3-4 1-15 11-25 9-10 13-18 9-18s0-7 8-16c16-16 23-114 9-128-4-3-8-13-9-21-2-11 8-14 42-13 26 2 44 7 44 14 0 14 60 44 88 44 12 0 33-5 49-11 33-12 123-2 123 15 0 16 35 60 93 118 32 33 55 48 73 48 21 0 25 4 21 20-3 11-2 20 3 20 4 0 10 9 13 20s13 23 23 27 28 18 40 32c20 23 24 24 61 13 22-7 58-12 81-12 32 0 43 5 57 26 9 14 14 31 12 39-3 7 1 22 8 33 8 10 11 23 7 27s3 6 15 3c14-4 28 1 39 13 9 10 24 19 33 20 11 0 12 2 3 6-7 3-24-5-38-18-13-12-24-17-24-10 0 6 16 25 35 42s38 42 41 55 10 21 15 18 9 1 9 9c0 12 31 29 45 24 2-1 11 7 19 18 11 14 15 16 16 5 0-12 2-12 16 1 8 9 16 22 17 30 2 8 6 19 9 25 8 13 5 34-7 54-17 27-35 62-35 70s33 22 57 24c17 2 29 16 13 16-7 0 4 17 25 39 24 24 44 37 55 34 12-3 19 3 24 20 6 25 47 44 66 32 6-4 10 1 10 9 0 9 5 16 10 16 6 0 10 13 10 29 0 17 5 33 10 36 6 4 26 31 45 61s39 54 44 54 12 10 15 23c4 12 27 45 53 72 25 28 43 41 39 30-11-32 61 56 80 98 9 20 24 37 32 37s55 25 104 55c48 30 93 55 98 55 6 0 10 5 10 11 0 5 4 8 9 5s21 6 35 19c30 28 56 33 56 10 0-8 6-15 14-15 9 0 12-8 8-25-6-33 21-34 50 0 11 13 24 22 28 20 7-4 16 10 25 35 1 3 5 12 9 21 4 8 2 28-4 43-12 33-13 76-1 76s81 72 81 85c0 6 40 49 90 95 56 53 90 93 90 105 0 31 28 65 54 65 24 0 46-29 23-31-7 0 11-7 38-15 75-22 190-10 220 22 12 13 30 24 39 24s16 5 16 11c0 7 21 8 68 3 37-4 84-7 105-6 28 2 37-1 37-14s7-15 42-9c23 4 66 16 97 26 34 12 82 19 130 19 42 0 112 7 156 14 54 10 82 11 86 4 7-12 178-1 194 13 10 7 24-1 82-51 8-6 34-8 67-4 42 5 64 2 91-10 19-10 33-21 31-25-6-10 48-51 67-51 8 0 20 7 27 15s19 15 27 15 29 6 46 14c34 14 163 39 206 38 14 0 34 4 43 9 13 7 29 2 60-17 24-15 45-31 46-35 7-18 138-10 187 12 93 41 289 41 303 0 3-9 0-11-9-6-8 5-6-1 4-12 28-32 253-73 404-73 56 0 63 2 63 20 0 31 28 24 62-14 17-19 36-32 43-30 7 3 16 0 20-5 3-6 11-9 16-6 5 4 9 3 9-2 0-4 21-7 48-6 39 2 52-3 77-26 17-15 40-46 51-67 21-37 26-40 125-68 57-15 114-33 125-38 12-6 31-7 42-4 11 4 32 4 47 0 23-6 26-11 24-43-2-20 1-43 7-51 5-8 18-37 30-65l20-50 70-3c38-1 76-5 84-9 8-3 18-5 23-5 4 1 7-5 7-13s7-15 16-15c8 0 12-4 9-10-3-5 5-12 19-16 14-3 28-15 32-26 3-12 30-45 60-75 30-31 54-60 54-66s3-7 7-4c3 4 19-7 35-23 15-17 38-30 50-30 24 0 68-44 68-67 0-8 20-23 45-34s45-24 45-29c0-6 11-10 25-10s25-5 25-11 9-8 20-4c23 7 28-13 8-33-9-9-8-24 7-67 19-57 20-58 89-59 18-1 30-7 31-16 2-8 6-27 10-41 4-17 1-30-9-38-9-8-16-23-16-35 0-28 34-82 60-96 11-6 18-15 15-21-4-5 9-9 27-9 22 0 37-7 45-20 15-23 112-54 139-44 10 4 30 16 44 26 24 19 24 19 34-4 11-28 13-34 15-52 0-7 12-30 26-50s25-43 25-51c0-18 31-25 95-22l50 2 5-55c3-39 13-66 30-88 23-30 28-32 70-27 96 11 170 13 170 4 0-5 10-9 23-9 14 0 31 13 47 37l25 37 5-52c3-29 12-58 20-66 26-24 112-67 129-64 9 1 30-7 47-19 25-18 33-32 38-70 4-27 12-76 18-110 11-60 13-63 55-83 23-11 47-20 52-20s11-3 13-7c2-5 20-16 41-25 55-26 64-59 31-117-29-52-40-126-27-186l9-40 77-3c76-3 78-3 119 32 47 41 67 44 93 16 10-11 23-20 29-20 5 0 26-16 46-35 33-32 40-35 64-25 36 13 46 13 46-3 0-7 23-21 50-31 28-10 50-22 50-26 0-8 15-12 118-30 47-9 67-9 77 0 19 15 158 17 163 2 2-7 8-12 13-12 6 0 19-9 31-20 11-10 33-22 49-25 15-4 33-13 40-21 13-16 39-19 39-4 0 6 9 10 20 10s20 4 20 9-9 11-20 14c-19 5-20 14-20 126 0 99 3 123 15 127 11 5 15 23 15 71v65l65 65 65 65v83c0 81-1 84-31 109-17 14-39 26-49 26s-20 7-24 15c-4 11-21 15-61 15h-55v153c0 165-3 177-52 177-16 0-36 9-45 20-10 11-25 20-35 20s-18 7-18 15-7 15-15 15c-12 0-15 17-15 90 0 70-3 90-14 90-9 0-16 19-21 58-4 36-15 68-30 88-31 40-55 100-55 135 0 15-11 58-24 95l-25 67 21 40c11 22 24 65 29 96 17 106 26 136 52 178 15 24 26 46 25 50-4 14 33 62 53 68 30 10 23 19-33 39-85 30-163 90-199 154-17 31-32 67-34 81-1 14-7 58-13 96-5 39-8 106-6 150 4 83-7 137-34 167-8 10-21 39-27 65-8 32-18 48-28 48-21 0-109 73-102 85 6 10-20 32-28 23-4-3-16 2-26 11-16 14-26 16-48 9-30-10-80 8-90 33-3 8-9 11-14 8-10-6-65 32-101 68-10 10-18 29-18 43 0 13-8 32-18 42s-24 30-31 45c-13 25-12 30 18 63 37 42 39 70 8 112-12 17-33 55-46 84-13 30-28 63-34 74-39 73-41 83-45 210-2 72-3 167-2 213 1 45-2 91-5 102-3 10-30 31-60 45-76 35-87 60-96 215-6 118-9 130-48 215-23 50-48 95-54 100-21 18-47 76-47 103 0 36-29 110-57 148-13 17-23 41-23 53 0 21-17 69-41 113-5 10-9 32-9 49 0 44-33 68-92 69-26 0-49 4-52 8-3 5-19 7-36 4-60-9-100 53-100 155 0 37-4 84-9 103-6 19-12 52-15 74-4 21-15 51-26 67-58 81-107 227-126 374-3 22-9 44-14 49-6 6-10 36-10 67 0 37-4 59-12 62-9 2-13 29-13 83 0 167-6 259-15 239-6-13-9 7-9 63-1 79 0 83 24 92 32 12 41 35 26 64-7 12-14 38-15 57-5 58-6 60-15 55-13-8-63 84-59 108 2 16 13 22 50 28 68 9 95 43 96 119 1 49-3 60-25 80-14 13-34 38-45 54l-20 30 7-29c6-27 5-27-11-12-16 16-15 19 5 47 16 22 21 41 20 74-2 30 3 50 14 63 9 10 17 28 17 40 0 11 4 23 10 27 5 3 12 32 16 65 4 41 11 60 20 60 8 0 14 5 14 10 0 6 5 10 10 10 6 0 10-7 10-16 0-8 5-12 10-9s10 16 10 29c0 12 11 33 25 46 30 28 47 86 44 144-1 22 3 51 9 63 10 18 9 25-1 35-11 9-12 21-5 46 6 22 5 45-2 68-16 46-6 54 24 21 28-30 46-35 46-12 0 9 9 15 23 15s31 13 46 35c24 35 25 61 7 160-2 11 1 25 6 32 5 6 8 22 6 34-2 16 4 27 21 35 30 15 41 32 41 65 0 40-23 78-55 90-67 25-118 54-136 79-11 14-40 47-66 74-48 52-74 102-78 150-2 16-8 31-14 35-12 8-13 140-1 156 4 6 18 51 30 100 17 72 21 105 15 164-8 95-26 131-64 131-15 0-36 9-46 20-20 22-64 27-82 9-16-16-72 20-79 51 0 3-6 18-12 33-25 59-25 75-2 87 20 11 22 18 18 71-3 44-1 59 9 59 7 0 13 5 13 12 0 10-90 195-128 264-10 19-10 29 5 61 10 21 26 47 35 57s26 38 37 62c12 24 32 51 46 60s25 20 25 25c0 17 56 98 75 109 33 18 48 64 41 128-15 133-18 152-29 152-6 0-18 7-27 15-13 12-15 27-9 92 4 43 10 92 14 108 8 39 67 85 110 85 24 0 37 7 49 25 9 14 23 25 30 25 14 0 47 43 50 66 1 8 8 20 14 26 7 7 12 21 12 33s5 26 11 32c13 13 3 36-13 31-12-4-98 79-98 94 0 5-11 25-24 45-21 30-23 39-13 67 14 40 48 87 59 80 19-12 26 8 12 34-7 15-14 32-14 37 0 19-84 93-124 109-41 17-151 22-160 7-3-4 1-17 9-27 25-33 19-84-27-246-13-47-32-84-61-120-23-29-53-68-65-85-35-49-168-133-212-133-89 0-146 38-191 125-34 65-74 88-117 66-9-5-25-12-35-15-19-6-31-32-52-114-8-29-23-64-34-78s-34-69-51-122c-18-53-41-112-52-129-20-33-29-35-86-17-21 6-5 250 24 356 16 58 24 113 24 168s5 91 16 112c9 17 14 42 11 56s2 40 9 58c12 29 12 39 0 68-16 38-56 69-83 64-10-2-24-23-35-53-40-111-128-147-339-136-118 6-126 6-159-16-20-12-44-37-54-54-13-22-21-28-29-20s-8 20 2 44c7 17 13 37 15 43 1 7 8 19 14 27 7 8 14 35 15 59 2 39 0 43-20 41-21-3-23 1-23 52v55l55 26c31 15 58 31 61 36s-12 27-34 48c-32 32-36 40-20 40 28 0 58 35 107 125 24 44 53 87 64 97 18 14 19 18 7 33s-15 15-25 2c-6-8-29-18-50-21-22-4-44-11-49-16s-19-1-34 10c-14 11-33 20-44 20-15 0-18 5-13 23 12 38 29 51 52 36 22-13 88-5 98 12 4 5 1 41-5 78l-11 69-46 11c-59 15-136 68-170 117-33 49-63 152-63 221 0 49-2 54-45 90-25 20-45 44-45 53 0 43-122 110-199 110-12 0-21 4-21 9s-13 12-30 16c-16 4-32 11-35 16-4 5-11 9-16 9-6 0-7-4-4-10 9-15-48-12-70 4-19 14-19 15-1 48 23 42 76 78 115 78 21 0 41 11 67 38l36 37-7 150c-4 82-11 153-17 156-6 4-6 25 1 63 12 65 5 90-34 126-45 41-80 102-86 150-6 44-6 43-7-16-2-49 2-64 18-79 11-10 20-22 20-27s13-26 29-46c39-50 55-102 43-144-5-19-6-72-1-123 14-158 12-196-10-202-11-3-21-14-24-24-3-11-9-19-14-18-4 1-10 1-13-1-3-1-17-3-33-5-15-2-49-18-75-35-44-28-49-35-51-73-1-36 3-47 29-72 24-23 34-27 48-19 17 10 30 9 162-20 101-22 130-35 130-57 0-12-5-16-15-13-8 4-15 3-15 0 0-4 9-10 19-14s42-29 71-56c50-47 52-50 46-90-4-26-1-50 8-67 7-14 16-46 20-71s15-54 24-64 25-31 35-46c22-35 127-106 167-115 38-7 52-32 48-86-3-35-7-43-26-45-14-2-33 5-47 18l-24 22-30-48c-20-32-30-59-29-79 3-26 6-30 30-27 17 2 40-5 59-19 23-16 33-19 42-10 6 6 22 11 34 11 24 0 24-1-13-67-49-89-60-101-97-105-46-4-46-31-1-72l37-34-41-21c-23-12-47-21-55-21-7 0-22-7-33-15-18-14-18-16-2-28 12-9 18-32 20-73 3-54 5-59 25-57s21 0 11-27c-5-17-14-33-19-36s-9-16-9-29-4-27-10-30c-16-10-11-45 11-82 23-37 41-39 49-4 7 30 81 103 98 96 7-3 64-7 125-8 119-4 222 14 273 48 27 17 84 100 84 121 0 23 19 25 40 4 22-22 28-84 9-96-6-4-9-19-5-36 3-18 0-41-9-58-10-19-15-58-15-115 0-60-7-113-24-173-17-61-26-127-30-223-8-156-5-162 76-174 41-6 49-5 54 11 4 11 13 26 19 34 7 8 25 53 40 100 30 91 68 175 85 185 5 3 10 16 10 28s7 42 16 67c16 43 46 70 80 70 14 0 51-47 74-93 33-66 108-107 195-107 32 0 57 11 118 50 42 28 91 69 109 92 18 22 48 56 65 75 18 18 41 50 52 71 37 72 76 240 69 296-4 35-3 36 28 36 94 0 211-103 170-149-19-22-66-111-66-127 0-7 11-26 25-42 14-17 25-37 25-46s17-33 38-54c20-21 43-49 51-64 12-24 11-31-15-77-16-28-33-51-37-51s-18-11-30-26c-13-15-40-29-66-35-30-7-54-21-76-45-30-33-33-42-44-151-10-103-10-118 5-134 9-10 22-15 29-13 13 6 14 2 30-128 5-38 2-47-30-83-19-22-42-54-50-72-9-18-20-35-25-38-6-3-10-14-10-23 0-10-10-22-22-27-13-6-27-24-32-42s-13-33-17-33c-5 0-9-6-9-14 0-7-7-19-14-26-8-6-25-32-37-56-17-37-20-55-14-99 4-35 10-52 18-50 10 4 59-93 96-188 2-6-4-7-13-4-14 5-15 3-6-13 15-28 12-58-7-69-17-10-17-10 0-11 10 0 16-4 12-10-3-5-11-7-18-5-7 3-18 1-25-3-10-7-4-34 26-123l39-114 44-1c24-1 52 3 62 8 13 7 28-2 70-42 28-27 57-50 63-50 17 0 23-97 11-157-11-52-26-71-28-35-2 39-40-158-43-223-1-38-1-64 1-57 7 19 21 14 29-10 4-13 7-25 7-28-3-30 76-163 108-183 11-7 19-16 19-22 0-24 125-105 161-105 22 0 55-35 51-55-8-53-14-65-39-77-22-11-29-23-36-63-6-34-4-62 4-87 14-44 16-115 3-127-5-5-26-11-46-14-33-5-38-3-49 22-15 33-40 31-59-4-10-18-10-31 0-59 9-29 8-55-5-133-19-114-33-178-46-213-9-24-49-50-77-50-10 0-13-9-10-30 3-17 1-33-4-36-4-3-8-16-8-30 0-25-2-32-39-102-17-34-21-52-16-83 8-46-6-69-41-69-19 0-24-5-24-26 0-14 4-23 9-20 5 4 20-7 34-23 14-17 27-27 31-24 3 3 11-7 17-23s13-23 16-16c9 23 22 1 17-27-3-16-1-38 5-50 10-17 9-21-4-21-8 0-15-7-15-16 0-13-6-15-27-10s-24 4-13-4c11-7 5-10-27-10-23 0-45-4-48-10-3-5-15-10-26-10-10 0-19-6-19-14 0-18 32-76 43-76 4 0 7-9 7-21 0-11 4-18 9-15 16 10 48-58 53-111 4-45 2-52-16-61-20-8-21-15-17-123 1-63 6-116 10-119s7-24 5-47c-1-24 2-40 7-37 10 6 12-10 9-67-1-20 3-54 9-75 5-22 13-79 17-128 3-50 10-104 15-120 5-17 9-52 9-78 0-34 6-54 23-75 13-15 29-47 36-71s20-51 29-60c9-10 23-31 31-47 7-17 17-38 22-47 5-10 9-28 9-41s5-28 10-33c6-6 12-56 13-112 2-84 5-105 23-128 40-54 68-67 151-72 88-4 106-13 97-49-4-15-1-30 9-41 8-9 22-48 32-87 9-38 23-77 30-85 27-32 65-121 65-153 0-19 8-45 18-58 24-34 41-61 48-79 4-8 23-51 44-95 34-73 37-90 43-190 7-155 33-204 127-236l30-11v-122c-1-66 0-150 3-186 2-36 1-69-2-74-10-20-7-62 5-76 7-8 17-26 23-40s15-32 20-40 16-31 25-50 29-60 46-90c36-67 37-84 5-116-34-34-38-67-12-101 12-15 25-30 29-33 3-3 8-17 10-30 2-14 9-35 16-47 10-19 10-23 0-23-9 0-9-3 2-10 8-5 22-7 31-4 11 3 18-3 22-16 3-12 13-20 26-20 12 0 24-7 26-15 14-43 17-50 22-37 7 19 31 14 38-8 7-23 73-40 84-21 11 17 41 2 41-21 0-10 6-18 13-16 19 4 127-82 133-108 3-13 12-28 20-34 24-21 47-120 40-180-9-83-6-158 9-222 17-75 80-178 116-191 15-6 30-19 32-29 3-10 22-25 44-34 21-8 46-18 56-22 17-7 15-12-17-53-19-26-32-49-29-53 3-3-2-15-12-26s-15-20-10-20c4 0 3-6-3-13s-14-32-18-55-10-45-15-48c-4-2-6-11-3-19 7-16-23-136-36-149-14-14-12-53 2-79 7-12 13-26 15-32 4-14 23-105 29-139 4-25 18-47 66-105 6-8 12-42 12-77 1-40 5-59 10-53 22 21 26 5 26-91 0-82 3-100 15-100 8 0 15-7 15-15 0-9 9-15 25-15 14 0 28-6 31-13 3-9 16-12 34-9 56 8 60-4 60-179v-159h55c40 0 57-4 61-15 4-8 15-15 25-15 11 0 33-10 49-22 28-20 30-27 30-84 0-58-3-66-37-108-22-26-50-49-65-52-28-6-28-8-28-85 0-64-3-79-15-79-13 0-15-22-15-135 0-74-4-135-9-135-4 0-25 11-45 25s-39 25-42 25-12 6-20 14c-20 21-94 30-138 18-31-9-38-8-43 5s-8 12-14-5c-12-32-64-29-144 8-36 16-70 30-75 30-15 0-12 11 7 32 10 11 13 22 7 27-12 11-84 22-84 13 0-8-49-32-65-32-6 0-24 13-40 30-16 16-33 30-37 30-5 0-22 10-38 21-35 26-62 21-116-22-35-28-44-31-91-27-29 3-56 8-60 12-17 17-7 131 15 173 26 50 27 74 6 118-12 26-29 38-82 60-79 33-102 51-102 79 0 12-7 30-15 40s-12 23-9 28c3 4 2 33-2 64-6 50-10 58-45 80-21 13-47 24-56 24-29 0-119 46-126 65-4 9-7 38-7 64s-3 50-6 54c-14 14-94-37-94-61 0-4-39-7-87-8-49 0-97-3-108-8-17-6-27 1-53 38-18 25-32 51-31 58s1 30 0 52l-1 39-68-5-69-5-25 46c-14 25-29 62-33 81s-12 41-17 48c-16 19-66 14-89-9-27-27-67-20-120 21-21 17-44 30-51 28-15-3-70 47-87 78-8 17-7 25 4 34 18 15 19 36 3 95-12 43-14 45-50 45-25 0-45 7-58 20-18 18-20 29-14 83 3 34 10 66 15 72 5 5 9 13 9 17 0 12-38 10-45-2-10-16-73-12-83 5-4 9-21 19-38 24-17 4-31 15-33 27-5 26-56 74-79 74-10 0-25 11-32 25-8 14-19 24-25 21-14-5-110 92-145 146-14 21-30 38-37 38-6 0-18 8-25 19-24 33-69 49-131 46-31-2-57-2-57 1 0 2 15 11 33 20 17 10 27 19 20 21-6 2-23-3-36-12-22-14-26-14-37 0-7 8-10 15-6 15 3 0-4 17-16 37-12 21-23 54-24 73s-3 38-3 41c-1 10-50 21-104 25-41 2-117 21-167 42-18 7-29 9-56 11-20 1-35 25-38 60-1 8-10 19-21 25-10 6-27 21-37 33-15 18-27 21-66 19-26-1-56 2-67 8s-23 10-27 11c-3 0-20 10-36 22-23 17-28 27-25 47 4 19 1 26-10 26-9 0-19-5-22-11-4-6-13-8-19-6-12 5-40-28-41-48 0-5-11-12-24-13-20-3-23 0-18 17 6 24 7 24-30 10-36-14-121-21-136-12-7 4-23 8-37 8s-31 4-37 8c-7 5-17 6-22 2-5-3-13 0-16 6-4 5-13 8-20 5-7-2-16-2-20 2s-10 7-14 7-21 14-37 31-46 37-67 44c-31 10-38 16-34 31 7 24-18 25-32 1-10-16-10-16-11 1 0 18-1 18-27-1-35-23-112-52-140-52-12 0-24-4-27-9s-40-12-82-16c-57-5-79-4-92 7-49 39-83 50-130 42-81-14-86-14-143-14-42 0-63-5-83-21-24-19-31-18-27 4 2 14-30 7-35-8-8-19-53-16-79 4-42 33-67 41-126 41-49 0-72 6-107 26-38 22-50 25-90 18-72-11-122-13-117-4 11 18-16 19-72 4-32-9-78-17-103-19-112-7-188-7-198-1-6 4-26-1-43-10-26-13-56-15-170-12-94 3-142 8-153 17-14 12-20 11-37-5-11-10-27-19-35-20-9-1-23-9-32-17-11-9-51-17-107-21-84-7-92-6-109 13-13 14-31 21-55 21-30 0-40-6-58-35-13-19-23-41-23-50 0-14-13-28-124-133-31-29-56-57-56-61 0-14-75-79-95-83-20-3-32-44-22-71 2-7 4-15 3-18 0-4 8-17 19-29l20-22-24-19c-23-19-24-19-41 1-24 28-81 26-130-5-22-14-44-25-50-25-5 0-10-4-10-9s-10-13-22-17c-12-3-31-15-42-25-11-11-25-19-32-19s-19-6-26-13-25-18-41-24c-15-7-31-23-36-35-5-13-37-52-73-88-35-36-87-96-116-135-28-38-56-75-61-81s-17-26-27-45c-17-31-19-32-22-11-4 24-26 30-39 9-4-8-15-16-24-20-10-3-22-28-30-57-10-39-19-54-37-61-13-5-44-29-68-54s-50-45-58-45c-17 0-36-29-36-54 0-9 9-25 20-36 33-33 35-64 5-88-14-12-39-26-54-33-16-7-38-28-51-46-13-19-39-51-58-71-45-49-72-92-72-118 0-28-22-55-45-55-27-1-53 6-61 14-12 11-69 8-82-5-7-7-12-8-12-3 0 6-6-1-13-15-8-14-18-24-24-23-5 1-22-18-38-43-15-24-31-44-35-44-15 0-111-93-140-135-25-36-35-43-70-47-22-2-40 0-40 4 0 5-26 8-58 8-44 0-65-5-93-25-20-13-39-21-43-18-3 4-6 30-6 60 0 31-8 71-19 96-32 70-36 89-32 140 1 18 32 52 54 60 9 3 17 12 17 19s9 19 21 26c11 7 18 19 16 27-3 7-3 16 1 20s7 38 7 77v70l-61-6-62-6 3 197c2 109-1 205-6 214-5 10-18 21-29 24-27 9-25 37 5 65 23 21 25 31 25 107 0 49-4 83-10 83-5 0-10 6-10 13s-8 19-18 26c-15 10-18 23-14 66 4 53 4 53-36 79-44 27-46 31-61 120-16 86-14 132 6 152 22 21 26 44 8 44-20 0-29 20-16 33 18 18 13 55-10 68-12 6-48 15-81 19-61 9-83 19-61 27 8 3 11 14 7 29-5 18-2 24 11 24 37 0 165 134 165 174 0 15 32 95 55 137 8 14 12 28 9 31-2 3 3 27 11 53 9 26 14 58 11 71-5 18 1 30 24 51 28 26 30 34 34 109 4 87 9 104 32 104 13 0 18 14 17 47 0 7 4 11 9 10 6-1 13 4 15 11 3 6 0 12-6 12-7 0-11 22-11 55 0 44-4 57-17 62-48 18-58 77-15 88 35 8 82 53 75 71-3 8 0 14 6 14 17 0 13 29-10 61-11 16-17 29-12 29 4 0 2 4-6 9-11 7-12 13-4 23 6 7 10 29 10 49 0 19 3 41 7 47 4 7 4 12 0 12s1 9 12 21c11 13 17 32 16 50-2 16 1 29 7 29s11 16 11 35c0 38 42 93 104 136 53 36 60 54 32 84-13 14-28 25-35 25-23 0-10 47 22 78 18 18 36 32 39 32 4 0 23 10 43 21 33 20 35 23 21 38-9 10-36 27-61 40-34 17-47 30-53 54-9 34-21 38-104 38-20 0-42 6-48 14-7 8-16 13-20 10-5-3-11-1-15 4-7 13-52-6-79-33-15-15-27-17-65-12-29 4-64 0-95-9-27-8-58-15-69-15-20 0-20 0 1 23 31 33 29 81-4 112-15 14-31 25-35 26-32 4-56 2-67-5-24-15-72-25-72-15 0 6-7 6-19-1-11-5-52-10-91-10-61 0-76 4-101 24-28 24-28 24-6 30 20 5 21 7 6 22s-19 15-48 0c-17-9-31-23-31-30 0-9-7-12-18-9-19 5-55-22-65-50-4-9-15-20-24-23-10-3-31-12-46-20-16-7-39-14-51-14-29 0-77 24-101 50-11 12-22 17-29 11-16-13-76-1-76 15 0 7 6 17 13 21 16 10 37 49 37 68 0 8 5 15 10 15 6 0 10 5 10 11 0 7 7 17 15 23 11 8 17 39 22 109 5 74 11 103 25 119 10 11 18 24 18 27s21 20 45 36c39 26 45 35 45 66 0 19 6 41 13 48 10 10 8 12-8 9-11-1-20 2-20 9 0 6-3 15-7 19-5 4-8 27-8 51 0 37 5 49 33 76 29 27 63 100 80 172 1 6 7 17 12 25 37 57 44 90 20 90-14 0-63-45-91-84-10-14-16-16-26-8-7 5-16 10-20 9-5-1-20 9-35 23-34 32-93 73-93 66 0-11-76 79-89 106-7 14-11 37-8 50s7 28 8 33c2 6 9 16 16 23 15 16 18 92 3 92-5 0-10 5-10 11 0 16-31 38-52 39-10 0-18 6-18 14s-3 22-7 32c-4 12-3 15 6 9 21-12 91 30 91 55 0 6 5 8 10 5 6-3 10 1 10 10s5 13 10 10c6-4 10 5 10 19 0 29-22 34-65 14-21-9-31-9-46 0-11 7-23 10-28 8-4-3-14 6-22 20-12 24-11 28 11 48 35 30 37 69 6 94l-26 20 23 6c12 3 33 6 46 6 25 0 82 16 111 30 9 4 24 2 35-6 19-14 102-19 140-8 11 3 33 27 50 54 16 26 33 46 37 44 4-3 10 6 14 20 3 14 11 24 18 23 6-1 10 4 8 11-1 7 9 16 22 21 24 10 41 36 37 59-1 6 5 12 13 12 10 0 13 6 9 17-5 12-2 15 10 10 12-4 15-1 12 14-2 10 0 19 6 19 5 0 8 3 7 8-7 25 18 83 52 122 35 39 40 51 37 87-1 23-4 41-7 41-50-4 26 37 84 45 27 4 58 15 68 24 27 25 22 133-7 133-7 0-37 15-66 33-123 74-149 106-149 187 0 67-12 99-52 145-36 40-44 45-84 45-36 0-49 6-79 36-20 20-46 56-58 82-27 57-65 80-146 88l-62 7-42-40c-23-23-52-44-64-47-31-10-146 11-159 29-14 19-78 20-94 0-16-19-25-19-46 2-13 13-19 14-22 5-2-6-14-12-27-12-21 0-23 6-35 113-7 61-16 162-20 222-5 76-13 121-26 147-24 47-196 225-229 238-23 9-25 14-25 78 0 66 1 68 30 79 36 14 38 32 10 105-11 29-20 65-20 80s-5 39-11 55c-7 15-15 84-18 153l-6 125 34 32c29 27 39 31 65 25 17-4 60-7 96-7 67 0 70 1 177 77 30 21 163 187 163 203 0 4 16 29 35 55 55 76 95 211 95 325 0 51-6 74-31 121-17 33-38 67-46 77-13 14-14 17-2 18 23 1 101 9 146 15 51 6 104 55 238 218 136 166 150 180 168 173 8-3 18-21 22-39s13-42 21-53c7-11 17-59 22-108 5-48 15-94 22-102 21-25 50-18 68 17 9 17 27 41 40 53 12 12 22 25 22 28s13 19 29 36c16 18 35 47 41 65 10 32 8 38-29 90-22 32-49 87-60 124-24 81-59 118-117 128-66 10-105-7-247-106-51-36-64-40-115-40-32 0-62 4-68 9-12 12-206-49-233-73-12-11-42-48-68-83-41-57-57-69-137-109-50-25-106-55-124-66s-45-22-60-23c-29-3-54-10-91-28-13-7-35-10-48-9-14 2-41-7-64-22-47-32-56-32-55-3 1 24-12 26-69 13-27-7-24-1 36 56 79 75 108 116 88 122-22 7-92 18-112 17-14 0-17 5-12 17 4 9 11 61 15 116 7 92 10 100 38 129 30 29 32 30 50 14s20-16 41 5c43 45 89 104 126 163 21 33 51 75 67 93 26 31 30 61 6 46-6-4-29-11-50-14l-39-8 3 52c3 47 6 52 37 69 34 16 35 16 56-3 29-28 51-25 76 9l21 29 65-30 64-29 37 32c20 18 45 43 56 56 14 19 24 23 47 18 24-5 35-1 60 24l31 31-31 31c-17 17-31 38-31 48 0 46-69 64-174 47-39-6-56-4-82 10-38 21-43 47-19 93 24 47 2 54-83 26-40-13-94-27-120-31s-55-8-65-10c-34-6-67 25-67 62 0 39-14 52-29 27-10-17-10-17-11 0 0 21-18 23-26 2-4-8-17-15-30-15s-39-14-59-31c-50-44-93-36-135 27-20 28-38 44-48 42-30-5-26 64 9 185 18 62 39 117 46 122 8 6 15 27 16 46 1 21 7 35 13 32 5-2 26 3 46 11 62 26 55 90-11 94-48 4-53 9-45 51 3 20 9 67 11 104 3 43 9 70 18 73 19 8 6 46-14 39-14-4-16 2-13 41 3 29-1 51-10 62-8 9-18 25-21 35-4 9-22 27-41 38-44 26-49 42-30 87 33 76 44 129 44 207 0 69-6 100-44 213-45 132-45 133-25 153 16 16 17 23 9 40-8 15-8 44 0 107 9 64 9 94 1 115-6 16-14 26-18 24-5-3-10 45-11 107-2 63-9 124-17 141-7 17-16 46-20 65-9 50-46 120-63 120-12 0-12 3-2 15 9 11 10 19 3 26s-8 24-3 45c6 28 5 37-7 41-13 5-11 9 8 25 22 17 23 19 7 29-10 5-18 17-18 25s-20 24-45 35-45 23-45 27-9 13-21 20c-13 9-18 9-14 2 5-8 0-7-13 1-12 7-18 17-15 22 3 4-1 8-8 6-32-4-41 4-68 60-21 45-26 62-17 71 8 10 7 11-4 8-8-2-23 6-35 19-23 26-276 153-306 153-10 0-19-6-18-12z"/>
</g>
</svg>
